sourcesanspro-black.sfdir
StartChar: dollar
Encoding: 36 36 1702
Width: 540
Flags: MW
HStem: -110 236<212 271 225 271 225 324> -10 21G<212 212> -4 21G<324 324> 508 236<264.5 304.5> 620 20G<212 212> 622 20G<324 324>
VStem: 58 164<418 476 418 498.5> 212 112<-110 -10 -10 -10 642 744> 316 164<162.5 222>
LayerCount: 2
Fore
SplineSet
212 -110 m 1x85
 212 -10 l 1
 155 -3 84 21 34 66 c 1x45
 108 182 l 1
 162 142 204 126 246 126 c 0
 296 126 316 143 316 182 c 0
 316 262 58 273 58 448 c 0x8a80
 58 549 115 619 212 640 c 1x29
 212 744 l 1
 324 744 l 1x31
 324 642 l 1x25
 387 632 435 600 475 558 c 1x2480
 390 460 l 1
 354 492 323 508 286 508 c 0
 243 508 222 496 222 456 c 0
 222 380 480 376 480 194 c 0x3280
 480 97 429 21 324 -4 c 1x25
 324 -110 l 1
 212 -110 l 1x85
EndSplineSet
PairPos2: "'kern' Horizontal Kerning lookup 10 per glyph data 0" nine.onum dx=0 dy=0 dh=-30 dv=0 dx=0 dy=0 dh=0 dv=0
PairPos2: "'kern' Horizontal Kerning lookup 10 per glyph data 0" seven.onum dx=0 dy=0 dh=-100 dv=0 dx=0 dy=0 dh=0 dv=0
PairPos2: "'kern' Horizontal Kerning lookup 10 per glyph data 0" five.onum dx=0 dy=0 dh=-40 dv=0 dx=0 dy=0 dh=0 dv=0
PairPos2: "'kern' Horizontal Kerning lookup 10 per glyph data 0" three.onum dx=0 dy=0 dh=-40 dv=0 dx=0 dy=0 dh=0 dv=0
PairPos2: "'kern' Horizontal Kerning lookup 10 per glyph data 0" two.onum dx=0 dy=0 dh=-30 dv=0 dx=0 dy=0 dh=0 dv=0
PairPos2: "'kern' Horizontal Kerning lookup 10 per glyph data 0" one.onum dx=0 dy=0 dh=-30 dv=0 dx=0 dy=0 dh=0 dv=0
PairPos2: "'kern' Horizontal Kerning lookup 10 per glyph data 0" nine.pnum dx=0 dy=0 dh=-40 dv=0 dx=0 dy=0 dh=0 dv=0
PairPos2: "'kern' Horizontal Kerning lookup 10 per glyph data 0" seven.pnum dx=0 dy=0 dh=-30 dv=0 dx=0 dy=0 dh=0 dv=0
PairPos2: "'kern' Horizontal Kerning lookup 10 per glyph data 0" five.pnum dx=0 dy=0 dh=-20 dv=0 dx=0 dy=0 dh=0 dv=0
PairPos2: "'kern' Horizontal Kerning lookup 10 per glyph data 0" three.pnum dx=0 dy=0 dh=-20 dv=0 dx=0 dy=0 dh=0 dv=0
PairPos2: "'kern' Horizontal Kerning lookup 10 per glyph data 0" two.pnum dx=0 dy=0 dh=-10 dv=0 dx=0 dy=0 dh=0 dv=0
PairPos2: "'kern' Horizontal Kerning lookup 10 per glyph data 0" one.pnum dx=0 dy=0 dh=-40 dv=0 dx=0 dy=0 dh=0 dv=0
EndChar
StartChar: ampersand
Encoding: 38 38 1086
Width: 690
Flags: MW
HStem: -12 130<242 278.5 242 287.5> 550 112<276.5 302.5>
VStem: 22 162<166 197.5 166 221.5> 98 141<476 507 476 533> 328 130<489 522>
LayerCount: 2
Fore
SplineSet
246 -12 m 0xe8
 95 -12 22 78 22 176 c 0xe8
 22 267 75 319 137 357 c 1
 112 402 98 447 98 486 c 0xd8
 98 580 170 662 286 662 c 0
 390 662 458 602 458 508 c 0
 458 423 394 370 328 327 c 1
 361 292 401 259 442 230 c 1
 472 270 497 318 512 374 c 1
 668 374 l 1
 645 298 611 227 562 161 c 1
 601 142 639 130 670 126 c 1
 630 -12 l 1
 573 -2 514 20 456 51 c 1
 399 12 329 -12 246 -12 c 0xe8
239 486 m 0xd8
 239 466 245 444 257 421 c 1
 298 445 328 470 328 508 c 0
 328 536 315 550 290 550 c 0
 263 550 239 528 239 486 c 0xd8
268 118 m 0xe8
 289 118 310 124 332 134 c 1
 288 169 248 207 214 247 c 1
 196 228 184 209 184 186 c 0
 184 146 216 118 268 118 c 0xe8
EndSplineSet
Substitution2: "'c2sc' Capitals to Small Capitals lookup 19 subtable" ampersand.sc
Substitution2: "'aalt' Access All Alternates lookup 0 subtable" ampersand.sc
EndChar
StartChar: asterisk
Encoding: 42 42 1185
Width: 472
Flags: MW
HStem: 321 391<152 280 192 320>
VStem: 30 412<531 531>
LayerCount: 2
Fore
SplineSet
152 321 m 1
 82 372 l 1
 142 479 l 1
 30 531 l 1
 57 614 l 1
 178 590 l 1
 192 712 l 1
 280 712 l 1
 294 589 l 1
 415 614 l 1
 442 531 l 1
 329 479 l 1
 390 372 l 1
 320 321 l 1
 236 412 l 1
 152 321 l 1
EndSplineSet
EndChar
StartChar: hyphen
Encoding: 45 45 1162
Width: 340
Flags: MW
HStem: 194 120<44 296 44 296>
VStem: 44 252<194 314 194 314>
LayerCount: 2
Fore
SplineSet
44 194 m 1
 44 314 l 1
 296 314 l 1
 296 194 l 1
 44 194 l 1
EndSplineSet
Substitution2: "'sups' Superscript lookup 29 subtable" hyphen.sups
Substitution2: "'c2sc' Capitals to Small Capitals lookup 19 subtable" hyphen.sc
AlternateSubs2: "'aalt' Access All Alternates lookup 1 subtable" hyphen.sc hyphen.sups
PairPos2: "'kern' Horizontal Kerning lookup 10 per glyph data 8" uni028C dx=0 dy=0 dh=-20 dv=0 dx=0 dy=0 dh=0 dv=0
PairPos2: "'kern' Horizontal Kerning lookup 10 per glyph data 8" uni1E94 dx=0 dy=0 dh=-20 dv=0 dx=0 dy=0 dh=0 dv=0
PairPos2: "'kern' Horizontal Kerning lookup 10 per glyph data 8" uni1E92 dx=0 dy=0 dh=-20 dv=0 dx=0 dy=0 dh=0 dv=0
PairPos2: "'kern' Horizontal Kerning lookup 10 per glyph data 8" Zdotaccent dx=0 dy=0 dh=-20 dv=0 dx=0 dy=0 dh=0 dv=0
PairPos2: "'kern' Horizontal Kerning lookup 10 per glyph data 8" Zcaron dx=0 dy=0 dh=-20 dv=0 dx=0 dy=0 dh=0 dv=0
PairPos2: "'kern' Horizontal Kerning lookup 10 per glyph data 8" Zacute dx=0 dy=0 dh=-20 dv=0 dx=0 dy=0 dh=0 dv=0
PairPos2: "'kern' Horizontal Kerning lookup 10 per glyph data 8" Z dx=0 dy=0 dh=-20 dv=0 dx=0 dy=0 dh=0 dv=0
PairPos2: "'kern' Horizontal Kerning lookup 10 per glyph data 8" X dx=0 dy=0 dh=-40 dv=0 dx=0 dy=0 dh=0 dv=0
PairPos2: "'kern' Horizontal Kerning lookup 10 per glyph data 8" x dx=0 dy=0 dh=-20 dv=0 dx=0 dy=0 dh=0 dv=0
PairPos2: "'kern' Horizontal Kerning lookup 10 per glyph data 8" uni1E62 dx=0 dy=0 dh=-30 dv=0 dx=0 dy=0 dh=0 dv=0
PairPos2: "'kern' Horizontal Kerning lookup 10 per glyph data 8" uni1E60 dx=0 dy=0 dh=-30 dv=0 dx=0 dy=0 dh=0 dv=0
PairPos2: "'kern' Horizontal Kerning lookup 10 per glyph data 8" uni0218 dx=0 dy=0 dh=-30 dv=0 dx=0 dy=0 dh=0 dv=0
PairPos2: "'kern' Horizontal Kerning lookup 10 per glyph data 8" uni015E dx=0 dy=0 dh=-30 dv=0 dx=0 dy=0 dh=0 dv=0
PairPos2: "'kern' Horizontal Kerning lookup 10 per glyph data 8" Scaron dx=0 dy=0 dh=-30 dv=0 dx=0 dy=0 dh=0 dv=0
PairPos2: "'kern' Horizontal Kerning lookup 10 per glyph data 8" Scircumflex dx=0 dy=0 dh=-30 dv=0 dx=0 dy=0 dh=0 dv=0
PairPos2: "'kern' Horizontal Kerning lookup 10 per glyph data 8" Sacute dx=0 dy=0 dh=-30 dv=0 dx=0 dy=0 dh=0 dv=0
PairPos2: "'kern' Horizontal Kerning lookup 10 per glyph data 8" S dx=0 dy=0 dh=-30 dv=0 dx=0 dy=0 dh=0 dv=0
PairPos2: "'kern' Horizontal Kerning lookup 10 per glyph data 8" Zeta dx=0 dy=0 dh=-20 dv=0 dx=0 dy=0 dh=0 dv=0
PairPos2: "'kern' Horizontal Kerning lookup 10 per glyph data 8" Xi dx=0 dy=0 dh=-40 dv=0 dx=0 dy=0 dh=0 dv=0
PairPos2: "'kern' Horizontal Kerning lookup 10 per glyph data 8" Sigma dx=0 dy=0 dh=-40 dv=0 dx=0 dy=0 dh=0 dv=0
PairPos2: "'kern' Horizontal Kerning lookup 10 per glyph data 8" uni2126 dx=0 dy=0 dh=-10 dv=0 dx=0 dy=0 dh=0 dv=0
PairPos2: "'kern' Horizontal Kerning lookup 10 per glyph data 8" uni1FFC dx=0 dy=0 dh=-10 dv=0 dx=0 dy=0 dh=0 dv=0
PairPos2: "'kern' Horizontal Kerning lookup 10 per glyph data 8" uni03A9 dx=0 dy=0 dh=-10 dv=0 dx=0 dy=0 dh=0 dv=0
PairPos2: "'kern' Horizontal Kerning lookup 10 per glyph data 8" uni2206 dx=0 dy=0 dh=-20 dv=0 dx=0 dy=0 dh=0 dv=0
PairPos2: "'kern' Horizontal Kerning lookup 10 per glyph data 8" uni0394 dx=0 dy=0 dh=-20 dv=0 dx=0 dy=0 dh=0 dv=0
PairPos2: "'kern' Horizontal Kerning lookup 10 per glyph data 8" Chi dx=0 dy=0 dh=-40 dv=0 dx=0 dy=0 dh=0 dv=0
PairPos2: "'kern' Horizontal Kerning lookup 10 per glyph data 8" chi dx=0 dy=0 dh=-20 dv=0 dx=0 dy=0 dh=0 dv=0
PairPos2: "'kern' Horizontal Kerning lookup 10 per glyph data 8" uni04C1 dx=0 dy=0 dh=-40 dv=0 dx=0 dy=0 dh=0 dv=0
PairPos2: "'kern' Horizontal Kerning lookup 10 per glyph data 8" uni0496 dx=0 dy=0 dh=-40 dv=0 dx=0 dy=0 dh=0 dv=0
PairPos2: "'kern' Horizontal Kerning lookup 10 per glyph data 8" uni0416 dx=0 dy=0 dh=-40 dv=0 dx=0 dy=0 dh=0 dv=0
PairPos2: "'kern' Horizontal Kerning lookup 10 per glyph data 8" uni04C1.sc dx=0 dy=0 dh=-20 dv=0 dx=0 dy=0 dh=0 dv=0
PairPos2: "'kern' Horizontal Kerning lookup 10 per glyph data 8" uni0496.sc dx=0 dy=0 dh=-20 dv=0 dx=0 dy=0 dh=0 dv=0
PairPos2: "'kern' Horizontal Kerning lookup 10 per glyph data 8" uni0416.sc dx=0 dy=0 dh=-20 dv=0 dx=0 dy=0 dh=0 dv=0
PairPos2: "'kern' Horizontal Kerning lookup 10 per glyph data 8" uni04C2 dx=0 dy=0 dh=-30 dv=0 dx=0 dy=0 dh=0 dv=0
PairPos2: "'kern' Horizontal Kerning lookup 10 per glyph data 8" uni0497 dx=0 dy=0 dh=-30 dv=0 dx=0 dy=0 dh=0 dv=0
PairPos2: "'kern' Horizontal Kerning lookup 10 per glyph data 8" uni0436 dx=0 dy=0 dh=-30 dv=0 dx=0 dy=0 dh=0 dv=0
PairPos2: "'kern' Horizontal Kerning lookup 10 per glyph data 8" uni0498 dx=0 dy=0 dh=-20 dv=0 dx=0 dy=0 dh=0 dv=0
PairPos2: "'kern' Horizontal Kerning lookup 10 per glyph data 8" uni042D dx=0 dy=0 dh=-20 dv=0 dx=0 dy=0 dh=0 dv=0
PairPos2: "'kern' Horizontal Kerning lookup 10 per glyph data 8" uni0417 dx=0 dy=0 dh=-20 dv=0 dx=0 dy=0 dh=0 dv=0
PairPos2: "'kern' Horizontal Kerning lookup 10 per glyph data 8" uni0499 dx=0 dy=0 dh=-40 dv=0 dx=0 dy=0 dh=0 dv=0
PairPos2: "'kern' Horizontal Kerning lookup 10 per glyph data 8" uni0437 dx=0 dy=0 dh=-40 dv=0 dx=0 dy=0 dh=0 dv=0
PairPos2: "'kern' Horizontal Kerning lookup 10 per glyph data 8" uni042F dx=0 dy=0 dh=-30 dv=0 dx=0 dy=0 dh=0 dv=0
PairPos2: "'kern' Horizontal Kerning lookup 10 per glyph data 8" uni044F dx=0 dy=0 dh=-10 dv=0 dx=0 dy=0 dh=0 dv=0
PairPos2: "'kern' Horizontal Kerning lookup 10 per glyph data 8" uni04F2.sc dx=0 dy=0 dh=-20 dv=0 dx=0 dy=0 dh=0 dv=0
PairPos2: "'kern' Horizontal Kerning lookup 10 per glyph data 8" uni04EE.sc dx=0 dy=0 dh=-20 dv=0 dx=0 dy=0 dh=0 dv=0
PairPos2: "'kern' Horizontal Kerning lookup 10 per glyph data 8" uni040E.sc dx=0 dy=0 dh=-20 dv=0 dx=0 dy=0 dh=0 dv=0
PairPos2: "'kern' Horizontal Kerning lookup 10 per glyph data 8" uni0423.sc dx=0 dy=0 dh=-20 dv=0 dx=0 dy=0 dh=0 dv=0
PairPos2: "'kern' Horizontal Kerning lookup 10 per glyph data 8" uni04B2 dx=0 dy=0 dh=-40 dv=0 dx=0 dy=0 dh=0 dv=0
PairPos2: "'kern' Horizontal Kerning lookup 10 per glyph data 8" uni0425 dx=0 dy=0 dh=-40 dv=0 dx=0 dy=0 dh=0 dv=0
PairPos2: "'kern' Horizontal Kerning lookup 10 per glyph data 8" uni04B3 dx=0 dy=0 dh=-20 dv=0 dx=0 dy=0 dh=0 dv=0
PairPos2: "'kern' Horizontal Kerning lookup 10 per glyph data 8" uni0445 dx=0 dy=0 dh=-20 dv=0 dx=0 dy=0 dh=0 dv=0
PairPos2: "'kern' Horizontal Kerning lookup 10 per glyph data 8" uni044D dx=0 dy=0 dh=-30 dv=0 dx=0 dy=0 dh=0 dv=0
PairPos2: "'kern' Horizontal Kerning lookup 10 per glyph data 8" uni0405 dx=0 dy=0 dh=-30 dv=0 dx=0 dy=0 dh=0 dv=0
PairPos2: "'kern' Horizontal Kerning lookup 10 per glyph data 8" Wdieresis dx=0 dy=0 dh=-10 dv=0 dx=0 dy=0 dh=0 dv=0
PairPos2: "'kern' Horizontal Kerning lookup 10 per glyph data 8" Wcircumflex dx=0 dy=0 dh=-10 dv=0 dx=0 dy=0 dh=0 dv=0
PairPos2: "'kern' Horizontal Kerning lookup 10 per glyph data 8" Wacute dx=0 dy=0 dh=-10 dv=0 dx=0 dy=0 dh=0 dv=0
PairPos2: "'kern' Horizontal Kerning lookup 10 per glyph data 8" Wgrave dx=0 dy=0 dh=-10 dv=0 dx=0 dy=0 dh=0 dv=0
PairPos2: "'kern' Horizontal Kerning lookup 10 per glyph data 8" W dx=0 dy=0 dh=-10 dv=0 dx=0 dy=0 dh=0 dv=0
PairPos2: "'kern' Horizontal Kerning lookup 10 per glyph data 8" V dx=0 dy=0 dh=-20 dv=0 dx=0 dy=0 dh=0 dv=0
PairPos2: "'kern' Horizontal Kerning lookup 10 per glyph data 8" v dx=0 dy=0 dh=-20 dv=0 dx=0 dy=0 dh=0 dv=0
PairPos2: "'kern' Horizontal Kerning lookup 10 per glyph data 8" uni0166 dx=0 dy=0 dh=-60 dv=0 dx=0 dy=0 dh=0 dv=0
PairPos2: "'kern' Horizontal Kerning lookup 10 per glyph data 8" uni1E6E dx=0 dy=0 dh=-60 dv=0 dx=0 dy=0 dh=0 dv=0
PairPos2: "'kern' Horizontal Kerning lookup 10 per glyph data 8" uni1E6C dx=0 dy=0 dh=-60 dv=0 dx=0 dy=0 dh=0 dv=0
PairPos2: "'kern' Horizontal Kerning lookup 10 per glyph data 8" uni021A dx=0 dy=0 dh=-60 dv=0 dx=0 dy=0 dh=0 dv=0
PairPos2: "'kern' Horizontal Kerning lookup 10 per glyph data 8" uni0162 dx=0 dy=0 dh=-60 dv=0 dx=0 dy=0 dh=0 dv=0
PairPos2: "'kern' Horizontal Kerning lookup 10 per glyph data 8" Tcaron dx=0 dy=0 dh=-60 dv=0 dx=0 dy=0 dh=0 dv=0
PairPos2: "'kern' Horizontal Kerning lookup 10 per glyph data 8" T dx=0 dy=0 dh=-60 dv=0 dx=0 dy=0 dh=0 dv=0
PairPos2: "'kern' Horizontal Kerning lookup 10 per glyph data 8" uni0166.sc dx=0 dy=0 dh=-10 dv=0 dx=0 dy=0 dh=0 dv=0
PairPos2: "'kern' Horizontal Kerning lookup 10 per glyph data 8" uni1E6E.sc dx=0 dy=0 dh=-10 dv=0 dx=0 dy=0 dh=0 dv=0
PairPos2: "'kern' Horizontal Kerning lookup 10 per glyph data 8" uni1E6C.sc dx=0 dy=0 dh=-10 dv=0 dx=0 dy=0 dh=0 dv=0
PairPos2: "'kern' Horizontal Kerning lookup 10 per glyph data 8" uni021A.sc dx=0 dy=0 dh=-10 dv=0 dx=0 dy=0 dh=0 dv=0
PairPos2: "'kern' Horizontal Kerning lookup 10 per glyph data 8" uni0162.sc dx=0 dy=0 dh=-10 dv=0 dx=0 dy=0 dh=0 dv=0
PairPos2: "'kern' Horizontal Kerning lookup 10 per glyph data 8" Tcaron.sc dx=0 dy=0 dh=-10 dv=0 dx=0 dy=0 dh=0 dv=0
PairPos2: "'kern' Horizontal Kerning lookup 10 per glyph data 8" T.sc dx=0 dy=0 dh=-10 dv=0 dx=0 dy=0 dh=0 dv=0
PairPos2: "'kern' Horizontal Kerning lookup 10 per glyph data 8" uni0288 dx=0 dy=0 dh=-20 dv=0 dx=0 dy=0 dh=0 dv=0
PairPos2: "'kern' Horizontal Kerning lookup 10 per glyph data 8" uni0167 dx=0 dy=0 dh=-20 dv=0 dx=0 dy=0 dh=0 dv=0
PairPos2: "'kern' Horizontal Kerning lookup 10 per glyph data 8" uni1E97 dx=0 dy=0 dh=-20 dv=0 dx=0 dy=0 dh=0 dv=0
PairPos2: "'kern' Horizontal Kerning lookup 10 per glyph data 8" uni1E6F dx=0 dy=0 dh=-20 dv=0 dx=0 dy=0 dh=0 dv=0
PairPos2: "'kern' Horizontal Kerning lookup 10 per glyph data 8" uni1E6D dx=0 dy=0 dh=-20 dv=0 dx=0 dy=0 dh=0 dv=0
PairPos2: "'kern' Horizontal Kerning lookup 10 per glyph data 8" uni021B dx=0 dy=0 dh=-20 dv=0 dx=0 dy=0 dh=0 dv=0
PairPos2: "'kern' Horizontal Kerning lookup 10 per glyph data 8" uni0163 dx=0 dy=0 dh=-20 dv=0 dx=0 dy=0 dh=0 dv=0
PairPos2: "'kern' Horizontal Kerning lookup 10 per glyph data 8" tcaron dx=0 dy=0 dh=-20 dv=0 dx=0 dy=0 dh=0 dv=0
PairPos2: "'kern' Horizontal Kerning lookup 10 per glyph data 8" t dx=0 dy=0 dh=-20 dv=0 dx=0 dy=0 dh=0 dv=0
PairPos2: "'kern' Horizontal Kerning lookup 10 per glyph data 8" Tau dx=0 dy=0 dh=-60 dv=0 dx=0 dy=0 dh=0 dv=0
PairPos2: "'kern' Horizontal Kerning lookup 10 per glyph data 8" Tau.sc dx=0 dy=0 dh=-10 dv=0 dx=0 dy=0 dh=0 dv=0
PairPos2: "'kern' Horizontal Kerning lookup 10 per glyph data 8" tau dx=0 dy=0 dh=-20 dv=0 dx=0 dy=0 dh=0 dv=0
PairPos2: "'kern' Horizontal Kerning lookup 10 per glyph data 8" Psi dx=0 dy=0 dh=-40 dv=0 dx=0 dy=0 dh=0 dv=0
PairPos2: "'kern' Horizontal Kerning lookup 10 per glyph data 8" uni0462 dx=0 dy=0 dh=-40 dv=0 dx=0 dy=0 dh=0 dv=0
PairPos2: "'kern' Horizontal Kerning lookup 10 per glyph data 8" uni0462.sc dx=0 dy=0 dh=-20 dv=0 dx=0 dy=0 dh=0 dv=0
PairPos2: "'kern' Horizontal Kerning lookup 10 per glyph data 8" uni04F2 dx=0 dy=0 dh=-40 dv=0 dx=0 dy=0 dh=0 dv=0
PairPos2: "'kern' Horizontal Kerning lookup 10 per glyph data 8" uni04EE dx=0 dy=0 dh=-40 dv=0 dx=0 dy=0 dh=0 dv=0
PairPos2: "'kern' Horizontal Kerning lookup 10 per glyph data 8" uni040E dx=0 dy=0 dh=-40 dv=0 dx=0 dy=0 dh=0 dv=0
PairPos2: "'kern' Horizontal Kerning lookup 10 per glyph data 8" uni0423 dx=0 dy=0 dh=-40 dv=0 dx=0 dy=0 dh=0 dv=0
PairPos2: "'kern' Horizontal Kerning lookup 10 per glyph data 8" uni04A0 dx=0 dy=0 dh=-60 dv=0 dx=0 dy=0 dh=0 dv=0
PairPos2: "'kern' Horizontal Kerning lookup 10 per glyph data 8" uni040B dx=0 dy=0 dh=-60 dv=0 dx=0 dy=0 dh=0 dv=0
PairPos2: "'kern' Horizontal Kerning lookup 10 per glyph data 8" uni0402 dx=0 dy=0 dh=-60 dv=0 dx=0 dy=0 dh=0 dv=0
PairPos2: "'kern' Horizontal Kerning lookup 10 per glyph data 8" uni042A dx=0 dy=0 dh=-60 dv=0 dx=0 dy=0 dh=0 dv=0
PairPos2: "'kern' Horizontal Kerning lookup 10 per glyph data 8" uni0422 dx=0 dy=0 dh=-60 dv=0 dx=0 dy=0 dh=0 dv=0
PairPos2: "'kern' Horizontal Kerning lookup 10 per glyph data 8" uni04A0.sc dx=0 dy=0 dh=-10 dv=0 dx=0 dy=0 dh=0 dv=0
PairPos2: "'kern' Horizontal Kerning lookup 10 per glyph data 8" uni040B.sc dx=0 dy=0 dh=-10 dv=0 dx=0 dy=0 dh=0 dv=0
PairPos2: "'kern' Horizontal Kerning lookup 10 per glyph data 8" uni0402.sc dx=0 dy=0 dh=-10 dv=0 dx=0 dy=0 dh=0 dv=0
PairPos2: "'kern' Horizontal Kerning lookup 10 per glyph data 8" uni042A.sc dx=0 dy=0 dh=-10 dv=0 dx=0 dy=0 dh=0 dv=0
PairPos2: "'kern' Horizontal Kerning lookup 10 per glyph data 8" uni0422.sc dx=0 dy=0 dh=-10 dv=0 dx=0 dy=0 dh=0 dv=0
PairPos2: "'kern' Horizontal Kerning lookup 10 per glyph data 8" uni04A1 dx=0 dy=0 dh=-20 dv=0 dx=0 dy=0 dh=0 dv=0
PairPos2: "'kern' Horizontal Kerning lookup 10 per glyph data 8" uni044A dx=0 dy=0 dh=-20 dv=0 dx=0 dy=0 dh=0 dv=0
PairPos2: "'kern' Horizontal Kerning lookup 10 per glyph data 8" uni0442 dx=0 dy=0 dh=-20 dv=0 dx=0 dy=0 dh=0 dv=0
PairPos2: "'kern' Horizontal Kerning lookup 10 per glyph data 8" uni0474 dx=0 dy=0 dh=-20 dv=0 dx=0 dy=0 dh=0 dv=0
PairPos2: "'kern' Horizontal Kerning lookup 10 per glyph data 8" uni04B1 dx=0 dy=0 dh=-20 dv=0 dx=0 dy=0 dh=0 dv=0
PairPos2: "'kern' Horizontal Kerning lookup 10 per glyph data 8" uni04AF dx=0 dy=0 dh=-20 dv=0 dx=0 dy=0 dh=0 dv=0
PairPos2: "'kern' Horizontal Kerning lookup 10 per glyph data 8" uni0475 dx=0 dy=0 dh=-20 dv=0 dx=0 dy=0 dh=0 dv=0
PairPos2: "'kern' Horizontal Kerning lookup 10 per glyph data 8" uni04B6 dx=0 dy=0 dh=-20 dv=0 dx=0 dy=0 dh=0 dv=0
PairPos2: "'kern' Horizontal Kerning lookup 10 per glyph data 8" uni0427 dx=0 dy=0 dh=-20 dv=0 dx=0 dy=0 dh=0 dv=0
PairPos2: "'kern' Horizontal Kerning lookup 10 per glyph data 8" uni04B6.sc dx=0 dy=0 dh=-10 dv=0 dx=0 dy=0 dh=0 dv=0
PairPos2: "'kern' Horizontal Kerning lookup 10 per glyph data 8" uni0427.sc dx=0 dy=0 dh=-10 dv=0 dx=0 dy=0 dh=0 dv=0
PairPos2: "'kern' Horizontal Kerning lookup 10 per glyph data 8" uni1EF8 dx=0 dy=0 dh=-80 dv=0 dx=0 dy=0 dh=0 dv=0
PairPos2: "'kern' Horizontal Kerning lookup 10 per glyph data 8" uni1EF6 dx=0 dy=0 dh=-80 dv=0 dx=0 dy=0 dh=0 dv=0
PairPos2: "'kern' Horizontal Kerning lookup 10 per glyph data 8" uni1EF4 dx=0 dy=0 dh=-80 dv=0 dx=0 dy=0 dh=0 dv=0
PairPos2: "'kern' Horizontal Kerning lookup 10 per glyph data 8" uni1E8E dx=0 dy=0 dh=-80 dv=0 dx=0 dy=0 dh=0 dv=0
PairPos2: "'kern' Horizontal Kerning lookup 10 per glyph data 8" Ydieresis dx=0 dy=0 dh=-80 dv=0 dx=0 dy=0 dh=0 dv=0
PairPos2: "'kern' Horizontal Kerning lookup 10 per glyph data 8" Ycircumflex dx=0 dy=0 dh=-80 dv=0 dx=0 dy=0 dh=0 dv=0
PairPos2: "'kern' Horizontal Kerning lookup 10 per glyph data 8" Yacute dx=0 dy=0 dh=-80 dv=0 dx=0 dy=0 dh=0 dv=0
PairPos2: "'kern' Horizontal Kerning lookup 10 per glyph data 8" Ygrave dx=0 dy=0 dh=-80 dv=0 dx=0 dy=0 dh=0 dv=0
PairPos2: "'kern' Horizontal Kerning lookup 10 per glyph data 8" Y dx=0 dy=0 dh=-80 dv=0 dx=0 dy=0 dh=0 dv=0
PairPos2: "'kern' Horizontal Kerning lookup 10 per glyph data 8" uni1FE9 dx=0 dy=0 dh=-80 dv=0 dx=0 dy=0 dh=0 dv=0
PairPos2: "'kern' Horizontal Kerning lookup 10 per glyph data 8" uni1FE8 dx=0 dy=0 dh=-80 dv=0 dx=0 dy=0 dh=0 dv=0
PairPos2: "'kern' Horizontal Kerning lookup 10 per glyph data 8" Upsilondieresis dx=0 dy=0 dh=-80 dv=0 dx=0 dy=0 dh=0 dv=0
PairPos2: "'kern' Horizontal Kerning lookup 10 per glyph data 8" Upsilon dx=0 dy=0 dh=-80 dv=0 dx=0 dy=0 dh=0 dv=0
PairPos2: "'kern' Horizontal Kerning lookup 10 per glyph data 8" uni0409 dx=0 dy=0 dh=-10 dv=0 dx=0 dy=0 dh=0 dv=0
PairPos2: "'kern' Horizontal Kerning lookup 10 per glyph data 8" uni041B dx=0 dy=0 dh=-10 dv=0 dx=0 dy=0 dh=0 dv=0
PairPos2: "'kern' Horizontal Kerning lookup 10 per glyph data 8" uni0459 dx=0 dy=0 dh=-10 dv=0 dx=0 dy=0 dh=0 dv=0
PairPos2: "'kern' Horizontal Kerning lookup 10 per glyph data 8" uni043B dx=0 dy=0 dh=-10 dv=0 dx=0 dy=0 dh=0 dv=0
PairPos2: "'kern' Horizontal Kerning lookup 10 per glyph data 8" Jcircumflex dx=0 dy=0 dh=-20 dv=0 dx=0 dy=0 dh=0 dv=0
PairPos2: "'kern' Horizontal Kerning lookup 10 per glyph data 8" J dx=0 dy=0 dh=-20 dv=0 dx=0 dy=0 dh=0 dv=0
PairPos2: "'kern' Horizontal Kerning lookup 10 per glyph data 8" uni0463 dx=0 dy=0 dh=-40 dv=0 dx=0 dy=0 dh=0 dv=0
PairPos2: "'kern' Horizontal Kerning lookup 10 per glyph data 8" uni0408 dx=0 dy=0 dh=-20 dv=0 dx=0 dy=0 dh=0 dv=0
PairPos2: "'kern' Horizontal Kerning lookup 10 per glyph data 8" uni0424.sc dx=0 dy=0 dh=10 dv=0 dx=0 dy=0 dh=0 dv=0
PairPos2: "'kern' Horizontal Kerning lookup 10 per glyph data 8" uni0414 dx=0 dy=0 dh=-10 dv=0 dx=0 dy=0 dh=0 dv=0
PairPos2: "'kern' Horizontal Kerning lookup 10 per glyph data 8" uni0414.sc dx=0 dy=0 dh=-10 dv=0 dx=0 dy=0 dh=0 dv=0
PairPos2: "'kern' Horizontal Kerning lookup 10 per glyph data 8" uni0434 dx=0 dy=0 dh=-10 dv=0 dx=0 dy=0 dh=0 dv=0
EndChar
StartChar: three
Encoding: 51 51 1090
Width: 540
Flags: MW
HStem: -12 138<205.5 256 205.5 312> 262 120<162 215 162 228.5> 512 134<213 255.5>
VStem: 162 208<326 330 326 382 326 382> 300 172<436.5 473> 320 172<166 210>
LayerCount: 2
Fore
SplineSet
246 -12 m 0xe4
 143 -12 68 22 20 78 c 1
 98 186 l 1
 137 150 183 126 228 126 c 0
 284 126 320 146 320 186 c 0xe4
 320 234 295 262 162 262 c 1
 162 382 l 1xf0
 268 382 300 410 300 454 c 0
 300 492 277 512 234 512 c 0
 192 512 162 494 122 460 c 1
 36 564 l 1
 98 616 164 646 242 646 c 0
 382 646 472 582 472 467 c 0xe8
 472 406 438 360 370 330 c 1
 370 326 l 1xf0
 442 304 492 254 492 174 c 0
 492 54 378 -12 246 -12 c 0xe4
EndSplineSet
Substitution2: "'onum' Oldstyle Figures lookup 32 subtable" three.tnum
Substitution2: "'pnum' Proportional Numbers lookup 31 subtable" three.pnum
Substitution2: "'subs' Subscript lookup 30 subtable" three.subs
Substitution2: "'sups' Superscript lookup 28 subtable" three.sups
Substitution2: "'dnom' Denominators lookup 23 subtable" three.dnom
Substitution2: "'numr' Numerators lookup 22 subtable" three.numr
Substitution2: "'smcp' Lowercase to Small Capitals lookup 18 subtable" three.sc
AlternateSubs2: "'aalt' Access All Alternates lookup 1 subtable" three.sc three.numr three.dnom three.sups three.subs three.pnum three.tnum
EndChar
StartChar: four
Encoding: 52 52 1091
Width: 540
Flags: MW
HStem: 0 21G<290 290 290 450> 142 130<182 290 182 290 450 518> 494 140<292 296 292 292>
VStem: 290 160<0 142 0 142 272 344 344 365.5>
LayerCount: 2
Fore
SplineSet
290 0 m 1
 290 142 l 1
 20 142 l 1
 20 262 l 1
 236 634 l 1
 450 634 l 1
 450 272 l 1
 518 272 l 1
 518 142 l 1
 450 142 l 1
 450 0 l 1
 290 0 l 1
182 272 m 1
 290 272 l 1
 290 344 l 2
 290 387 294 451 296 494 c 1
 292 494 l 1
 276 456 258 418 240 380 c 1
 182 272 l 1
EndSplineSet
Substitution2: "'onum' Oldstyle Figures lookup 32 subtable" four.tnum
Substitution2: "'pnum' Proportional Numbers lookup 31 subtable" four.pnum
Substitution2: "'subs' Subscript lookup 30 subtable" four.subs
Substitution2: "'sups' Superscript lookup 28 subtable" four.sups
Substitution2: "'dnom' Denominators lookup 23 subtable" four.dnom
Substitution2: "'numr' Numerators lookup 22 subtable" four.numr
Substitution2: "'smcp' Lowercase to Small Capitals lookup 18 subtable" four.sc
AlternateSubs2: "'aalt' Access All Alternates lookup 1 subtable" four.sc four.numr four.dnom four.sups four.subs four.pnum four.tnum
EndChar
StartChar: seven
Encoding: 55 55 1094
Width: 540
Flags: MW
HStem: 0 21G<152 152 152 324> 490 144<44 316 44 498>
VStem: 152 172<0 0>
LayerCount: 2
Fore
SplineSet
152 0 m 1
 164 200 198 327 316 490 c 1
 44 490 l 1
 44 634 l 1
 498 634 l 1
 498 528 l 1
 352 357 336 247 324 0 c 1
 152 0 l 1
EndSplineSet
Substitution2: "'onum' Oldstyle Figures lookup 32 subtable" seven.tnum
Substitution2: "'pnum' Proportional Numbers lookup 31 subtable" seven.pnum
Substitution2: "'subs' Subscript lookup 30 subtable" seven.subs
Substitution2: "'sups' Superscript lookup 28 subtable" seven.sups
Substitution2: "'dnom' Denominators lookup 23 subtable" seven.dnom
Substitution2: "'numr' Numerators lookup 22 subtable" seven.numr
Substitution2: "'smcp' Lowercase to Small Capitals lookup 18 subtable" seven.sc
AlternateSubs2: "'aalt' Access All Alternates lookup 1 subtable" seven.sc seven.numr seven.dnom seven.sups seven.subs seven.pnum seven.tnum
EndChar
StartChar: nine
Encoding: 57 57 1096
Width: 540
Flags: MW
HStem: -12 138<208 257.5 208 306> 234 120<240 241> 518 128<238 271.5>
VStem: 32 156<399.5 463.5 399.5 498> 343 157
LayerCount: 2
Fore
SplineSet
258 354 m 0
 288 354 319 370 339 408 c 1
 325 497 287 518 256 518 c 0
 220 518 188 497 188 430 c 0
 188 369 222 354 258 354 c 0
238 -12 m 0
 148 -12 82 26 40 68 c 1
 130 170 l 1
 150 148 190 126 226 126 c 0
 289 126 337 169 343 297 c 1
 312 256 258 234 224 234 c 0
 116 234 32 294 32 430 c 0
 32 566 132 646 252 646 c 0
 374 646 500 558 500 328 c 0
 500 98 374 -12 238 -12 c 0
EndSplineSet
Substitution2: "'onum' Oldstyle Figures lookup 32 subtable" nine.tnum
Substitution2: "'pnum' Proportional Numbers lookup 31 subtable" nine.pnum
Substitution2: "'subs' Subscript lookup 30 subtable" nine.subs
Substitution2: "'sups' Superscript lookup 28 subtable" nine.sups
Substitution2: "'dnom' Denominators lookup 23 subtable" nine.dnom
Substitution2: "'numr' Numerators lookup 22 subtable" nine.numr
Substitution2: "'smcp' Lowercase to Small Capitals lookup 18 subtable" nine.sc
AlternateSubs2: "'aalt' Access All Alternates lookup 1 subtable" nine.sc nine.numr nine.dnom nine.sups nine.subs nine.pnum nine.tnum
EndChar
StartChar: semicolon
Encoding: 59 59 1144
Width: 320
Flags: MW
HStem: 8 188<135 161 160 167> 298 208<131 189>
VStem: 60 200<373 431> 167 111
LayerCount: 2
Fore
SplineSet
160 298 m 0x60
 102 298 60 344 60 402 c 0
 60 460 102 506 160 506 c 0
 218 506 260 460 260 402 c 0
 260 344 218 298 160 298 c 0x60
80 -204 m 1
 46 -114 l 1
 127 -88 168 -40 167 8 c 1
 165 8 162 8 160 8 c 0
 108 8 60 42 60 102 c 0
 60 158 106 196 164 196 c 0
 238 196 278 138 278 40 c 0x90
 278 -78 210 -168 80 -204 c 1
EndSplineSet
PairPos2: "'kern' Horizontal Kerning lookup 10 per glyph data 8" asterisk dx=0 dy=0 dh=-20 dv=0 dx=0 dy=0 dh=0 dv=0
PairPos2: "'kern' Horizontal Kerning lookup 10 per glyph data 8" uni1EF8 dx=0 dy=0 dh=-40 dv=0 dx=0 dy=0 dh=0 dv=0
PairPos2: "'kern' Horizontal Kerning lookup 10 per glyph data 8" uni1EF6 dx=0 dy=0 dh=-40 dv=0 dx=0 dy=0 dh=0 dv=0
PairPos2: "'kern' Horizontal Kerning lookup 10 per glyph data 8" uni1EF4 dx=0 dy=0 dh=-40 dv=0 dx=0 dy=0 dh=0 dv=0
PairPos2: "'kern' Horizontal Kerning lookup 10 per glyph data 8" uni1E8E dx=0 dy=0 dh=-40 dv=0 dx=0 dy=0 dh=0 dv=0
PairPos2: "'kern' Horizontal Kerning lookup 10 per glyph data 8" Ydieresis dx=0 dy=0 dh=-40 dv=0 dx=0 dy=0 dh=0 dv=0
PairPos2: "'kern' Horizontal Kerning lookup 10 per glyph data 8" Ycircumflex dx=0 dy=0 dh=-40 dv=0 dx=0 dy=0 dh=0 dv=0
PairPos2: "'kern' Horizontal Kerning lookup 10 per glyph data 8" Yacute dx=0 dy=0 dh=-40 dv=0 dx=0 dy=0 dh=0 dv=0
PairPos2: "'kern' Horizontal Kerning lookup 10 per glyph data 8" Ygrave dx=0 dy=0 dh=-40 dv=0 dx=0 dy=0 dh=0 dv=0
PairPos2: "'kern' Horizontal Kerning lookup 10 per glyph data 8" Y dx=0 dy=0 dh=-40 dv=0 dx=0 dy=0 dh=0 dv=0
PairPos2: "'kern' Horizontal Kerning lookup 10 per glyph data 8" hbar dx=0 dy=0 dh=-10 dv=0 dx=0 dy=0 dh=0 dv=0
PairPos2: "'kern' Horizontal Kerning lookup 10 per glyph data 8" uni0180 dx=0 dy=0 dh=-10 dv=0 dx=0 dy=0 dh=0 dv=0
PairPos2: "'kern' Horizontal Kerning lookup 10 per glyph data 8" uni1FE9 dx=0 dy=0 dh=-40 dv=0 dx=0 dy=0 dh=0 dv=0
PairPos2: "'kern' Horizontal Kerning lookup 10 per glyph data 8" uni1FE8 dx=0 dy=0 dh=-40 dv=0 dx=0 dy=0 dh=0 dv=0
PairPos2: "'kern' Horizontal Kerning lookup 10 per glyph data 8" Upsilondieresis dx=0 dy=0 dh=-40 dv=0 dx=0 dy=0 dh=0 dv=0
PairPos2: "'kern' Horizontal Kerning lookup 10 per glyph data 8" Upsilon dx=0 dy=0 dh=-40 dv=0 dx=0 dy=0 dh=0 dv=0
PairPos2: "'kern' Horizontal Kerning lookup 10 per glyph data 8" uni0409 dx=0 dy=0 dh=40 dv=0 dx=0 dy=0 dh=0 dv=0
PairPos2: "'kern' Horizontal Kerning lookup 10 per glyph data 8" uni041B dx=0 dy=0 dh=40 dv=0 dx=0 dy=0 dh=0 dv=0
PairPos2: "'kern' Horizontal Kerning lookup 10 per glyph data 8" uni0459 dx=0 dy=0 dh=20 dv=0 dx=0 dy=0 dh=0 dv=0
PairPos2: "'kern' Horizontal Kerning lookup 10 per glyph data 8" uni043B dx=0 dy=0 dh=20 dv=0 dx=0 dy=0 dh=0 dv=0
PairPos2: "'kern' Horizontal Kerning lookup 10 per glyph data 8" uni045B dx=0 dy=0 dh=-10 dv=0 dx=0 dy=0 dh=0 dv=0
PairPos2: "'kern' Horizontal Kerning lookup 10 per glyph data 8" uni0452 dx=0 dy=0 dh=-10 dv=0 dx=0 dy=0 dh=0 dv=0
PairPos2: "'kern' Horizontal Kerning lookup 10 per glyph data 8" uni0284 dx=0 dy=0 dh=4 dv=0 dx=0 dy=0 dh=0 dv=0
PairPos2: "'kern' Horizontal Kerning lookup 10 per glyph data 8" uni0283 dx=0 dy=0 dh=4 dv=0 dx=0 dy=0 dh=0 dv=0
PairPos2: "'kern' Horizontal Kerning lookup 10 per glyph data 8" uni0272 dx=0 dy=0 dh=4 dv=0 dx=0 dy=0 dh=0 dv=0
PairPos2: "'kern' Horizontal Kerning lookup 10 per glyph data 8" uni025F dx=0 dy=0 dh=4 dv=0 dx=0 dy=0 dh=0 dv=0
PairPos2: "'kern' Horizontal Kerning lookup 10 per glyph data 8" uni0237 dx=0 dy=0 dh=4 dv=0 dx=0 dy=0 dh=0 dv=0
PairPos2: "'kern' Horizontal Kerning lookup 10 per glyph data 8" jcircumflex dx=0 dy=0 dh=4 dv=0 dx=0 dy=0 dh=0 dv=0
PairPos2: "'kern' Horizontal Kerning lookup 10 per glyph data 8" j dx=0 dy=0 dh=4 dv=0 dx=0 dy=0 dh=0 dv=0
PairPos2: "'kern' Horizontal Kerning lookup 10 per glyph data 8" uni0458 dx=0 dy=0 dh=4 dv=0 dx=0 dy=0 dh=0 dv=0
PairPos2: "'kern' Horizontal Kerning lookup 10 per glyph data 8" uni0414 dx=0 dy=0 dh=40 dv=0 dx=0 dy=0 dh=0 dv=0
PairPos2: "'kern' Horizontal Kerning lookup 10 per glyph data 8" uni0414.sc dx=0 dy=0 dh=40 dv=0 dx=0 dy=0 dh=0 dv=0
PairPos2: "'kern' Horizontal Kerning lookup 10 per glyph data 8" uni0434 dx=0 dy=0 dh=20 dv=0 dx=0 dy=0 dh=0 dv=0
EndChar
StartChar: less
Encoding: 60 60 1754
Width: 540
Flags: MW
HStem: 94 476<506 506>
VStem: 34 174<330 334 330 390 330 390> 34 472<94 390 94 390>
LayerCount: 2
Fore
SplineSet
506 94 m 1xa0
 34 274 l 1
 34 390 l 1
 506 570 l 1
 506 430 l 1
 344 380 l 1
 208 334 l 1
 208 330 l 1xc0
 344 284 l 1
 506 234 l 1
 506 94 l 1xa0
EndSplineSet
EndChar
StartChar: greater
Encoding: 62 62 1755
Width: 540
Flags: MW
HStem: 94 476<34 34>
VStem: 34 472<94 390 234 390 274 570 274 570> 332 174<330 334 334 334>
LayerCount: 2
Fore
SplineSet
34 94 m 1xc0
 34 234 l 1
 196 284 l 1
 332 330 l 1
 332 334 l 1
 196 380 l 1
 34 430 l 1
 34 570 l 1
 506 390 l 1
 506 274 l 1xa0
 34 94 l 1xc0
EndSplineSet
EndChar
StartChar: question
Encoding: 63 63 1148
Width: 478
Flags: MW
HStem: -12 21G<197 255> -12 208<197 255> 544 138<201 233>
VStem: 126 200<63 121> 274 164<462 512>
LayerCount: 2
Fore
SplineSet
152 244 m 1xa8
 132 374 274 430 274 494 c 0
 274 530 248 544 218 544 c 0
 184 544 162 526 136 502 c 1
 42 588 l 1
 91 644 160 682 240 682 c 0
 350 682 438 632 438 506 c 0
 438 386 292 354 302 244 c 1
 152 244 l 1xa8
226 -12 m 0xb0
 168 -12 126 34 126 92 c 0
 126 150 168 196 226 196 c 0x70
 284 196 326 150 326 92 c 0
 326 34 284 -12 226 -12 c 0xb0
EndSplineSet
Substitution2: "'c2sc' Capitals to Small Capitals lookup 19 subtable" question.sc
Substitution2: "'aalt' Access All Alternates lookup 0 subtable" question.sc
PairPos2: "'kern' Horizontal Kerning lookup 10 per glyph data 8" uni02BE dx=0 dy=0 dh=-40 dv=0 dx=0 dy=0 dh=0 dv=0
PairPos2: "'kern' Horizontal Kerning lookup 10 per glyph data 8" uni02BC dx=0 dy=0 dh=-40 dv=0 dx=0 dy=0 dh=0 dv=0
PairPos2: "'kern' Horizontal Kerning lookup 10 per glyph data 8" quotedblright dx=0 dy=0 dh=-40 dv=0 dx=0 dy=0 dh=0 dv=0
PairPos2: "'kern' Horizontal Kerning lookup 10 per glyph data 8" quoteright dx=0 dy=0 dh=-40 dv=0 dx=0 dy=0 dh=0 dv=0
EndChar
StartChar: H
Encoding: 72 72 9
Width: 682
GlyphClass: 2
Flags: MW
HStem: 0 21G<72 72 72 244 438 438 438 610> 258 150<244 438 244 438> 630 20G<72 244 244 244 438 610 610 610>
VStem: 72 172<0 258 408 650> 438 172<0 258 258 258 408 650 0 650>
AnchorPoint: "Anchor-4" 340 -22 basechar 0
AnchorPoint: "Anchor-1" 340 672 basechar 0
LayerCount: 2
Fore
SplineSet
72 0 m 1
 72 650 l 1
 244 650 l 1
 244 408 l 1
 438 408 l 1
 438 650 l 1
 610 650 l 1
 610 0 l 1
 438 0 l 1
 438 258 l 1
 244 258 l 1
 244 0 l 1
 72 0 l 1
EndSplineSet
Substitution2: "'sups' Superscript lookup 27 subtable" H.sups
Substitution2: "'c2sc' Capitals to Small Capitals lookup 17 subtable" H.sc
AlternateSubs2: "'aalt' Access All Alternates lookup 1 subtable" H.sc H.sups
EndChar
StartChar: J
Encoding: 74 74 11
Width: 520
GlyphClass: 2
Flags: MW
HStem: -12 148<194 231 194 307> 630 20G<280 452 452 452>
VStem: 280 172<240 650>
AnchorPoint: "Anchor-4" 276 -22 basechar 0
AnchorPoint: "Anchor-1" 364 672 basechar 0
LayerCount: 2
Fore
SplineSet
232 -12 m 0
 126 -12 58 28 10 111 c 1
 126 198 l 1
 148 156 180 136 208 136 c 0
 254 136 280 158 280 240 c 2
 280 650 l 1
 452 650 l 1
 452 226 l 2
 452 96 382 -12 232 -12 c 0
EndSplineSet
Substitution2: "'sups' Superscript lookup 27 subtable" J.sups
Substitution2: "'c2sc' Capitals to Small Capitals lookup 17 subtable" J.sc
AlternateSubs2: "'aalt' Access All Alternates lookup 1 subtable" J.sc J.sups
PairPos2: "'kern' Horizontal Kerning lookup 10 per glyph data 5" Jcircumflex dx=0 dy=0 dh=-40 dv=0 dx=0 dy=0 dh=0 dv=0
PairPos2: "'kern' Horizontal Kerning lookup 10 per glyph data 5" J dx=0 dy=0 dh=-40 dv=0 dx=0 dy=0 dh=0 dv=0
PairPos2: "'kern' Horizontal Kerning lookup 10 per glyph data 5" germandbls.sc dx=0 dy=0 dh=-10 dv=0 dx=0 dy=0 dh=0 dv=0
PairPos2: "'kern' Horizontal Kerning lookup 10 per glyph data 5" uni1E62.sc dx=0 dy=0 dh=-10 dv=0 dx=0 dy=0 dh=0 dv=0
PairPos2: "'kern' Horizontal Kerning lookup 10 per glyph data 5" uni1E60.sc dx=0 dy=0 dh=-10 dv=0 dx=0 dy=0 dh=0 dv=0
PairPos2: "'kern' Horizontal Kerning lookup 10 per glyph data 5" uni0218.sc dx=0 dy=0 dh=-10 dv=0 dx=0 dy=0 dh=0 dv=0
PairPos2: "'kern' Horizontal Kerning lookup 10 per glyph data 5" uni015E.sc dx=0 dy=0 dh=-10 dv=0 dx=0 dy=0 dh=0 dv=0
PairPos2: "'kern' Horizontal Kerning lookup 10 per glyph data 5" Scaron.sc dx=0 dy=0 dh=-10 dv=0 dx=0 dy=0 dh=0 dv=0
PairPos2: "'kern' Horizontal Kerning lookup 10 per glyph data 5" Scircumflex.sc dx=0 dy=0 dh=-10 dv=0 dx=0 dy=0 dh=0 dv=0
PairPos2: "'kern' Horizontal Kerning lookup 10 per glyph data 5" Sacute.sc dx=0 dy=0 dh=-10 dv=0 dx=0 dy=0 dh=0 dv=0
PairPos2: "'kern' Horizontal Kerning lookup 10 per glyph data 5" S.sc dx=0 dy=0 dh=-10 dv=0 dx=0 dy=0 dh=0 dv=0
PairPos2: "'kern' Horizontal Kerning lookup 10 per glyph data 5" quotedblbase dx=0 dy=0 dh=-30 dv=0 dx=0 dy=0 dh=0 dv=0
PairPos2: "'kern' Horizontal Kerning lookup 10 per glyph data 5" quotesinglbase dx=0 dy=0 dh=-30 dv=0 dx=0 dy=0 dh=0 dv=0
PairPos2: "'kern' Horizontal Kerning lookup 10 per glyph data 5" ellipsis dx=0 dy=0 dh=-30 dv=0 dx=0 dy=0 dh=0 dv=0
PairPos2: "'kern' Horizontal Kerning lookup 10 per glyph data 5" comma dx=0 dy=0 dh=-30 dv=0 dx=0 dy=0 dh=0 dv=0
PairPos2: "'kern' Horizontal Kerning lookup 10 per glyph data 5" period dx=0 dy=0 dh=-30 dv=0 dx=0 dy=0 dh=0 dv=0
PairPos2: "'kern' Horizontal Kerning lookup 10 per glyph data 5" Jcircumflex.sc dx=0 dy=0 dh=-30 dv=0 dx=0 dy=0 dh=0 dv=0
PairPos2: "'kern' Horizontal Kerning lookup 10 per glyph data 5" J.sc dx=0 dy=0 dh=-30 dv=0 dx=0 dy=0 dh=0 dv=0
EndChar
StartChar: M
Encoding: 77 77 14
Width: 776
GlyphClass: 2
Flags: MW
HStem: 0 21G<72 72 72 226 548 548 548 704> 424 226<204 208 204 204 566 570 566 566> 630 20G<72 256 256 256 520 704 704 704>
VStem: 72 154<0 192 0 650> 548 156<0 192 192 225>
AnchorPoint: "Anchor-4" 390 -22 basechar 0
AnchorPoint: "Anchor-1" 388 672 basechar 0
LayerCount: 2
Fore
SplineSet
72 0 m 1xb8
 72 650 l 1
 256 650 l 1
 354 384 l 1
 366 348 376 308 388 270 c 1
 392 270 l 1
 404 308 414 348 426 384 c 2
 520 650 l 1
 704 650 l 1
 704 0 l 1
 548 0 l 1
 548 192 l 2
 548 258 562 359 570 424 c 1
 566 424 l 1
 512 268 l 1
 432 53 l 1
 340 53 l 1
 260 268 l 1
 208 424 l 1
 204 424 l 1xd8
 212 359 226 258 226 192 c 2
 226 0 l 1
 72 0 l 1xb8
EndSplineSet
Substitution2: "'sups' Superscript lookup 27 subtable" M.sups
Substitution2: "'c2sc' Capitals to Small Capitals lookup 17 subtable" M.sc
AlternateSubs2: "'aalt' Access All Alternates lookup 1 subtable" M.sc M.sups
EndChar
StartChar: W
Encoding: 87 87 24
Width: 824
GlyphClass: 2
Flags: MW
HStem: 0 162<124 248 244 248 244 338 588 592> 630 20G<10 186 186 186 346 490 490 490 650 814 814 814>
VStem: 10 804<650 650>
AnchorPoint: "Anchor-4" 414 -22 basechar 0
AnchorPoint: "Anchor-1" 412 672 basechar 0
LayerCount: 2
Fore
SplineSet
124 0 m 1
 10 650 l 1
 186 650 l 1
 222 366 l 1
 229 298 237 230 244 162 c 1
 248 162 l 1
 260 230 272 299 284 366 c 1
 346 650 l 1
 490 650 l 1
 552 366 l 1
 564 301 576 231 588 162 c 1
 592 162 l 1
 599 231 607 300 614 366 c 1
 650 650 l 1
 814 650 l 1
 706 0 l 1
 488 0 l 1
 438 258 l 2
 428 308 420 362 414 410 c 1
 410 410 l 1
 403 362 396 308 386 258 c 2
 338 0 l 1
 124 0 l 1
EndSplineSet
Substitution2: "'sups' Superscript lookup 27 subtable" W.sups
Substitution2: "'c2sc' Capitals to Small Capitals lookup 17 subtable" W.sc
AlternateSubs2: "'aalt' Access All Alternates lookup 1 subtable" W.sc W.sups
PairPos2: "'kern' Horizontal Kerning lookup 10 per glyph data 5" guillemotright dx=0 dy=0 dh=-30 dv=0 dx=0 dy=0 dh=0 dv=0
PairPos2: "'kern' Horizontal Kerning lookup 10 per glyph data 5" guilsinglright dx=0 dy=0 dh=-30 dv=0 dx=0 dy=0 dh=0 dv=0
PairPos2: "'kern' Horizontal Kerning lookup 10 per glyph data 5" uni0291 dx=0 dy=0 dh=-10 dv=0 dx=0 dy=0 dh=0 dv=0
PairPos2: "'kern' Horizontal Kerning lookup 10 per glyph data 5" uni0290 dx=0 dy=0 dh=-10 dv=0 dx=0 dy=0 dh=0 dv=0
PairPos2: "'kern' Horizontal Kerning lookup 10 per glyph data 5" uni1E95 dx=0 dy=0 dh=-10 dv=0 dx=0 dy=0 dh=0 dv=0
PairPos2: "'kern' Horizontal Kerning lookup 10 per glyph data 5" uni1E93 dx=0 dy=0 dh=-10 dv=0 dx=0 dy=0 dh=0 dv=0
PairPos2: "'kern' Horizontal Kerning lookup 10 per glyph data 5" zdotaccent dx=0 dy=0 dh=-10 dv=0 dx=0 dy=0 dh=0 dv=0
PairPos2: "'kern' Horizontal Kerning lookup 10 per glyph data 5" zcaron dx=0 dy=0 dh=-10 dv=0 dx=0 dy=0 dh=0 dv=0
PairPos2: "'kern' Horizontal Kerning lookup 10 per glyph data 5" zacute dx=0 dy=0 dh=-10 dv=0 dx=0 dy=0 dh=0 dv=0
PairPos2: "'kern' Horizontal Kerning lookup 10 per glyph data 5" z dx=0 dy=0 dh=-10 dv=0 dx=0 dy=0 dh=0 dv=0
PairPos2: "'kern' Horizontal Kerning lookup 10 per glyph data 5" guillemotleft dx=0 dy=0 dh=-10 dv=0 dx=0 dy=0 dh=0 dv=0
PairPos2: "'kern' Horizontal Kerning lookup 10 per glyph data 5" guilsinglleft dx=0 dy=0 dh=-10 dv=0 dx=0 dy=0 dh=0 dv=0
PairPos2: "'kern' Horizontal Kerning lookup 10 per glyph data 5" uni2015 dx=0 dy=0 dh=-10 dv=0 dx=0 dy=0 dh=0 dv=0
PairPos2: "'kern' Horizontal Kerning lookup 10 per glyph data 5" figuredash dx=0 dy=0 dh=-10 dv=0 dx=0 dy=0 dh=0 dv=0
PairPos2: "'kern' Horizontal Kerning lookup 10 per glyph data 5" emdash dx=0 dy=0 dh=-10 dv=0 dx=0 dy=0 dh=0 dv=0
PairPos2: "'kern' Horizontal Kerning lookup 10 per glyph data 5" endash dx=0 dy=0 dh=-10 dv=0 dx=0 dy=0 dh=0 dv=0
PairPos2: "'kern' Horizontal Kerning lookup 10 per glyph data 5" uni00AD dx=0 dy=0 dh=-10 dv=0 dx=0 dy=0 dh=0 dv=0
PairPos2: "'kern' Horizontal Kerning lookup 10 per glyph data 5" hyphen dx=0 dy=0 dh=-10 dv=0 dx=0 dy=0 dh=0 dv=0
PairPos2: "'kern' Horizontal Kerning lookup 10 per glyph data 5" Jcircumflex dx=0 dy=0 dh=-40 dv=0 dx=0 dy=0 dh=0 dv=0
PairPos2: "'kern' Horizontal Kerning lookup 10 per glyph data 5" J dx=0 dy=0 dh=-40 dv=0 dx=0 dy=0 dh=0 dv=0
PairPos2: "'kern' Horizontal Kerning lookup 10 per glyph data 5" trademark dx=0 dy=0 dh=40 dv=0 dx=0 dy=0 dh=0 dv=0
PairPos2: "'kern' Horizontal Kerning lookup 10 per glyph data 5" registered dx=0 dy=0 dh=20 dv=0 dx=0 dy=0 dh=0 dv=0
PairPos2: "'kern' Horizontal Kerning lookup 10 per glyph data 5" Wdieresis.sc dx=0 dy=0 dh=10 dv=0 dx=0 dy=0 dh=0 dv=0
PairPos2: "'kern' Horizontal Kerning lookup 10 per glyph data 5" Wcircumflex.sc dx=0 dy=0 dh=10 dv=0 dx=0 dy=0 dh=0 dv=0
PairPos2: "'kern' Horizontal Kerning lookup 10 per glyph data 5" Wacute.sc dx=0 dy=0 dh=10 dv=0 dx=0 dy=0 dh=0 dv=0
PairPos2: "'kern' Horizontal Kerning lookup 10 per glyph data 5" Wgrave.sc dx=0 dy=0 dh=10 dv=0 dx=0 dy=0 dh=0 dv=0
PairPos2: "'kern' Horizontal Kerning lookup 10 per glyph data 5" W.sc dx=0 dy=0 dh=10 dv=0 dx=0 dy=0 dh=0 dv=0
PairPos2: "'kern' Horizontal Kerning lookup 10 per glyph data 5" uni1E52.sc dx=0 dy=0 dh=10 dv=0 dx=0 dy=0 dh=0 dv=0
PairPos2: "'kern' Horizontal Kerning lookup 10 per glyph data 5" uni014E.sc dx=0 dy=0 dh=10 dv=0 dx=0 dy=0 dh=0 dv=0
PairPos2: "'kern' Horizontal Kerning lookup 10 per glyph data 5" uni01EA.sc dx=0 dy=0 dh=10 dv=0 dx=0 dy=0 dh=0 dv=0
PairPos2: "'kern' Horizontal Kerning lookup 10 per glyph data 5" uni1EE2.sc dx=0 dy=0 dh=10 dv=0 dx=0 dy=0 dh=0 dv=0
PairPos2: "'kern' Horizontal Kerning lookup 10 per glyph data 5" uni1EE0.sc dx=0 dy=0 dh=10 dv=0 dx=0 dy=0 dh=0 dv=0
PairPos2: "'kern' Horizontal Kerning lookup 10 per glyph data 5" uni1EDE.sc dx=0 dy=0 dh=10 dv=0 dx=0 dy=0 dh=0 dv=0
PairPos2: "'kern' Horizontal Kerning lookup 10 per glyph data 5" uni1EDC.sc dx=0 dy=0 dh=10 dv=0 dx=0 dy=0 dh=0 dv=0
PairPos2: "'kern' Horizontal Kerning lookup 10 per glyph data 5" uni1EDA.sc dx=0 dy=0 dh=10 dv=0 dx=0 dy=0 dh=0 dv=0
PairPos2: "'kern' Horizontal Kerning lookup 10 per glyph data 5" Ohorn.sc dx=0 dy=0 dh=10 dv=0 dx=0 dy=0 dh=0 dv=0
PairPos2: "'kern' Horizontal Kerning lookup 10 per glyph data 5" OE.sc dx=0 dy=0 dh=10 dv=0 dx=0 dy=0 dh=0 dv=0
PairPos2: "'kern' Horizontal Kerning lookup 10 per glyph data 5" Oslash.sc dx=0 dy=0 dh=10 dv=0 dx=0 dy=0 dh=0 dv=0
PairPos2: "'kern' Horizontal Kerning lookup 10 per glyph data 5" uni1ED8.sc dx=0 dy=0 dh=10 dv=0 dx=0 dy=0 dh=0 dv=0
PairPos2: "'kern' Horizontal Kerning lookup 10 per glyph data 5" uni1ED6.sc dx=0 dy=0 dh=10 dv=0 dx=0 dy=0 dh=0 dv=0
PairPos2: "'kern' Horizontal Kerning lookup 10 per glyph data 5" uni1ED4.sc dx=0 dy=0 dh=10 dv=0 dx=0 dy=0 dh=0 dv=0
PairPos2: "'kern' Horizontal Kerning lookup 10 per glyph data 5" uni1ED2.sc dx=0 dy=0 dh=10 dv=0 dx=0 dy=0 dh=0 dv=0
PairPos2: "'kern' Horizontal Kerning lookup 10 per glyph data 5" uni1ED0.sc dx=0 dy=0 dh=10 dv=0 dx=0 dy=0 dh=0 dv=0
PairPos2: "'kern' Horizontal Kerning lookup 10 per glyph data 5" uni1ECE.sc dx=0 dy=0 dh=10 dv=0 dx=0 dy=0 dh=0 dv=0
PairPos2: "'kern' Horizontal Kerning lookup 10 per glyph data 5" uni1ECC.sc dx=0 dy=0 dh=10 dv=0 dx=0 dy=0 dh=0 dv=0
PairPos2: "'kern' Horizontal Kerning lookup 10 per glyph data 5" uni01D1.sc dx=0 dy=0 dh=10 dv=0 dx=0 dy=0 dh=0 dv=0
PairPos2: "'kern' Horizontal Kerning lookup 10 per glyph data 5" Ohungarumlaut.sc dx=0 dy=0 dh=10 dv=0 dx=0 dy=0 dh=0 dv=0
PairPos2: "'kern' Horizontal Kerning lookup 10 per glyph data 5" Omacron.sc dx=0 dy=0 dh=10 dv=0 dx=0 dy=0 dh=0 dv=0
PairPos2: "'kern' Horizontal Kerning lookup 10 per glyph data 5" Odieresis.sc dx=0 dy=0 dh=10 dv=0 dx=0 dy=0 dh=0 dv=0
PairPos2: "'kern' Horizontal Kerning lookup 10 per glyph data 5" Otilde.sc dx=0 dy=0 dh=10 dv=0 dx=0 dy=0 dh=0 dv=0
PairPos2: "'kern' Horizontal Kerning lookup 10 per glyph data 5" Ocircumflex.sc dx=0 dy=0 dh=10 dv=0 dx=0 dy=0 dh=0 dv=0
PairPos2: "'kern' Horizontal Kerning lookup 10 per glyph data 5" Oacute.sc dx=0 dy=0 dh=10 dv=0 dx=0 dy=0 dh=0 dv=0
PairPos2: "'kern' Horizontal Kerning lookup 10 per glyph data 5" Ograve.sc dx=0 dy=0 dh=10 dv=0 dx=0 dy=0 dh=0 dv=0
PairPos2: "'kern' Horizontal Kerning lookup 10 per glyph data 5" uni0193.sc dx=0 dy=0 dh=10 dv=0 dx=0 dy=0 dh=0 dv=0
PairPos2: "'kern' Horizontal Kerning lookup 10 per glyph data 5" uni00470303.sc dx=0 dy=0 dh=10 dv=0 dx=0 dy=0 dh=0 dv=0
PairPos2: "'kern' Horizontal Kerning lookup 10 per glyph data 5" uni1E20.sc dx=0 dy=0 dh=10 dv=0 dx=0 dy=0 dh=0 dv=0
PairPos2: "'kern' Horizontal Kerning lookup 10 per glyph data 5" Gcaron.sc dx=0 dy=0 dh=10 dv=0 dx=0 dy=0 dh=0 dv=0
PairPos2: "'kern' Horizontal Kerning lookup 10 per glyph data 5" uni0122.sc dx=0 dy=0 dh=10 dv=0 dx=0 dy=0 dh=0 dv=0
PairPos2: "'kern' Horizontal Kerning lookup 10 per glyph data 5" Gdotaccent.sc dx=0 dy=0 dh=10 dv=0 dx=0 dy=0 dh=0 dv=0
PairPos2: "'kern' Horizontal Kerning lookup 10 per glyph data 5" Gbreve.sc dx=0 dy=0 dh=10 dv=0 dx=0 dy=0 dh=0 dv=0
PairPos2: "'kern' Horizontal Kerning lookup 10 per glyph data 5" Gcircumflex.sc dx=0 dy=0 dh=10 dv=0 dx=0 dy=0 dh=0 dv=0
PairPos2: "'kern' Horizontal Kerning lookup 10 per glyph data 5" uni01F4.sc dx=0 dy=0 dh=10 dv=0 dx=0 dy=0 dh=0 dv=0
PairPos2: "'kern' Horizontal Kerning lookup 10 per glyph data 5" Cdotaccent.sc dx=0 dy=0 dh=10 dv=0 dx=0 dy=0 dh=0 dv=0
PairPos2: "'kern' Horizontal Kerning lookup 10 per glyph data 5" Ccaron.sc dx=0 dy=0 dh=10 dv=0 dx=0 dy=0 dh=0 dv=0
PairPos2: "'kern' Horizontal Kerning lookup 10 per glyph data 5" Ccircumflex.sc dx=0 dy=0 dh=10 dv=0 dx=0 dy=0 dh=0 dv=0
PairPos2: "'kern' Horizontal Kerning lookup 10 per glyph data 5" Cacute.sc dx=0 dy=0 dh=10 dv=0 dx=0 dy=0 dh=0 dv=0
PairPos2: "'kern' Horizontal Kerning lookup 10 per glyph data 5" Ccedilla.sc dx=0 dy=0 dh=10 dv=0 dx=0 dy=0 dh=0 dv=0
PairPos2: "'kern' Horizontal Kerning lookup 10 per glyph data 5" Q.sc dx=0 dy=0 dh=10 dv=0 dx=0 dy=0 dh=0 dv=0
PairPos2: "'kern' Horizontal Kerning lookup 10 per glyph data 5" O.sc dx=0 dy=0 dh=10 dv=0 dx=0 dy=0 dh=0 dv=0
PairPos2: "'kern' Horizontal Kerning lookup 10 per glyph data 5" G.sc dx=0 dy=0 dh=10 dv=0 dx=0 dy=0 dh=0 dv=0
PairPos2: "'kern' Horizontal Kerning lookup 10 per glyph data 5" C.sc dx=0 dy=0 dh=10 dv=0 dx=0 dy=0 dh=0 dv=0
PairPos2: "'kern' Horizontal Kerning lookup 10 per glyph data 5" uni01E3 dx=0 dy=0 dh=-10 dv=0 dx=0 dy=0 dh=0 dv=0
PairPos2: "'kern' Horizontal Kerning lookup 10 per glyph data 5" uni01FD dx=0 dy=0 dh=-10 dv=0 dx=0 dy=0 dh=0 dv=0
PairPos2: "'kern' Horizontal Kerning lookup 10 per glyph data 5" ae dx=0 dy=0 dh=-10 dv=0 dx=0 dy=0 dh=0 dv=0
PairPos2: "'kern' Horizontal Kerning lookup 10 per glyph data 5" aogonek dx=0 dy=0 dh=-10 dv=0 dx=0 dy=0 dh=0 dv=0
PairPos2: "'kern' Horizontal Kerning lookup 10 per glyph data 5" uni1EB7 dx=0 dy=0 dh=-10 dv=0 dx=0 dy=0 dh=0 dv=0
PairPos2: "'kern' Horizontal Kerning lookup 10 per glyph data 5" uni1EB5 dx=0 dy=0 dh=-10 dv=0 dx=0 dy=0 dh=0 dv=0
PairPos2: "'kern' Horizontal Kerning lookup 10 per glyph data 5" uni1EB3 dx=0 dy=0 dh=-10 dv=0 dx=0 dy=0 dh=0 dv=0
PairPos2: "'kern' Horizontal Kerning lookup 10 per glyph data 5" uni1EB1 dx=0 dy=0 dh=-10 dv=0 dx=0 dy=0 dh=0 dv=0
PairPos2: "'kern' Horizontal Kerning lookup 10 per glyph data 5" uni1EAF dx=0 dy=0 dh=-10 dv=0 dx=0 dy=0 dh=0 dv=0
PairPos2: "'kern' Horizontal Kerning lookup 10 per glyph data 5" uni1EAD dx=0 dy=0 dh=-10 dv=0 dx=0 dy=0 dh=0 dv=0
PairPos2: "'kern' Horizontal Kerning lookup 10 per glyph data 5" uni1EAB dx=0 dy=0 dh=-10 dv=0 dx=0 dy=0 dh=0 dv=0
PairPos2: "'kern' Horizontal Kerning lookup 10 per glyph data 5" uni1EA9 dx=0 dy=0 dh=-10 dv=0 dx=0 dy=0 dh=0 dv=0
PairPos2: "'kern' Horizontal Kerning lookup 10 per glyph data 5" uni1EA7 dx=0 dy=0 dh=-10 dv=0 dx=0 dy=0 dh=0 dv=0
PairPos2: "'kern' Horizontal Kerning lookup 10 per glyph data 5" uni1EA5 dx=0 dy=0 dh=-10 dv=0 dx=0 dy=0 dh=0 dv=0
PairPos2: "'kern' Horizontal Kerning lookup 10 per glyph data 5" uni1EA3 dx=0 dy=0 dh=-10 dv=0 dx=0 dy=0 dh=0 dv=0
PairPos2: "'kern' Horizontal Kerning lookup 10 per glyph data 5" uni1EA1 dx=0 dy=0 dh=-10 dv=0 dx=0 dy=0 dh=0 dv=0
PairPos2: "'kern' Horizontal Kerning lookup 10 per glyph data 5" uni01CE dx=0 dy=0 dh=-10 dv=0 dx=0 dy=0 dh=0 dv=0
PairPos2: "'kern' Horizontal Kerning lookup 10 per glyph data 5" aring dx=0 dy=0 dh=-10 dv=0 dx=0 dy=0 dh=0 dv=0
PairPos2: "'kern' Horizontal Kerning lookup 10 per glyph data 5" abreve dx=0 dy=0 dh=-10 dv=0 dx=0 dy=0 dh=0 dv=0
PairPos2: "'kern' Horizontal Kerning lookup 10 per glyph data 5" amacron dx=0 dy=0 dh=-10 dv=0 dx=0 dy=0 dh=0 dv=0
PairPos2: "'kern' Horizontal Kerning lookup 10 per glyph data 5" adieresis dx=0 dy=0 dh=-10 dv=0 dx=0 dy=0 dh=0 dv=0
PairPos2: "'kern' Horizontal Kerning lookup 10 per glyph data 5" atilde dx=0 dy=0 dh=-10 dv=0 dx=0 dy=0 dh=0 dv=0
PairPos2: "'kern' Horizontal Kerning lookup 10 per glyph data 5" acircumflex dx=0 dy=0 dh=-10 dv=0 dx=0 dy=0 dh=0 dv=0
PairPos2: "'kern' Horizontal Kerning lookup 10 per glyph data 5" aacute dx=0 dy=0 dh=-10 dv=0 dx=0 dy=0 dh=0 dv=0
PairPos2: "'kern' Horizontal Kerning lookup 10 per glyph data 5" agrave dx=0 dy=0 dh=-10 dv=0 dx=0 dy=0 dh=0 dv=0
PairPos2: "'kern' Horizontal Kerning lookup 10 per glyph data 5" a dx=0 dy=0 dh=-10 dv=0 dx=0 dy=0 dh=0 dv=0
PairPos2: "'kern' Horizontal Kerning lookup 10 per glyph data 5" quotedblbase dx=0 dy=0 dh=-40 dv=0 dx=0 dy=0 dh=0 dv=0
PairPos2: "'kern' Horizontal Kerning lookup 10 per glyph data 5" quotesinglbase dx=0 dy=0 dh=-40 dv=0 dx=0 dy=0 dh=0 dv=0
PairPos2: "'kern' Horizontal Kerning lookup 10 per glyph data 5" ellipsis dx=0 dy=0 dh=-40 dv=0 dx=0 dy=0 dh=0 dv=0
PairPos2: "'kern' Horizontal Kerning lookup 10 per glyph data 5" comma dx=0 dy=0 dh=-40 dv=0 dx=0 dy=0 dh=0 dv=0
PairPos2: "'kern' Horizontal Kerning lookup 10 per glyph data 5" period dx=0 dy=0 dh=-40 dv=0 dx=0 dy=0 dh=0 dv=0
PairPos2: "'kern' Horizontal Kerning lookup 10 per glyph data 5" uni1E94.sc dx=0 dy=0 dh=10 dv=0 dx=0 dy=0 dh=0 dv=0
PairPos2: "'kern' Horizontal Kerning lookup 10 per glyph data 5" uni1E92.sc dx=0 dy=0 dh=10 dv=0 dx=0 dy=0 dh=0 dv=0
PairPos2: "'kern' Horizontal Kerning lookup 10 per glyph data 5" Zdotaccent.sc dx=0 dy=0 dh=10 dv=0 dx=0 dy=0 dh=0 dv=0
PairPos2: "'kern' Horizontal Kerning lookup 10 per glyph data 5" Zcaron.sc dx=0 dy=0 dh=10 dv=0 dx=0 dy=0 dh=0 dv=0
PairPos2: "'kern' Horizontal Kerning lookup 10 per glyph data 5" Zacute.sc dx=0 dy=0 dh=10 dv=0 dx=0 dy=0 dh=0 dv=0
PairPos2: "'kern' Horizontal Kerning lookup 10 per glyph data 5" Z.sc dx=0 dy=0 dh=10 dv=0 dx=0 dy=0 dh=0 dv=0
PairPos2: "'kern' Horizontal Kerning lookup 10 per glyph data 5" uni1EF8.sc dx=0 dy=0 dh=20 dv=0 dx=0 dy=0 dh=0 dv=0
PairPos2: "'kern' Horizontal Kerning lookup 10 per glyph data 5" uni1EF6.sc dx=0 dy=0 dh=20 dv=0 dx=0 dy=0 dh=0 dv=0
PairPos2: "'kern' Horizontal Kerning lookup 10 per glyph data 5" uni1EF4.sc dx=0 dy=0 dh=20 dv=0 dx=0 dy=0 dh=0 dv=0
PairPos2: "'kern' Horizontal Kerning lookup 10 per glyph data 5" uni1E8E.sc dx=0 dy=0 dh=20 dv=0 dx=0 dy=0 dh=0 dv=0
PairPos2: "'kern' Horizontal Kerning lookup 10 per glyph data 5" Ydieresis.sc dx=0 dy=0 dh=20 dv=0 dx=0 dy=0 dh=0 dv=0
PairPos2: "'kern' Horizontal Kerning lookup 10 per glyph data 5" Ycircumflex.sc dx=0 dy=0 dh=20 dv=0 dx=0 dy=0 dh=0 dv=0
PairPos2: "'kern' Horizontal Kerning lookup 10 per glyph data 5" Yacute.sc dx=0 dy=0 dh=20 dv=0 dx=0 dy=0 dh=0 dv=0
PairPos2: "'kern' Horizontal Kerning lookup 10 per glyph data 5" Ygrave.sc dx=0 dy=0 dh=20 dv=0 dx=0 dy=0 dh=0 dv=0
PairPos2: "'kern' Horizontal Kerning lookup 10 per glyph data 5" Y.sc dx=0 dy=0 dh=20 dv=0 dx=0 dy=0 dh=0 dv=0
PairPos2: "'kern' Horizontal Kerning lookup 10 per glyph data 5" X.sc dx=0 dy=0 dh=10 dv=0 dx=0 dy=0 dh=0 dv=0
PairPos2: "'kern' Horizontal Kerning lookup 10 per glyph data 5" V.sc dx=0 dy=0 dh=10 dv=0 dx=0 dy=0 dh=0 dv=0
PairPos2: "'kern' Horizontal Kerning lookup 10 per glyph data 5" uni1EF0.sc dx=0 dy=0 dh=10 dv=0 dx=0 dy=0 dh=0 dv=0
PairPos2: "'kern' Horizontal Kerning lookup 10 per glyph data 5" uni1EEE.sc dx=0 dy=0 dh=10 dv=0 dx=0 dy=0 dh=0 dv=0
PairPos2: "'kern' Horizontal Kerning lookup 10 per glyph data 5" uni1EEC.sc dx=0 dy=0 dh=10 dv=0 dx=0 dy=0 dh=0 dv=0
PairPos2: "'kern' Horizontal Kerning lookup 10 per glyph data 5" uni1EEA.sc dx=0 dy=0 dh=10 dv=0 dx=0 dy=0 dh=0 dv=0
PairPos2: "'kern' Horizontal Kerning lookup 10 per glyph data 5" uni1EE8.sc dx=0 dy=0 dh=10 dv=0 dx=0 dy=0 dh=0 dv=0
PairPos2: "'kern' Horizontal Kerning lookup 10 per glyph data 5" Uhorn.sc dx=0 dy=0 dh=10 dv=0 dx=0 dy=0 dh=0 dv=0
PairPos2: "'kern' Horizontal Kerning lookup 10 per glyph data 5" Uogonek.sc dx=0 dy=0 dh=10 dv=0 dx=0 dy=0 dh=0 dv=0
PairPos2: "'kern' Horizontal Kerning lookup 10 per glyph data 5" uni1EE6.sc dx=0 dy=0 dh=10 dv=0 dx=0 dy=0 dh=0 dv=0
PairPos2: "'kern' Horizontal Kerning lookup 10 per glyph data 5" uni1EE4.sc dx=0 dy=0 dh=10 dv=0 dx=0 dy=0 dh=0 dv=0
PairPos2: "'kern' Horizontal Kerning lookup 10 per glyph data 5" uni01DB.sc dx=0 dy=0 dh=10 dv=0 dx=0 dy=0 dh=0 dv=0
PairPos2: "'kern' Horizontal Kerning lookup 10 per glyph data 5" uni01D9.sc dx=0 dy=0 dh=10 dv=0 dx=0 dy=0 dh=0 dv=0
PairPos2: "'kern' Horizontal Kerning lookup 10 per glyph data 5" uni01D7.sc dx=0 dy=0 dh=10 dv=0 dx=0 dy=0 dh=0 dv=0
PairPos2: "'kern' Horizontal Kerning lookup 10 per glyph data 5" uni01D5.sc dx=0 dy=0 dh=10 dv=0 dx=0 dy=0 dh=0 dv=0
PairPos2: "'kern' Horizontal Kerning lookup 10 per glyph data 5" uni01D3.sc dx=0 dy=0 dh=10 dv=0 dx=0 dy=0 dh=0 dv=0
PairPos2: "'kern' Horizontal Kerning lookup 10 per glyph data 5" Uhungarumlaut.sc dx=0 dy=0 dh=10 dv=0 dx=0 dy=0 dh=0 dv=0
PairPos2: "'kern' Horizontal Kerning lookup 10 per glyph data 5" Uring.sc dx=0 dy=0 dh=10 dv=0 dx=0 dy=0 dh=0 dv=0
PairPos2: "'kern' Horizontal Kerning lookup 10 per glyph data 5" Ubreve.sc dx=0 dy=0 dh=10 dv=0 dx=0 dy=0 dh=0 dv=0
PairPos2: "'kern' Horizontal Kerning lookup 10 per glyph data 5" Umacron.sc dx=0 dy=0 dh=10 dv=0 dx=0 dy=0 dh=0 dv=0
PairPos2: "'kern' Horizontal Kerning lookup 10 per glyph data 5" Udieresis.sc dx=0 dy=0 dh=10 dv=0 dx=0 dy=0 dh=0 dv=0
PairPos2: "'kern' Horizontal Kerning lookup 10 per glyph data 5" Utilde.sc dx=0 dy=0 dh=10 dv=0 dx=0 dy=0 dh=0 dv=0
PairPos2: "'kern' Horizontal Kerning lookup 10 per glyph data 5" Ucircumflex.sc dx=0 dy=0 dh=10 dv=0 dx=0 dy=0 dh=0 dv=0
PairPos2: "'kern' Horizontal Kerning lookup 10 per glyph data 5" Uacute.sc dx=0 dy=0 dh=10 dv=0 dx=0 dy=0 dh=0 dv=0
PairPos2: "'kern' Horizontal Kerning lookup 10 per glyph data 5" Ugrave.sc dx=0 dy=0 dh=10 dv=0 dx=0 dy=0 dh=0 dv=0
PairPos2: "'kern' Horizontal Kerning lookup 10 per glyph data 5" U.sc dx=0 dy=0 dh=10 dv=0 dx=0 dy=0 dh=0 dv=0
PairPos2: "'kern' Horizontal Kerning lookup 10 per glyph data 5" uni0166.sc dx=0 dy=0 dh=20 dv=0 dx=0 dy=0 dh=0 dv=0
PairPos2: "'kern' Horizontal Kerning lookup 10 per glyph data 5" uni1E6E.sc dx=0 dy=0 dh=20 dv=0 dx=0 dy=0 dh=0 dv=0
PairPos2: "'kern' Horizontal Kerning lookup 10 per glyph data 5" uni1E6C.sc dx=0 dy=0 dh=20 dv=0 dx=0 dy=0 dh=0 dv=0
PairPos2: "'kern' Horizontal Kerning lookup 10 per glyph data 5" uni021A.sc dx=0 dy=0 dh=20 dv=0 dx=0 dy=0 dh=0 dv=0
PairPos2: "'kern' Horizontal Kerning lookup 10 per glyph data 5" uni0162.sc dx=0 dy=0 dh=20 dv=0 dx=0 dy=0 dh=0 dv=0
PairPos2: "'kern' Horizontal Kerning lookup 10 per glyph data 5" Tcaron.sc dx=0 dy=0 dh=20 dv=0 dx=0 dy=0 dh=0 dv=0
PairPos2: "'kern' Horizontal Kerning lookup 10 per glyph data 5" T.sc dx=0 dy=0 dh=20 dv=0 dx=0 dy=0 dh=0 dv=0
PairPos2: "'kern' Horizontal Kerning lookup 10 per glyph data 5" Jcircumflex.sc dx=0 dy=0 dh=-40 dv=0 dx=0 dy=0 dh=0 dv=0
PairPos2: "'kern' Horizontal Kerning lookup 10 per glyph data 5" J.sc dx=0 dy=0 dh=-40 dv=0 dx=0 dy=0 dh=0 dv=0
EndChar
StartChar: bracketleft
Encoding: 91 91 1177
Width: 360
Flags: MW
HStem: -152 90<212 308 212 308> 618 90<212 308 212 212>
VStem: 84 128<-62 618 -62 708 -62 708>
LayerCount: 2
Fore
SplineSet
84 -152 m 1
 84 708 l 1
 308 708 l 1
 308 618 l 1
 212 618 l 1
 212 -62 l 1
 308 -62 l 1
 308 -152 l 1
 84 -152 l 1
EndSplineSet
Substitution2: "'c2sc' Capitals to Small Capitals lookup 19 subtable" bracketleft.sc
Substitution2: "'aalt' Access All Alternates lookup 0 subtable" bracketleft.sc
PairPos2: "'kern' Horizontal Kerning lookup 10 per glyph data 8" Jcircumflex dx=0 dy=0 dh=-20 dv=0 dx=0 dy=0 dh=0 dv=0
PairPos2: "'kern' Horizontal Kerning lookup 10 per glyph data 8" J dx=0 dy=0 dh=-20 dv=0 dx=0 dy=0 dh=0 dv=0
PairPos2: "'kern' Horizontal Kerning lookup 10 per glyph data 8" uni0284 dx=0 dy=0 dh=80 dv=0 dx=0 dy=0 dh=0 dv=0
PairPos2: "'kern' Horizontal Kerning lookup 10 per glyph data 8" uni0283 dx=0 dy=0 dh=80 dv=0 dx=0 dy=0 dh=0 dv=0
PairPos2: "'kern' Horizontal Kerning lookup 10 per glyph data 8" uni0272 dx=0 dy=0 dh=80 dv=0 dx=0 dy=0 dh=0 dv=0
PairPos2: "'kern' Horizontal Kerning lookup 10 per glyph data 8" uni025F dx=0 dy=0 dh=80 dv=0 dx=0 dy=0 dh=0 dv=0
PairPos2: "'kern' Horizontal Kerning lookup 10 per glyph data 8" uni0237 dx=0 dy=0 dh=80 dv=0 dx=0 dy=0 dh=0 dv=0
PairPos2: "'kern' Horizontal Kerning lookup 10 per glyph data 8" jcircumflex dx=0 dy=0 dh=80 dv=0 dx=0 dy=0 dh=0 dv=0
PairPos2: "'kern' Horizontal Kerning lookup 10 per glyph data 8" j dx=0 dy=0 dh=80 dv=0 dx=0 dy=0 dh=0 dv=0
PairPos2: "'kern' Horizontal Kerning lookup 10 per glyph data 8" uni0463 dx=0 dy=0 dh=-20 dv=0 dx=0 dy=0 dh=0 dv=0
PairPos2: "'kern' Horizontal Kerning lookup 10 per glyph data 8" uni0408 dx=0 dy=0 dh=-20 dv=0 dx=0 dy=0 dh=0 dv=0
PairPos2: "'kern' Horizontal Kerning lookup 10 per glyph data 8" uni0458 dx=0 dy=0 dh=80 dv=0 dx=0 dy=0 dh=0 dv=0
PairPos2: "'kern' Horizontal Kerning lookup 10 per glyph data 8" uni0424.sc dx=0 dy=0 dh=-20 dv=0 dx=0 dy=0 dh=0 dv=0
PairPos2: "'kern' Horizontal Kerning lookup 10 per glyph data 8" uni0414 dx=0 dy=0 dh=20 dv=0 dx=0 dy=0 dh=0 dv=0
PairPos2: "'kern' Horizontal Kerning lookup 10 per glyph data 8" uni0414.sc dx=0 dy=0 dh=20 dv=0 dx=0 dy=0 dh=0 dv=0
PairPos2: "'kern' Horizontal Kerning lookup 10 per glyph data 8" uni0434 dx=0 dy=0 dh=20 dv=0 dx=0 dy=0 dh=0 dv=0
PairPos2: "'kern' Horizontal Kerning lookup 10 per glyph data 0" uni041B.sc dx=0 dy=0 dh=-20 dv=0 dx=0 dy=0 dh=0 dv=0
EndChar
StartChar: bracketright
Encoding: 93 93 1178
Width: 360
Flags: MW
HStem: -152 90<52 148 52 148 52 276> 618 90<52 148 52 276>
VStem: 148 128<-62 618 618 618>
LayerCount: 2
Fore
SplineSet
52 -152 m 1
 52 -62 l 1
 148 -62 l 1
 148 618 l 1
 52 618 l 1
 52 708 l 1
 276 708 l 1
 276 -152 l 1
 52 -152 l 1
EndSplineSet
Substitution2: "'c2sc' Capitals to Small Capitals lookup 19 subtable" bracketright.sc
Substitution2: "'aalt' Access All Alternates lookup 0 subtable" bracketright.sc
EndChar
StartChar: underscore
Encoding: 95 95 1172
Width: 500
Flags: MW
HStem: -146 94<12 488 12 488>
VStem: 12 476<-146 -52 -146 -52>
LayerCount: 2
Fore
SplineSet
12 -146 m 1
 12 -52 l 1
 488 -52 l 1
 488 -146 l 1
 12 -146 l 1
EndSplineSet
EndChar
StartChar: f
Encoding: 102 102 33
Width: 360
GlyphClass: 2
Flags: MW
HStem: 0 21G<88 88 88 260> 366 130.5 366 134<260 344 260 344> 574 134<296 309 212 320> 688 20G<212 309>
VStem: 88 172<0 366 0 366 500 506 506 512 0 559.5>
AnchorPoint: "Anchor-4" 174 -22 basechar 0
AnchorPoint: "Anchor-0" 230 741 basechar 0
LayerCount: 2
Fore
SplineSet
88 0 m 1xb4
 88 366 l 1
 22 366 l 1xb4
 22 494 l 1
 88 499 l 1
 88 506 l 2
 88 613 138 708 286 708 c 0xd4
 332 708 370 698 392 690 c 1xac
 362 564 l 1
 346 570 328 574 312 574 c 0
 280 574 260 559 260 512 c 2
 260 500 l 1
 344 500 l 1
 344 366 l 1
 260 366 l 1
 260 0 l 1
 88 0 l 1xb4
EndSplineSet
Substitution2: "'sups' Superscript lookup 26 subtable" f.sups
Substitution2: "'smcp' Lowercase to Small Capitals lookup 20 subtable" F.sc
AlternateSubs2: "'aalt' Access All Alternates lookup 1 subtable" F.sc f.sups
PairPos2: "'kern' Horizontal Kerning lookup 10 per glyph data 5" uni27E7 dx=0 dy=0 dh=30 dv=0 dx=0 dy=0 dh=0 dv=0
PairPos2: "'kern' Horizontal Kerning lookup 10 per glyph data 5" uni231F dx=0 dy=0 dh=30 dv=0 dx=0 dy=0 dh=0 dv=0
PairPos2: "'kern' Horizontal Kerning lookup 10 per glyph data 5" uni231D dx=0 dy=0 dh=30 dv=0 dx=0 dy=0 dh=0 dv=0
PairPos2: "'kern' Horizontal Kerning lookup 10 per glyph data 5" braceright dx=0 dy=0 dh=30 dv=0 dx=0 dy=0 dh=0 dv=0
PairPos2: "'kern' Horizontal Kerning lookup 10 per glyph data 5" bracketright dx=0 dy=0 dh=30 dv=0 dx=0 dy=0 dh=0 dv=0
PairPos2: "'kern' Horizontal Kerning lookup 10 per glyph data 5" parenright dx=0 dy=0 dh=30 dv=0 dx=0 dy=0 dh=0 dv=0
PairPos2: "'kern' Horizontal Kerning lookup 10 per glyph data 5" uni0284 dx=0 dy=0 dh=-10 dv=0 dx=0 dy=0 dh=0 dv=0
PairPos2: "'kern' Horizontal Kerning lookup 10 per glyph data 5" uni0283 dx=0 dy=0 dh=-10 dv=0 dx=0 dy=0 dh=0 dv=0
PairPos2: "'kern' Horizontal Kerning lookup 10 per glyph data 5" uni0272 dx=0 dy=0 dh=-10 dv=0 dx=0 dy=0 dh=0 dv=0
PairPos2: "'kern' Horizontal Kerning lookup 10 per glyph data 5" uni025F dx=0 dy=0 dh=-10 dv=0 dx=0 dy=0 dh=0 dv=0
PairPos2: "'kern' Horizontal Kerning lookup 10 per glyph data 5" uni0237 dx=0 dy=0 dh=-10 dv=0 dx=0 dy=0 dh=0 dv=0
PairPos2: "'kern' Horizontal Kerning lookup 10 per glyph data 5" jcircumflex dx=0 dy=0 dh=-10 dv=0 dx=0 dy=0 dh=0 dv=0
PairPos2: "'kern' Horizontal Kerning lookup 10 per glyph data 5" j dx=0 dy=0 dh=-10 dv=0 dx=0 dy=0 dh=0 dv=0
PairPos2: "'kern' Horizontal Kerning lookup 10 per glyph data 5" uni0291 dx=0 dy=0 dh=-20 dv=0 dx=0 dy=0 dh=0 dv=0
PairPos2: "'kern' Horizontal Kerning lookup 10 per glyph data 5" uni0290 dx=0 dy=0 dh=-20 dv=0 dx=0 dy=0 dh=0 dv=0
PairPos2: "'kern' Horizontal Kerning lookup 10 per glyph data 5" uni1E95 dx=0 dy=0 dh=-20 dv=0 dx=0 dy=0 dh=0 dv=0
PairPos2: "'kern' Horizontal Kerning lookup 10 per glyph data 5" uni1E93 dx=0 dy=0 dh=-20 dv=0 dx=0 dy=0 dh=0 dv=0
PairPos2: "'kern' Horizontal Kerning lookup 10 per glyph data 5" zdotaccent dx=0 dy=0 dh=-20 dv=0 dx=0 dy=0 dh=0 dv=0
PairPos2: "'kern' Horizontal Kerning lookup 10 per glyph data 5" zcaron dx=0 dy=0 dh=-20 dv=0 dx=0 dy=0 dh=0 dv=0
PairPos2: "'kern' Horizontal Kerning lookup 10 per glyph data 5" zacute dx=0 dy=0 dh=-20 dv=0 dx=0 dy=0 dh=0 dv=0
PairPos2: "'kern' Horizontal Kerning lookup 10 per glyph data 5" z dx=0 dy=0 dh=-20 dv=0 dx=0 dy=0 dh=0 dv=0
PairPos2: "'kern' Horizontal Kerning lookup 10 per glyph data 5" uni2015 dx=0 dy=0 dh=-20 dv=0 dx=0 dy=0 dh=0 dv=0
PairPos2: "'kern' Horizontal Kerning lookup 10 per glyph data 5" figuredash dx=0 dy=0 dh=-20 dv=0 dx=0 dy=0 dh=0 dv=0
PairPos2: "'kern' Horizontal Kerning lookup 10 per glyph data 5" emdash dx=0 dy=0 dh=-20 dv=0 dx=0 dy=0 dh=0 dv=0
PairPos2: "'kern' Horizontal Kerning lookup 10 per glyph data 5" endash dx=0 dy=0 dh=-20 dv=0 dx=0 dy=0 dh=0 dv=0
PairPos2: "'kern' Horizontal Kerning lookup 10 per glyph data 5" uni00AD dx=0 dy=0 dh=-20 dv=0 dx=0 dy=0 dh=0 dv=0
PairPos2: "'kern' Horizontal Kerning lookup 10 per glyph data 5" hyphen dx=0 dy=0 dh=-20 dv=0 dx=0 dy=0 dh=0 dv=0
PairPos2: "'kern' Horizontal Kerning lookup 10 per glyph data 5" uni00670303.a dx=0 dy=0 dh=-10 dv=0 dx=0 dy=0 dh=0 dv=0
PairPos2: "'kern' Horizontal Kerning lookup 10 per glyph data 5" uni1E21.a dx=0 dy=0 dh=-10 dv=0 dx=0 dy=0 dh=0 dv=0
PairPos2: "'kern' Horizontal Kerning lookup 10 per glyph data 5" gcaron.a dx=0 dy=0 dh=-10 dv=0 dx=0 dy=0 dh=0 dv=0
PairPos2: "'kern' Horizontal Kerning lookup 10 per glyph data 5" uni0123.a dx=0 dy=0 dh=-10 dv=0 dx=0 dy=0 dh=0 dv=0
PairPos2: "'kern' Horizontal Kerning lookup 10 per glyph data 5" gdotaccent.a dx=0 dy=0 dh=-10 dv=0 dx=0 dy=0 dh=0 dv=0
PairPos2: "'kern' Horizontal Kerning lookup 10 per glyph data 5" gbreve.a dx=0 dy=0 dh=-10 dv=0 dx=0 dy=0 dh=0 dv=0
PairPos2: "'kern' Horizontal Kerning lookup 10 per glyph data 5" gcircumflex.a dx=0 dy=0 dh=-10 dv=0 dx=0 dy=0 dh=0 dv=0
PairPos2: "'kern' Horizontal Kerning lookup 10 per glyph data 5" uni01F5.a dx=0 dy=0 dh=-10 dv=0 dx=0 dy=0 dh=0 dv=0
PairPos2: "'kern' Horizontal Kerning lookup 10 per glyph data 5" g.a dx=0 dy=0 dh=-10 dv=0 dx=0 dy=0 dh=0 dv=0
PairPos2: "'kern' Horizontal Kerning lookup 10 per glyph data 5" aogonek.a dx=0 dy=0 dh=-10 dv=0 dx=0 dy=0 dh=0 dv=0
PairPos2: "'kern' Horizontal Kerning lookup 10 per glyph data 5" uni1EB7.a dx=0 dy=0 dh=-10 dv=0 dx=0 dy=0 dh=0 dv=0
PairPos2: "'kern' Horizontal Kerning lookup 10 per glyph data 5" uni1EB5.a dx=0 dy=0 dh=-10 dv=0 dx=0 dy=0 dh=0 dv=0
PairPos2: "'kern' Horizontal Kerning lookup 10 per glyph data 5" uni1EB3.a dx=0 dy=0 dh=-10 dv=0 dx=0 dy=0 dh=0 dv=0
PairPos2: "'kern' Horizontal Kerning lookup 10 per glyph data 5" uni1EB1.a dx=0 dy=0 dh=-10 dv=0 dx=0 dy=0 dh=0 dv=0
PairPos2: "'kern' Horizontal Kerning lookup 10 per glyph data 5" uni1EAF.a dx=0 dy=0 dh=-10 dv=0 dx=0 dy=0 dh=0 dv=0
PairPos2: "'kern' Horizontal Kerning lookup 10 per glyph data 5" uni1EAD.a dx=0 dy=0 dh=-10 dv=0 dx=0 dy=0 dh=0 dv=0
PairPos2: "'kern' Horizontal Kerning lookup 10 per glyph data 5" uni1EAB.a dx=0 dy=0 dh=-10 dv=0 dx=0 dy=0 dh=0 dv=0
PairPos2: "'kern' Horizontal Kerning lookup 10 per glyph data 5" uni1EA9.a dx=0 dy=0 dh=-10 dv=0 dx=0 dy=0 dh=0 dv=0
PairPos2: "'kern' Horizontal Kerning lookup 10 per glyph data 5" uni1EA7.a dx=0 dy=0 dh=-10 dv=0 dx=0 dy=0 dh=0 dv=0
PairPos2: "'kern' Horizontal Kerning lookup 10 per glyph data 5" uni1EA5.a dx=0 dy=0 dh=-10 dv=0 dx=0 dy=0 dh=0 dv=0
PairPos2: "'kern' Horizontal Kerning lookup 10 per glyph data 5" uni1EA3.a dx=0 dy=0 dh=-10 dv=0 dx=0 dy=0 dh=0 dv=0
PairPos2: "'kern' Horizontal Kerning lookup 10 per glyph data 5" uni1EA1.a dx=0 dy=0 dh=-10 dv=0 dx=0 dy=0 dh=0 dv=0
PairPos2: "'kern' Horizontal Kerning lookup 10 per glyph data 5" uni01CE.a dx=0 dy=0 dh=-10 dv=0 dx=0 dy=0 dh=0 dv=0
PairPos2: "'kern' Horizontal Kerning lookup 10 per glyph data 5" aring.a dx=0 dy=0 dh=-10 dv=0 dx=0 dy=0 dh=0 dv=0
PairPos2: "'kern' Horizontal Kerning lookup 10 per glyph data 5" abreve.a dx=0 dy=0 dh=-10 dv=0 dx=0 dy=0 dh=0 dv=0
PairPos2: "'kern' Horizontal Kerning lookup 10 per glyph data 5" amacron.a dx=0 dy=0 dh=-10 dv=0 dx=0 dy=0 dh=0 dv=0
PairPos2: "'kern' Horizontal Kerning lookup 10 per glyph data 5" adieresis.a dx=0 dy=0 dh=-10 dv=0 dx=0 dy=0 dh=0 dv=0
PairPos2: "'kern' Horizontal Kerning lookup 10 per glyph data 5" atilde.a dx=0 dy=0 dh=-10 dv=0 dx=0 dy=0 dh=0 dv=0
PairPos2: "'kern' Horizontal Kerning lookup 10 per glyph data 5" acircumflex.a dx=0 dy=0 dh=-10 dv=0 dx=0 dy=0 dh=0 dv=0
PairPos2: "'kern' Horizontal Kerning lookup 10 per glyph data 5" aacute.a dx=0 dy=0 dh=-10 dv=0 dx=0 dy=0 dh=0 dv=0
PairPos2: "'kern' Horizontal Kerning lookup 10 per glyph data 5" agrave.a dx=0 dy=0 dh=-10 dv=0 dx=0 dy=0 dh=0 dv=0
PairPos2: "'kern' Horizontal Kerning lookup 10 per glyph data 5" a.a dx=0 dy=0 dh=-10 dv=0 dx=0 dy=0 dh=0 dv=0
PairPos2: "'kern' Horizontal Kerning lookup 10 per glyph data 5" uni0278 dx=0 dy=0 dh=-10 dv=0 dx=0 dy=0 dh=0 dv=0
PairPos2: "'kern' Horizontal Kerning lookup 10 per glyph data 5" uni0276 dx=0 dy=0 dh=-10 dv=0 dx=0 dy=0 dh=0 dv=0
PairPos2: "'kern' Horizontal Kerning lookup 10 per glyph data 5" uni0275 dx=0 dy=0 dh=-10 dv=0 dx=0 dy=0 dh=0 dv=0
PairPos2: "'kern' Horizontal Kerning lookup 10 per glyph data 5" uni0262 dx=0 dy=0 dh=-10 dv=0 dx=0 dy=0 dh=0 dv=0
PairPos2: "'kern' Horizontal Kerning lookup 10 per glyph data 5" uni0261 dx=0 dy=0 dh=-10 dv=0 dx=0 dy=0 dh=0 dv=0
PairPos2: "'kern' Horizontal Kerning lookup 10 per glyph data 5" uni0260 dx=0 dy=0 dh=-10 dv=0 dx=0 dy=0 dh=0 dv=0
PairPos2: "'kern' Horizontal Kerning lookup 10 per glyph data 5" uni0251 dx=0 dy=0 dh=-10 dv=0 dx=0 dy=0 dh=0 dv=0
PairPos2: "'kern' Horizontal Kerning lookup 10 per glyph data 5" uni0257 dx=0 dy=0 dh=-10 dv=0 dx=0 dy=0 dh=0 dv=0
PairPos2: "'kern' Horizontal Kerning lookup 10 per glyph data 5" uni0256 dx=0 dy=0 dh=-10 dv=0 dx=0 dy=0 dh=0 dv=0
PairPos2: "'kern' Horizontal Kerning lookup 10 per glyph data 5" uni0255 dx=0 dy=0 dh=-10 dv=0 dx=0 dy=0 dh=0 dv=0
PairPos2: "'kern' Horizontal Kerning lookup 10 per glyph data 5" uni01EB dx=0 dy=0 dh=-10 dv=0 dx=0 dy=0 dh=0 dv=0
PairPos2: "'kern' Horizontal Kerning lookup 10 per glyph data 5" uni1EE3 dx=0 dy=0 dh=-10 dv=0 dx=0 dy=0 dh=0 dv=0
PairPos2: "'kern' Horizontal Kerning lookup 10 per glyph data 5" uni1EE1 dx=0 dy=0 dh=-10 dv=0 dx=0 dy=0 dh=0 dv=0
PairPos2: "'kern' Horizontal Kerning lookup 10 per glyph data 5" uni1EDF dx=0 dy=0 dh=-10 dv=0 dx=0 dy=0 dh=0 dv=0
PairPos2: "'kern' Horizontal Kerning lookup 10 per glyph data 5" uni1EDD dx=0 dy=0 dh=-10 dv=0 dx=0 dy=0 dh=0 dv=0
PairPos2: "'kern' Horizontal Kerning lookup 10 per glyph data 5" uni1EDB dx=0 dy=0 dh=-10 dv=0 dx=0 dy=0 dh=0 dv=0
PairPos2: "'kern' Horizontal Kerning lookup 10 per glyph data 5" ohorn dx=0 dy=0 dh=-10 dv=0 dx=0 dy=0 dh=0 dv=0
PairPos2: "'kern' Horizontal Kerning lookup 10 per glyph data 5" oe dx=0 dy=0 dh=-10 dv=0 dx=0 dy=0 dh=0 dv=0
PairPos2: "'kern' Horizontal Kerning lookup 10 per glyph data 5" oslash dx=0 dy=0 dh=-10 dv=0 dx=0 dy=0 dh=0 dv=0
PairPos2: "'kern' Horizontal Kerning lookup 10 per glyph data 5" uni1E53 dx=0 dy=0 dh=-10 dv=0 dx=0 dy=0 dh=0 dv=0
PairPos2: "'kern' Horizontal Kerning lookup 10 per glyph data 5" uni014F dx=0 dy=0 dh=-10 dv=0 dx=0 dy=0 dh=0 dv=0
PairPos2: "'kern' Horizontal Kerning lookup 10 per glyph data 5" uni1ED9 dx=0 dy=0 dh=-10 dv=0 dx=0 dy=0 dh=0 dv=0
PairPos2: "'kern' Horizontal Kerning lookup 10 per glyph data 5" uni1ED7 dx=0 dy=0 dh=-10 dv=0 dx=0 dy=0 dh=0 dv=0
PairPos2: "'kern' Horizontal Kerning lookup 10 per glyph data 5" uni1ED5 dx=0 dy=0 dh=-10 dv=0 dx=0 dy=0 dh=0 dv=0
PairPos2: "'kern' Horizontal Kerning lookup 10 per glyph data 5" uni1ED3 dx=0 dy=0 dh=-10 dv=0 dx=0 dy=0 dh=0 dv=0
PairPos2: "'kern' Horizontal Kerning lookup 10 per glyph data 5" uni1ED1 dx=0 dy=0 dh=-10 dv=0 dx=0 dy=0 dh=0 dv=0
PairPos2: "'kern' Horizontal Kerning lookup 10 per glyph data 5" uni1ECF dx=0 dy=0 dh=-10 dv=0 dx=0 dy=0 dh=0 dv=0
PairPos2: "'kern' Horizontal Kerning lookup 10 per glyph data 5" uni1ECD dx=0 dy=0 dh=-10 dv=0 dx=0 dy=0 dh=0 dv=0
PairPos2: "'kern' Horizontal Kerning lookup 10 per glyph data 5" uni01D2 dx=0 dy=0 dh=-10 dv=0 dx=0 dy=0 dh=0 dv=0
PairPos2: "'kern' Horizontal Kerning lookup 10 per glyph data 5" ohungarumlaut dx=0 dy=0 dh=-10 dv=0 dx=0 dy=0 dh=0 dv=0
PairPos2: "'kern' Horizontal Kerning lookup 10 per glyph data 5" omacron dx=0 dy=0 dh=-10 dv=0 dx=0 dy=0 dh=0 dv=0
PairPos2: "'kern' Horizontal Kerning lookup 10 per glyph data 5" odieresis dx=0 dy=0 dh=-10 dv=0 dx=0 dy=0 dh=0 dv=0
PairPos2: "'kern' Horizontal Kerning lookup 10 per glyph data 5" otilde dx=0 dy=0 dh=-10 dv=0 dx=0 dy=0 dh=0 dv=0
PairPos2: "'kern' Horizontal Kerning lookup 10 per glyph data 5" ocircumflex dx=0 dy=0 dh=-10 dv=0 dx=0 dy=0 dh=0 dv=0
PairPos2: "'kern' Horizontal Kerning lookup 10 per glyph data 5" oacute dx=0 dy=0 dh=-10 dv=0 dx=0 dy=0 dh=0 dv=0
PairPos2: "'kern' Horizontal Kerning lookup 10 per glyph data 5" ograve dx=0 dy=0 dh=-10 dv=0 dx=0 dy=0 dh=0 dv=0
PairPos2: "'kern' Horizontal Kerning lookup 10 per glyph data 5" uni1E17 dx=0 dy=0 dh=-10 dv=0 dx=0 dy=0 dh=0 dv=0
PairPos2: "'kern' Horizontal Kerning lookup 10 per glyph data 5" eogonek dx=0 dy=0 dh=-10 dv=0 dx=0 dy=0 dh=0 dv=0
PairPos2: "'kern' Horizontal Kerning lookup 10 per glyph data 5" uni1EC7 dx=0 dy=0 dh=-10 dv=0 dx=0 dy=0 dh=0 dv=0
PairPos2: "'kern' Horizontal Kerning lookup 10 per glyph data 5" uni1EC5 dx=0 dy=0 dh=-10 dv=0 dx=0 dy=0 dh=0 dv=0
PairPos2: "'kern' Horizontal Kerning lookup 10 per glyph data 5" uni1EC3 dx=0 dy=0 dh=-10 dv=0 dx=0 dy=0 dh=0 dv=0
PairPos2: "'kern' Horizontal Kerning lookup 10 per glyph data 5" uni1EC1 dx=0 dy=0 dh=-10 dv=0 dx=0 dy=0 dh=0 dv=0
PairPos2: "'kern' Horizontal Kerning lookup 10 per glyph data 5" uni1EBF dx=0 dy=0 dh=-10 dv=0 dx=0 dy=0 dh=0 dv=0
PairPos2: "'kern' Horizontal Kerning lookup 10 per glyph data 5" uni1EBD dx=0 dy=0 dh=-10 dv=0 dx=0 dy=0 dh=0 dv=0
PairPos2: "'kern' Horizontal Kerning lookup 10 per glyph data 5" uni1EBB dx=0 dy=0 dh=-10 dv=0 dx=0 dy=0 dh=0 dv=0
PairPos2: "'kern' Horizontal Kerning lookup 10 per glyph data 5" uni1EB9 dx=0 dy=0 dh=-10 dv=0 dx=0 dy=0 dh=0 dv=0
PairPos2: "'kern' Horizontal Kerning lookup 10 per glyph data 5" edotaccent dx=0 dy=0 dh=-10 dv=0 dx=0 dy=0 dh=0 dv=0
PairPos2: "'kern' Horizontal Kerning lookup 10 per glyph data 5" ebreve dx=0 dy=0 dh=-10 dv=0 dx=0 dy=0 dh=0 dv=0
PairPos2: "'kern' Horizontal Kerning lookup 10 per glyph data 5" emacron dx=0 dy=0 dh=-10 dv=0 dx=0 dy=0 dh=0 dv=0
PairPos2: "'kern' Horizontal Kerning lookup 10 per glyph data 5" edieresis dx=0 dy=0 dh=-10 dv=0 dx=0 dy=0 dh=0 dv=0
PairPos2: "'kern' Horizontal Kerning lookup 10 per glyph data 5" ecaron dx=0 dy=0 dh=-10 dv=0 dx=0 dy=0 dh=0 dv=0
PairPos2: "'kern' Horizontal Kerning lookup 10 per glyph data 5" ecircumflex dx=0 dy=0 dh=-10 dv=0 dx=0 dy=0 dh=0 dv=0
PairPos2: "'kern' Horizontal Kerning lookup 10 per glyph data 5" eacute dx=0 dy=0 dh=-10 dv=0 dx=0 dy=0 dh=0 dv=0
PairPos2: "'kern' Horizontal Kerning lookup 10 per glyph data 5" egrave dx=0 dy=0 dh=-10 dv=0 dx=0 dy=0 dh=0 dv=0
PairPos2: "'kern' Horizontal Kerning lookup 10 per glyph data 5" dcroat dx=0 dy=0 dh=-10 dv=0 dx=0 dy=0 dh=0 dv=0
PairPos2: "'kern' Horizontal Kerning lookup 10 per glyph data 5" uni1E0F dx=0 dy=0 dh=-10 dv=0 dx=0 dy=0 dh=0 dv=0
PairPos2: "'kern' Horizontal Kerning lookup 10 per glyph data 5" uni1E0D dx=0 dy=0 dh=-10 dv=0 dx=0 dy=0 dh=0 dv=0
PairPos2: "'kern' Horizontal Kerning lookup 10 per glyph data 5" dcaron dx=0 dy=0 dh=-10 dv=0 dx=0 dy=0 dh=0 dv=0
PairPos2: "'kern' Horizontal Kerning lookup 10 per glyph data 5" cdotaccent dx=0 dy=0 dh=-10 dv=0 dx=0 dy=0 dh=0 dv=0
PairPos2: "'kern' Horizontal Kerning lookup 10 per glyph data 5" ccaron dx=0 dy=0 dh=-10 dv=0 dx=0 dy=0 dh=0 dv=0
PairPos2: "'kern' Horizontal Kerning lookup 10 per glyph data 5" ccircumflex dx=0 dy=0 dh=-10 dv=0 dx=0 dy=0 dh=0 dv=0
PairPos2: "'kern' Horizontal Kerning lookup 10 per glyph data 5" cacute dx=0 dy=0 dh=-10 dv=0 dx=0 dy=0 dh=0 dv=0
PairPos2: "'kern' Horizontal Kerning lookup 10 per glyph data 5" ccedilla dx=0 dy=0 dh=-10 dv=0 dx=0 dy=0 dh=0 dv=0
PairPos2: "'kern' Horizontal Kerning lookup 10 per glyph data 5" q dx=0 dy=0 dh=-10 dv=0 dx=0 dy=0 dh=0 dv=0
PairPos2: "'kern' Horizontal Kerning lookup 10 per glyph data 5" o dx=0 dy=0 dh=-10 dv=0 dx=0 dy=0 dh=0 dv=0
PairPos2: "'kern' Horizontal Kerning lookup 10 per glyph data 5" e dx=0 dy=0 dh=-10 dv=0 dx=0 dy=0 dh=0 dv=0
PairPos2: "'kern' Horizontal Kerning lookup 10 per glyph data 5" d dx=0 dy=0 dh=-10 dv=0 dx=0 dy=0 dh=0 dv=0
PairPos2: "'kern' Horizontal Kerning lookup 10 per glyph data 5" c dx=0 dy=0 dh=-10 dv=0 dx=0 dy=0 dh=0 dv=0
PairPos2: "'kern' Horizontal Kerning lookup 10 per glyph data 5" uni00670303 dx=0 dy=0 dh=-10 dv=0 dx=0 dy=0 dh=0 dv=0
PairPos2: "'kern' Horizontal Kerning lookup 10 per glyph data 5" uni1E21 dx=0 dy=0 dh=-10 dv=0 dx=0 dy=0 dh=0 dv=0
PairPos2: "'kern' Horizontal Kerning lookup 10 per glyph data 5" gcaron dx=0 dy=0 dh=-10 dv=0 dx=0 dy=0 dh=0 dv=0
PairPos2: "'kern' Horizontal Kerning lookup 10 per glyph data 5" uni0123 dx=0 dy=0 dh=-10 dv=0 dx=0 dy=0 dh=0 dv=0
PairPos2: "'kern' Horizontal Kerning lookup 10 per glyph data 5" gdotaccent dx=0 dy=0 dh=-10 dv=0 dx=0 dy=0 dh=0 dv=0
PairPos2: "'kern' Horizontal Kerning lookup 10 per glyph data 5" gbreve dx=0 dy=0 dh=-10 dv=0 dx=0 dy=0 dh=0 dv=0
PairPos2: "'kern' Horizontal Kerning lookup 10 per glyph data 5" gcircumflex dx=0 dy=0 dh=-10 dv=0 dx=0 dy=0 dh=0 dv=0
PairPos2: "'kern' Horizontal Kerning lookup 10 per glyph data 5" uni01F5 dx=0 dy=0 dh=-10 dv=0 dx=0 dy=0 dh=0 dv=0
PairPos2: "'kern' Horizontal Kerning lookup 10 per glyph data 5" g dx=0 dy=0 dh=-10 dv=0 dx=0 dy=0 dh=0 dv=0
PairPos2: "'kern' Horizontal Kerning lookup 10 per glyph data 5" trademark dx=0 dy=0 dh=70 dv=0 dx=0 dy=0 dh=0 dv=0
PairPos2: "'kern' Horizontal Kerning lookup 10 per glyph data 5" registered dx=0 dy=0 dh=40 dv=0 dx=0 dy=0 dh=0 dv=0
PairPos2: "'kern' Horizontal Kerning lookup 10 per glyph data 5" backslash dx=0 dy=0 dh=20 dv=0 dx=0 dy=0 dh=0 dv=0
PairPos2: "'kern' Horizontal Kerning lookup 10 per glyph data 5" quotedbl dx=0 dy=0 dh=40 dv=0 dx=0 dy=0 dh=0 dv=0
PairPos2: "'kern' Horizontal Kerning lookup 10 per glyph data 5" quotesingle dx=0 dy=0 dh=40 dv=0 dx=0 dy=0 dh=0 dv=0
PairPos2: "'kern' Horizontal Kerning lookup 10 per glyph data 5" uni02BF dx=0 dy=0 dh=20 dv=0 dx=0 dy=0 dh=0 dv=0
PairPos2: "'kern' Horizontal Kerning lookup 10 per glyph data 5" uni02BB dx=0 dy=0 dh=20 dv=0 dx=0 dy=0 dh=0 dv=0
PairPos2: "'kern' Horizontal Kerning lookup 10 per glyph data 5" quotedblleft dx=0 dy=0 dh=20 dv=0 dx=0 dy=0 dh=0 dv=0
PairPos2: "'kern' Horizontal Kerning lookup 10 per glyph data 5" quoteleft dx=0 dy=0 dh=20 dv=0 dx=0 dy=0 dh=0 dv=0
PairPos2: "'kern' Horizontal Kerning lookup 10 per glyph data 5" X dx=0 dy=0 dh=20 dv=0 dx=0 dy=0 dh=0 dv=0
PairPos2: "'kern' Horizontal Kerning lookup 10 per glyph data 5" x dx=0 dy=0 dh=-10 dv=0 dx=0 dy=0 dh=0 dv=0
PairPos2: "'kern' Horizontal Kerning lookup 10 per glyph data 5" uni0282 dx=0 dy=0 dh=-10 dv=0 dx=0 dy=0 dh=0 dv=0
PairPos2: "'kern' Horizontal Kerning lookup 10 per glyph data 5" uni1E63 dx=0 dy=0 dh=-10 dv=0 dx=0 dy=0 dh=0 dv=0
PairPos2: "'kern' Horizontal Kerning lookup 10 per glyph data 5" uni1E61 dx=0 dy=0 dh=-10 dv=0 dx=0 dy=0 dh=0 dv=0
PairPos2: "'kern' Horizontal Kerning lookup 10 per glyph data 5" uni0219 dx=0 dy=0 dh=-10 dv=0 dx=0 dy=0 dh=0 dv=0
PairPos2: "'kern' Horizontal Kerning lookup 10 per glyph data 5" uni015F dx=0 dy=0 dh=-10 dv=0 dx=0 dy=0 dh=0 dv=0
PairPos2: "'kern' Horizontal Kerning lookup 10 per glyph data 5" scaron dx=0 dy=0 dh=-10 dv=0 dx=0 dy=0 dh=0 dv=0
PairPos2: "'kern' Horizontal Kerning lookup 10 per glyph data 5" scircumflex dx=0 dy=0 dh=-10 dv=0 dx=0 dy=0 dh=0 dv=0
PairPos2: "'kern' Horizontal Kerning lookup 10 per glyph data 5" sacute dx=0 dy=0 dh=-10 dv=0 dx=0 dy=0 dh=0 dv=0
PairPos2: "'kern' Horizontal Kerning lookup 10 per glyph data 5" s dx=0 dy=0 dh=-10 dv=0 dx=0 dy=0 dh=0 dv=0
PairPos2: "'kern' Horizontal Kerning lookup 10 per glyph data 5" uni01E3 dx=0 dy=0 dh=-20 dv=0 dx=0 dy=0 dh=0 dv=0
PairPos2: "'kern' Horizontal Kerning lookup 10 per glyph data 5" uni01FD dx=0 dy=0 dh=-20 dv=0 dx=0 dy=0 dh=0 dv=0
PairPos2: "'kern' Horizontal Kerning lookup 10 per glyph data 5" ae dx=0 dy=0 dh=-20 dv=0 dx=0 dy=0 dh=0 dv=0
PairPos2: "'kern' Horizontal Kerning lookup 10 per glyph data 5" aogonek dx=0 dy=0 dh=-20 dv=0 dx=0 dy=0 dh=0 dv=0
PairPos2: "'kern' Horizontal Kerning lookup 10 per glyph data 5" uni1EB7 dx=0 dy=0 dh=-20 dv=0 dx=0 dy=0 dh=0 dv=0
PairPos2: "'kern' Horizontal Kerning lookup 10 per glyph data 5" uni1EB5 dx=0 dy=0 dh=-20 dv=0 dx=0 dy=0 dh=0 dv=0
PairPos2: "'kern' Horizontal Kerning lookup 10 per glyph data 5" uni1EB3 dx=0 dy=0 dh=-20 dv=0 dx=0 dy=0 dh=0 dv=0
PairPos2: "'kern' Horizontal Kerning lookup 10 per glyph data 5" uni1EB1 dx=0 dy=0 dh=-20 dv=0 dx=0 dy=0 dh=0 dv=0
PairPos2: "'kern' Horizontal Kerning lookup 10 per glyph data 5" uni1EAF dx=0 dy=0 dh=-20 dv=0 dx=0 dy=0 dh=0 dv=0
PairPos2: "'kern' Horizontal Kerning lookup 10 per glyph data 5" uni1EAD dx=0 dy=0 dh=-20 dv=0 dx=0 dy=0 dh=0 dv=0
PairPos2: "'kern' Horizontal Kerning lookup 10 per glyph data 5" uni1EAB dx=0 dy=0 dh=-20 dv=0 dx=0 dy=0 dh=0 dv=0
PairPos2: "'kern' Horizontal Kerning lookup 10 per glyph data 5" uni1EA9 dx=0 dy=0 dh=-20 dv=0 dx=0 dy=0 dh=0 dv=0
PairPos2: "'kern' Horizontal Kerning lookup 10 per glyph data 5" uni1EA7 dx=0 dy=0 dh=-20 dv=0 dx=0 dy=0 dh=0 dv=0
PairPos2: "'kern' Horizontal Kerning lookup 10 per glyph data 5" uni1EA5 dx=0 dy=0 dh=-20 dv=0 dx=0 dy=0 dh=0 dv=0
PairPos2: "'kern' Horizontal Kerning lookup 10 per glyph data 5" uni1EA3 dx=0 dy=0 dh=-20 dv=0 dx=0 dy=0 dh=0 dv=0
PairPos2: "'kern' Horizontal Kerning lookup 10 per glyph data 5" uni1EA1 dx=0 dy=0 dh=-20 dv=0 dx=0 dy=0 dh=0 dv=0
PairPos2: "'kern' Horizontal Kerning lookup 10 per glyph data 5" uni01CE dx=0 dy=0 dh=-20 dv=0 dx=0 dy=0 dh=0 dv=0
PairPos2: "'kern' Horizontal Kerning lookup 10 per glyph data 5" aring dx=0 dy=0 dh=-20 dv=0 dx=0 dy=0 dh=0 dv=0
PairPos2: "'kern' Horizontal Kerning lookup 10 per glyph data 5" abreve dx=0 dy=0 dh=-20 dv=0 dx=0 dy=0 dh=0 dv=0
PairPos2: "'kern' Horizontal Kerning lookup 10 per glyph data 5" amacron dx=0 dy=0 dh=-20 dv=0 dx=0 dy=0 dh=0 dv=0
PairPos2: "'kern' Horizontal Kerning lookup 10 per glyph data 5" adieresis dx=0 dy=0 dh=-20 dv=0 dx=0 dy=0 dh=0 dv=0
PairPos2: "'kern' Horizontal Kerning lookup 10 per glyph data 5" atilde dx=0 dy=0 dh=-20 dv=0 dx=0 dy=0 dh=0 dv=0
PairPos2: "'kern' Horizontal Kerning lookup 10 per glyph data 5" acircumflex dx=0 dy=0 dh=-20 dv=0 dx=0 dy=0 dh=0 dv=0
PairPos2: "'kern' Horizontal Kerning lookup 10 per glyph data 5" aacute dx=0 dy=0 dh=-20 dv=0 dx=0 dy=0 dh=0 dv=0
PairPos2: "'kern' Horizontal Kerning lookup 10 per glyph data 5" agrave dx=0 dy=0 dh=-20 dv=0 dx=0 dy=0 dh=0 dv=0
PairPos2: "'kern' Horizontal Kerning lookup 10 per glyph data 5" a dx=0 dy=0 dh=-20 dv=0 dx=0 dy=0 dh=0 dv=0
PairPos2: "'kern' Horizontal Kerning lookup 10 per glyph data 5" periodcentered dx=0 dy=0 dh=-20 dv=0 dx=0 dy=0 dh=0 dv=0
PairPos2: "'kern' Horizontal Kerning lookup 10 per glyph data 5" quotedblbase dx=0 dy=0 dh=-70 dv=0 dx=0 dy=0 dh=0 dv=0
PairPos2: "'kern' Horizontal Kerning lookup 10 per glyph data 5" quotesinglbase dx=0 dy=0 dh=-70 dv=0 dx=0 dy=0 dh=0 dv=0
PairPos2: "'kern' Horizontal Kerning lookup 10 per glyph data 5" ellipsis dx=0 dy=0 dh=-70 dv=0 dx=0 dy=0 dh=0 dv=0
PairPos2: "'kern' Horizontal Kerning lookup 10 per glyph data 5" comma dx=0 dy=0 dh=-70 dv=0 dx=0 dy=0 dh=0 dv=0
PairPos2: "'kern' Horizontal Kerning lookup 10 per glyph data 5" period dx=0 dy=0 dh=-70 dv=0 dx=0 dy=0 dh=0 dv=0
PairPos2: "'kern' Horizontal Kerning lookup 10 per glyph data 5" uni02BE dx=0 dy=0 dh=20 dv=0 dx=0 dy=0 dh=0 dv=0
PairPos2: "'kern' Horizontal Kerning lookup 10 per glyph data 5" uni02BC dx=0 dy=0 dh=20 dv=0 dx=0 dy=0 dh=0 dv=0
PairPos2: "'kern' Horizontal Kerning lookup 10 per glyph data 5" quotedblright dx=0 dy=0 dh=20 dv=0 dx=0 dy=0 dh=0 dv=0
PairPos2: "'kern' Horizontal Kerning lookup 10 per glyph data 5" quoteright dx=0 dy=0 dh=20 dv=0 dx=0 dy=0 dh=0 dv=0
PairPos2: "'kern' Horizontal Kerning lookup 10 per glyph data 5" uni203D dx=0 dy=0 dh=20 dv=0 dx=0 dy=0 dh=0 dv=0
PairPos2: "'kern' Horizontal Kerning lookup 10 per glyph data 5" uni2048 dx=0 dy=0 dh=20 dv=0 dx=0 dy=0 dh=0 dv=0
PairPos2: "'kern' Horizontal Kerning lookup 10 per glyph data 5" uni2047 dx=0 dy=0 dh=20 dv=0 dx=0 dy=0 dh=0 dv=0
PairPos2: "'kern' Horizontal Kerning lookup 10 per glyph data 5" question dx=0 dy=0 dh=20 dv=0 dx=0 dy=0 dh=0 dv=0
PairPos2: "'kern' Horizontal Kerning lookup 10 per glyph data 5" uni1EF8 dx=0 dy=0 dh=40 dv=0 dx=0 dy=0 dh=0 dv=0
PairPos2: "'kern' Horizontal Kerning lookup 10 per glyph data 5" uni1EF6 dx=0 dy=0 dh=40 dv=0 dx=0 dy=0 dh=0 dv=0
PairPos2: "'kern' Horizontal Kerning lookup 10 per glyph data 5" uni1EF4 dx=0 dy=0 dh=40 dv=0 dx=0 dy=0 dh=0 dv=0
PairPos2: "'kern' Horizontal Kerning lookup 10 per glyph data 5" uni1E8E dx=0 dy=0 dh=40 dv=0 dx=0 dy=0 dh=0 dv=0
PairPos2: "'kern' Horizontal Kerning lookup 10 per glyph data 5" Ydieresis dx=0 dy=0 dh=40 dv=0 dx=0 dy=0 dh=0 dv=0
PairPos2: "'kern' Horizontal Kerning lookup 10 per glyph data 5" Ycircumflex dx=0 dy=0 dh=40 dv=0 dx=0 dy=0 dh=0 dv=0
PairPos2: "'kern' Horizontal Kerning lookup 10 per glyph data 5" Yacute dx=0 dy=0 dh=40 dv=0 dx=0 dy=0 dh=0 dv=0
PairPos2: "'kern' Horizontal Kerning lookup 10 per glyph data 5" Ygrave dx=0 dy=0 dh=40 dv=0 dx=0 dy=0 dh=0 dv=0
PairPos2: "'kern' Horizontal Kerning lookup 10 per glyph data 5" Y dx=0 dy=0 dh=40 dv=0 dx=0 dy=0 dh=0 dv=0
PairPos2: "'kern' Horizontal Kerning lookup 10 per glyph data 5" Wdieresis dx=0 dy=0 dh=40 dv=0 dx=0 dy=0 dh=0 dv=0
PairPos2: "'kern' Horizontal Kerning lookup 10 per glyph data 5" Wcircumflex dx=0 dy=0 dh=40 dv=0 dx=0 dy=0 dh=0 dv=0
PairPos2: "'kern' Horizontal Kerning lookup 10 per glyph data 5" Wacute dx=0 dy=0 dh=40 dv=0 dx=0 dy=0 dh=0 dv=0
PairPos2: "'kern' Horizontal Kerning lookup 10 per glyph data 5" Wgrave dx=0 dy=0 dh=40 dv=0 dx=0 dy=0 dh=0 dv=0
PairPos2: "'kern' Horizontal Kerning lookup 10 per glyph data 5" W dx=0 dy=0 dh=40 dv=0 dx=0 dy=0 dh=0 dv=0
PairPos2: "'kern' Horizontal Kerning lookup 10 per glyph data 5" V dx=0 dy=0 dh=60 dv=0 dx=0 dy=0 dh=0 dv=0
PairPos2: "'kern' Horizontal Kerning lookup 10 per glyph data 5" uni0166 dx=0 dy=0 dh=40 dv=0 dx=0 dy=0 dh=0 dv=0
PairPos2: "'kern' Horizontal Kerning lookup 10 per glyph data 5" uni1E6E dx=0 dy=0 dh=40 dv=0 dx=0 dy=0 dh=0 dv=0
PairPos2: "'kern' Horizontal Kerning lookup 10 per glyph data 5" uni1E6C dx=0 dy=0 dh=40 dv=0 dx=0 dy=0 dh=0 dv=0
PairPos2: "'kern' Horizontal Kerning lookup 10 per glyph data 5" uni021A dx=0 dy=0 dh=40 dv=0 dx=0 dy=0 dh=0 dv=0
PairPos2: "'kern' Horizontal Kerning lookup 10 per glyph data 5" uni0162 dx=0 dy=0 dh=40 dv=0 dx=0 dy=0 dh=0 dv=0
PairPos2: "'kern' Horizontal Kerning lookup 10 per glyph data 5" Tcaron dx=0 dy=0 dh=40 dv=0 dx=0 dy=0 dh=0 dv=0
PairPos2: "'kern' Horizontal Kerning lookup 10 per glyph data 5" T dx=0 dy=0 dh=40 dv=0 dx=0 dy=0 dh=0 dv=0
EndChar
StartChar: j
Encoding: 106 106 37
Width: 290
GlyphClass: 2
Flags: MW
HStem: -188 134<15 28 4 113> 480 20G<60 232 232 232> 562 172<118 174>
VStem: 50 192<623 673> 60 172<20 26 26 500>
AnchorPoint: "Anchor-4" 86 -237 basechar 0
AnchorPoint: "Anchor-0" 147 733 basechar 0
LayerCount: 2
Fore
SplineSet
38 -188 m 0xe8
 -8 -188 -34 -182 -56 -174 c 1
 -26 -48 l 1
 -12 -52 -2 -54 10 -54 c 0
 46 -54 60 -34 60 20 c 2
 60 500 l 1
 232 500 l 1
 232 26 l 2
 232 -86 188 -188 38 -188 c 0xe8
146 562 m 0xf0
 90 562 50 598 50 648 c 0
 50 698 90 734 146 734 c 0
 202 734 242 698 242 648 c 0
 242 598 202 562 146 562 c 0xf0
EndSplineSet
Substitution2: "'sups' Superscript lookup 26 subtable" j.sups
Substitution2: "'smcp' Lowercase to Small Capitals lookup 20 subtable" J.sc
AlternateSubs2: "'aalt' Access All Alternates lookup 1 subtable" J.sc j.sups
EndChar
StartChar: l
Encoding: 108 108 39
Width: 298
GlyphClass: 2
Flags: MW
HStem: -12 21G<154 231> -12 138<154 261> 676 20G<58 230 230 230>
VStem: 58 172<176 696>
AnchorPoint: "Anchor-4" 143 -22 basechar 0
AnchorPoint: "Anchor-0" 143 730 basechar 0
LayerCount: 2
Fore
SplineSet
212 -12 m 0xb0
 96 -12 58 64 58 176 c 2
 58 696 l 1
 230 696 l 1
 230 170 l 2
 230 136 246 126 258 126 c 0
 264 126 268 126 276 128 c 1x70
 296 2 l 1
 278 -6 250 -12 212 -12 c 0xb0
EndSplineSet
Substitution2: "'ss01' Style Set 1 lookup 36 subtable" l.a
Substitution2: "'sups' Superscript lookup 26 subtable" l.sups
Substitution2: "'smcp' Lowercase to Small Capitals lookup 20 subtable" L.sc
AlternateSubs2: "'aalt' Access All Alternates lookup 1 subtable" L.sc l.sups l.a
PairPos2: "'kern' Horizontal Kerning lookup 10 per glyph data 5" uni0284 dx=0 dy=0 dh=12 dv=0 dx=0 dy=0 dh=0 dv=0
PairPos2: "'kern' Horizontal Kerning lookup 10 per glyph data 5" uni0283 dx=0 dy=0 dh=12 dv=0 dx=0 dy=0 dh=0 dv=0
PairPos2: "'kern' Horizontal Kerning lookup 10 per glyph data 5" uni0272 dx=0 dy=0 dh=12 dv=0 dx=0 dy=0 dh=0 dv=0
PairPos2: "'kern' Horizontal Kerning lookup 10 per glyph data 5" uni025F dx=0 dy=0 dh=12 dv=0 dx=0 dy=0 dh=0 dv=0
PairPos2: "'kern' Horizontal Kerning lookup 10 per glyph data 5" uni0237 dx=0 dy=0 dh=12 dv=0 dx=0 dy=0 dh=0 dv=0
PairPos2: "'kern' Horizontal Kerning lookup 10 per glyph data 5" jcircumflex dx=0 dy=0 dh=12 dv=0 dx=0 dy=0 dh=0 dv=0
PairPos2: "'kern' Horizontal Kerning lookup 10 per glyph data 5" j dx=0 dy=0 dh=12 dv=0 dx=0 dy=0 dh=0 dv=0
EndChar
StartChar: q
Encoding: 113 113 44
Width: 580
GlyphClass: 2
Flags: MW
HStem: -176 21G<350 350 350 522> -12 140<178 299> 372 140<264 266.5 189 293> 480 20G<388 522 522 522> 492 20G<189 266.5>
VStem: 36 176<207 296 207 332> 350 172<-176 -33 -33 -33 164 348 348 348>
AnchorPoint: "Anchor-4" 432 -218 basechar 0
AnchorPoint: "Anchor-0" 298 522 basechar 0
LayerCount: 2
Fore
SplineSet
350 -176 m 1xce
 350 -33 l 1
 356 38 l 1
 326 8 280 -12 240 -12 c 0
 116 -12 36 88 36 250 c 0
 36 414 138 512 240 512 c 0
 293 512 332 494 370 450 c 1
 374 450 l 1xce
 388 500 l 1
 522 500 l 1xd6
 522 -176 l 1
 350 -176 l 1xce
286 128 m 0
 312 128 332 136 350 164 c 1
 350 348 l 1
 330 366 304 372 282 372 c 0xe6
 246 372 212 340 212 252 c 0
 212 162 240 128 286 128 c 0
EndSplineSet
Substitution2: "'sups' Superscript lookup 26 subtable" q.sups
Substitution2: "'smcp' Lowercase to Small Capitals lookup 20 subtable" Q.sc
AlternateSubs2: "'aalt' Access All Alternates lookup 1 subtable" Q.sc q.sups
PairPos2: "'kern' Horizontal Kerning lookup 10 per glyph data 5" asterisk dx=0 dy=0 dh=-10 dv=0 dx=0 dy=0 dh=0 dv=0
PairPos2: "'kern' Horizontal Kerning lookup 10 per glyph data 5" uni1EF8 dx=0 dy=0 dh=-30 dv=0 dx=0 dy=0 dh=0 dv=0
PairPos2: "'kern' Horizontal Kerning lookup 10 per glyph data 5" uni1EF6 dx=0 dy=0 dh=-30 dv=0 dx=0 dy=0 dh=0 dv=0
PairPos2: "'kern' Horizontal Kerning lookup 10 per glyph data 5" uni1EF4 dx=0 dy=0 dh=-30 dv=0 dx=0 dy=0 dh=0 dv=0
PairPos2: "'kern' Horizontal Kerning lookup 10 per glyph data 5" uni1E8E dx=0 dy=0 dh=-30 dv=0 dx=0 dy=0 dh=0 dv=0
PairPos2: "'kern' Horizontal Kerning lookup 10 per glyph data 5" Ydieresis dx=0 dy=0 dh=-30 dv=0 dx=0 dy=0 dh=0 dv=0
PairPos2: "'kern' Horizontal Kerning lookup 10 per glyph data 5" Ycircumflex dx=0 dy=0 dh=-30 dv=0 dx=0 dy=0 dh=0 dv=0
PairPos2: "'kern' Horizontal Kerning lookup 10 per glyph data 5" Yacute dx=0 dy=0 dh=-30 dv=0 dx=0 dy=0 dh=0 dv=0
PairPos2: "'kern' Horizontal Kerning lookup 10 per glyph data 5" Ygrave dx=0 dy=0 dh=-30 dv=0 dx=0 dy=0 dh=0 dv=0
PairPos2: "'kern' Horizontal Kerning lookup 10 per glyph data 5" Y dx=0 dy=0 dh=-30 dv=0 dx=0 dy=0 dh=0 dv=0
PairPos2: "'kern' Horizontal Kerning lookup 10 per glyph data 5" V dx=0 dy=0 dh=-20 dv=0 dx=0 dy=0 dh=0 dv=0
PairPos2: "'kern' Horizontal Kerning lookup 10 per glyph data 5" uni0166 dx=0 dy=0 dh=-20 dv=0 dx=0 dy=0 dh=0 dv=0
PairPos2: "'kern' Horizontal Kerning lookup 10 per glyph data 5" uni1E6E dx=0 dy=0 dh=-20 dv=0 dx=0 dy=0 dh=0 dv=0
PairPos2: "'kern' Horizontal Kerning lookup 10 per glyph data 5" uni1E6C dx=0 dy=0 dh=-20 dv=0 dx=0 dy=0 dh=0 dv=0
PairPos2: "'kern' Horizontal Kerning lookup 10 per glyph data 5" uni021A dx=0 dy=0 dh=-20 dv=0 dx=0 dy=0 dh=0 dv=0
PairPos2: "'kern' Horizontal Kerning lookup 10 per glyph data 5" uni0162 dx=0 dy=0 dh=-20 dv=0 dx=0 dy=0 dh=0 dv=0
PairPos2: "'kern' Horizontal Kerning lookup 10 per glyph data 5" Tcaron dx=0 dy=0 dh=-20 dv=0 dx=0 dy=0 dh=0 dv=0
PairPos2: "'kern' Horizontal Kerning lookup 10 per glyph data 5" T dx=0 dy=0 dh=-20 dv=0 dx=0 dy=0 dh=0 dv=0
EndChar
StartChar: bar
Encoding: 124 124 1182
Width: 278
Flags: MW
HStem: -250 1000<84 194 84 194>
VStem: 84 110<-250 750 -250 750>
LayerCount: 2
Fore
SplineSet
84 -250 m 1
 84 750 l 1
 194 750 l 1
 194 -250 l 1
 84 -250 l 1
EndSplineSet
EndChar
StartChar: asciitilde
Encoding: 126 126 1761
Width: 540
Flags: MW
HStem: 234 120<329 369.5 329 380> 306 120<171 211>
VStem: 26 488<318 342>
LayerCount: 2
Fore
SplineSet
354 234 m 0xa0
 270 234 238 306 184 306 c 0
 158 306 134 284 114 250 c 1
 26 318 l 1
 80 398 134 426 186 426 c 0x60
 270 426 302 354 356 354 c 0
 383 354 406 376 426 410 c 1
 514 342 l 1
 460 262 406 234 354 234 c 0xa0
EndSplineSet
EndChar
StartChar: exclamdown
Encoding: 161 161 1147
Width: 360
Flags: MW
HStem: 304 208<151 209> 492 20G<151 209>
VStem: 80 200<379 437> 97 166
LayerCount: 2
Fore
SplineSet
94 -170 m 1x50
 100 -22 l 1
 124 256 l 1
 236 256 l 1
 260 -22 l 1
 266 -170 l 1
 94 -170 l 1x50
180 304 m 0xa0
 122 304 80 350 80 408 c 0
 80 466 122 512 180 512 c 0
 238 512 280 466 280 408 c 0
 280 350 238 304 180 304 c 0xa0
EndSplineSet
Substitution2: "'c2sc' Capitals to Small Capitals lookup 19 subtable" exclamdown.sc
Substitution2: "'aalt' Access All Alternates lookup 0 subtable" exclamdown.sc
PairPos2: "'kern' Horizontal Kerning lookup 10 per glyph data 4" uni1EF8 dx=0 dy=0 dh=-80 dv=0 dx=0 dy=0 dh=0 dv=0
PairPos2: "'kern' Horizontal Kerning lookup 10 per glyph data 4" uni1EF6 dx=0 dy=0 dh=-80 dv=0 dx=0 dy=0 dh=0 dv=0
PairPos2: "'kern' Horizontal Kerning lookup 10 per glyph data 4" uni1EF4 dx=0 dy=0 dh=-80 dv=0 dx=0 dy=0 dh=0 dv=0
PairPos2: "'kern' Horizontal Kerning lookup 10 per glyph data 4" uni1E8E dx=0 dy=0 dh=-80 dv=0 dx=0 dy=0 dh=0 dv=0
PairPos2: "'kern' Horizontal Kerning lookup 10 per glyph data 4" Ydieresis dx=0 dy=0 dh=-80 dv=0 dx=0 dy=0 dh=0 dv=0
PairPos2: "'kern' Horizontal Kerning lookup 10 per glyph data 4" Ycircumflex dx=0 dy=0 dh=-80 dv=0 dx=0 dy=0 dh=0 dv=0
PairPos2: "'kern' Horizontal Kerning lookup 10 per glyph data 4" Yacute dx=0 dy=0 dh=-80 dv=0 dx=0 dy=0 dh=0 dv=0
PairPos2: "'kern' Horizontal Kerning lookup 10 per glyph data 4" Ygrave dx=0 dy=0 dh=-80 dv=0 dx=0 dy=0 dh=0 dv=0
PairPos2: "'kern' Horizontal Kerning lookup 10 per glyph data 4" Y dx=0 dy=0 dh=-80 dv=0 dx=0 dy=0 dh=0 dv=0
PairPos2: "'kern' Horizontal Kerning lookup 10 per glyph data 4" Wdieresis dx=0 dy=0 dh=-30 dv=0 dx=0 dy=0 dh=0 dv=0
PairPos2: "'kern' Horizontal Kerning lookup 10 per glyph data 4" Wcircumflex dx=0 dy=0 dh=-30 dv=0 dx=0 dy=0 dh=0 dv=0
PairPos2: "'kern' Horizontal Kerning lookup 10 per glyph data 4" Wacute dx=0 dy=0 dh=-30 dv=0 dx=0 dy=0 dh=0 dv=0
PairPos2: "'kern' Horizontal Kerning lookup 10 per glyph data 4" Wgrave dx=0 dy=0 dh=-30 dv=0 dx=0 dy=0 dh=0 dv=0
PairPos2: "'kern' Horizontal Kerning lookup 10 per glyph data 4" W dx=0 dy=0 dh=-30 dv=0 dx=0 dy=0 dh=0 dv=0
PairPos2: "'kern' Horizontal Kerning lookup 10 per glyph data 4" V dx=0 dy=0 dh=-60 dv=0 dx=0 dy=0 dh=0 dv=0
PairPos2: "'kern' Horizontal Kerning lookup 10 per glyph data 4" uni0284 dx=0 dy=0 dh=20 dv=0 dx=0 dy=0 dh=0 dv=0
PairPos2: "'kern' Horizontal Kerning lookup 10 per glyph data 4" uni0283 dx=0 dy=0 dh=20 dv=0 dx=0 dy=0 dh=0 dv=0
PairPos2: "'kern' Horizontal Kerning lookup 10 per glyph data 4" uni0272 dx=0 dy=0 dh=20 dv=0 dx=0 dy=0 dh=0 dv=0
PairPos2: "'kern' Horizontal Kerning lookup 10 per glyph data 4" uni025F dx=0 dy=0 dh=20 dv=0 dx=0 dy=0 dh=0 dv=0
PairPos2: "'kern' Horizontal Kerning lookup 10 per glyph data 4" uni0237 dx=0 dy=0 dh=20 dv=0 dx=0 dy=0 dh=0 dv=0
PairPos2: "'kern' Horizontal Kerning lookup 10 per glyph data 4" jcircumflex dx=0 dy=0 dh=20 dv=0 dx=0 dy=0 dh=0 dv=0
PairPos2: "'kern' Horizontal Kerning lookup 10 per glyph data 4" j dx=0 dy=0 dh=20 dv=0 dx=0 dy=0 dh=0 dv=0
PairPos2: "'kern' Horizontal Kerning lookup 10 per glyph data 4" uni1FE9 dx=0 dy=0 dh=-80 dv=0 dx=0 dy=0 dh=0 dv=0
PairPos2: "'kern' Horizontal Kerning lookup 10 per glyph data 4" uni1FE8 dx=0 dy=0 dh=-80 dv=0 dx=0 dy=0 dh=0 dv=0
PairPos2: "'kern' Horizontal Kerning lookup 10 per glyph data 4" Upsilondieresis dx=0 dy=0 dh=-80 dv=0 dx=0 dy=0 dh=0 dv=0
PairPos2: "'kern' Horizontal Kerning lookup 10 per glyph data 4" Upsilon dx=0 dy=0 dh=-80 dv=0 dx=0 dy=0 dh=0 dv=0
PairPos2: "'kern' Horizontal Kerning lookup 10 per glyph data 4" uni0458 dx=0 dy=0 dh=20 dv=0 dx=0 dy=0 dh=0 dv=0
PairPos2: "'kern' Horizontal Kerning lookup 10 per glyph data 4" uni0474 dx=0 dy=0 dh=-60 dv=0 dx=0 dy=0 dh=0 dv=0
EndChar
StartChar: cent
Encoding: 162 162 1707
Width: 540
Flags: MW
HStem: -44 700<280 372 280 372>
VStem: 60 166<281.5 330.5 281.5 377> 280 92<-44 47 -44 47 199 413 413 413 567 656>
LayerCount: 2
Fore
SplineSet
226 306 m 0
 226 257 245 219 280 199 c 1
 280 413 l 1
 243 393 226 355 226 306 c 0
280 -44 m 1
 280 47 l 1
 146 66 60 158 60 306 c 0
 60 448 152 539 280 562 c 1
 280 656 l 1
 372 656 l 1
 372 567 l 1
 422 562 465 541 494 512 c 1
 416 406 l 1
 400 419 386 426 372 429 c 1
 372 184 l 1
 395 189 415 201 432 214 c 1
 500 106 l 1
 462 73 415 54 372 47 c 1
 372 -44 l 1
 280 -44 l 1
EndSplineSet
EndChar
StartChar: brokenbar
Encoding: 166 166 1184
Width: 278
Flags: MW
HStem: -250 1000<84 194 84 194>
VStem: 84 110<-250 200 -250 200 320 750>
LayerCount: 2
Fore
SplineSet
84 320 m 1
 84 750 l 1
 194 750 l 1
 194 320 l 1
 84 320 l 1
84 -250 m 1
 84 200 l 1
 194 200 l 1
 194 -250 l 1
 84 -250 l 1
EndSplineSet
EndChar
StartChar: section
Encoding: 167 167 1188
Width: 540
Flags: MW
HStem: -92 126<225 260 225 310.5> -2 21G<40 40> 566 126<267.5 297.5>
VStem: 34 144<305.5 341.5 305.5 343> 84 154<513 547 508 579> 292 154<56 89 27 98> 362 144<260 297>
LayerCount: 2
Fore
SplineSet
178 332 m 0x72
 178 279 263 259 337 221 c 1
 354 233 362 250 362 270 c 0
 362 324 279 344 203 380 c 1
 186 367 178 351 178 332 c 0x72
242 -92 m 0xb4
 168 -92 86 -64 40 -2 c 1x72
 138 84 l 1
 170 50 208 34 242 34 c 0
 278 34 292 46 292 66 c 0
 292 130 34 130 34 320 c 0xb4
 34 366 63 416 111 447 c 1
 94 469 84 496 84 530 c 0
 84 628 155 692 272 692 c 0
 354 692 420 657 462 624 c 1
 384 518 l 1
 353 545 313 566 282 566 c 0
 253 566 238 558 238 536 c 0
 238 480 506 464 506 284 c 0x6a
 506 228 478 183 425 149 c 1
 438 129 446 104 446 74 c 0
 446 -20 379 -92 242 -92 c 0xb4
EndSplineSet
EndChar
StartChar: copyright
Encoding: 169 169 1206
Width: 752
Flags: MW
HStem: -8 68<303 449 303 465> 128 98<369 409 369 414.5> 420 98<370.5 412> 588 68<303 449>
VStem: 44 76<246 406 246 430> 192 121<294 350 294 383> 632 76<246 406>
LayerCount: 2
Fore
SplineSet
376 -8 m 0
 198 -8 44 118 44 326 c 0
 44 534 198 656 376 656 c 0
 554 656 708 533 708 326 c 0
 708 118 554 -8 376 -8 c 0
376 60 m 0
 522 60 632 166 632 326 c 0
 632 486 522 588 376 588 c 0
 230 588 120 486 120 326 c 0
 120 166 230 60 376 60 c 0
390 128 m 0
 274 128 192 204 192 324 c 0
 192 442 286 518 388 518 c 0
 452 518 492 490 524 458 c 1
 461 388 l 1
 442 408 424 420 400 420 c 0
 341 420 313 376 313 324 c 0
 313 264 344 226 394 226 c 0
 424 226 442 238 466 256 c 1
 520 178 l 1
 482 148 439 128 390 128 c 0
EndSplineSet
EndChar
StartChar: logicalnot
Encoding: 172 172 1763
Width: 540
Flags: MW
HStem: 270 120<34 382 34 506>
VStem: 382 124<90 270 270 270>
LayerCount: 2
Fore
SplineSet
382 90 m 1
 382 270 l 1
 34 270 l 1
 34 390 l 1
 506 390 l 1
 506 90 l 1
 382 90 l 1
EndSplineSet
EndChar
StartChar: macron
Encoding: 175 175 1815
Width: 560
Flags: MW
HStem: 588 108<126 434 126 434>
VStem: 126 308<588 696 588 696>
LayerCount: 2
Fore
SplineSet
126 588 m 1
 126 696 l 1
 434 696 l 1
 434 588 l 1
 126 588 l 1
EndSplineSet
EndChar
StartChar: plusminus
Encoding: 177 177 1758
Width: 540
Flags: MW
HStem: 0 120<34 506 34 506> 290 120<34 208 34 208 332 506>
VStem: 208 124<170 290 170 290 410 570>
LayerCount: 2
Fore
SplineSet
208 170 m 1
 208 290 l 1
 34 290 l 1
 34 410 l 1
 208 410 l 1
 208 570 l 1
 332 570 l 1
 332 410 l 1
 506 410 l 1
 506 290 l 1
 332 290 l 1
 332 170 l 1
 208 170 l 1
34 0 m 1
 34 120 l 1
 506 120 l 1
 506 0 l 1
 34 0 l 1
EndSplineSet
EndChar
StartChar: acute
Encoding: 180 180 1805
Width: 560
Flags: MW
HStem: 572 272<300 374>
VStem: 216 274<656 730>
LayerCount: 2
Fore
SplineSet
300 572 m 1
 216 656 l 1
 374 844 l 1
 490 730 l 1
 300 572 l 1
EndSplineSet
EndChar
StartChar: paragraph
Encoding: 182 182 1189
Width: 666
Flags: MW
HStem: 630 20G<298 342 342 342 398 570 570 570>
VStem: 38 304<346.5 510> 398 172<-80 650 -80 650>
LayerCount: 2
Fore
SplineSet
398 -80 m 1
 398 650 l 1
 570 650 l 1
 570 -80 l 1
 398 -80 l 1
298 186 m 2
 158 186 38 269 38 424 c 0
 38 596 158 650 298 650 c 2
 342 650 l 1
 342 186 l 1
 298 186 l 2
EndSplineSet
EndChar
StartChar: periodcentered
Encoding: 183 183 1170
Width: 320
Flags: MW
HStem: 216 208<131 189>
VStem: 60 200<291 349>
LayerCount: 2
Fore
SplineSet
160 216 m 0
 102 216 60 262 60 320 c 0
 60 378 102 424 160 424 c 0
 218 424 260 378 260 320 c 0
 260 262 218 216 160 216 c 0
EndSplineSet
PairPos2: "'kern' Horizontal Kerning lookup 10 per glyph data 4" uni1E94 dx=0 dy=0 dh=-30 dv=0 dx=0 dy=0 dh=0 dv=0
PairPos2: "'kern' Horizontal Kerning lookup 10 per glyph data 4" uni1E92 dx=0 dy=0 dh=-30 dv=0 dx=0 dy=0 dh=0 dv=0
PairPos2: "'kern' Horizontal Kerning lookup 10 per glyph data 4" Zdotaccent dx=0 dy=0 dh=-30 dv=0 dx=0 dy=0 dh=0 dv=0
PairPos2: "'kern' Horizontal Kerning lookup 10 per glyph data 4" Zcaron dx=0 dy=0 dh=-30 dv=0 dx=0 dy=0 dh=0 dv=0
PairPos2: "'kern' Horizontal Kerning lookup 10 per glyph data 4" Zacute dx=0 dy=0 dh=-30 dv=0 dx=0 dy=0 dh=0 dv=0
PairPos2: "'kern' Horizontal Kerning lookup 10 per glyph data 4" Z dx=0 dy=0 dh=-30 dv=0 dx=0 dy=0 dh=0 dv=0
PairPos2: "'kern' Horizontal Kerning lookup 10 per glyph data 4" X dx=0 dy=0 dh=-40 dv=0 dx=0 dy=0 dh=0 dv=0
PairPos2: "'kern' Horizontal Kerning lookup 10 per glyph data 4" x dx=0 dy=0 dh=-20 dv=0 dx=0 dy=0 dh=0 dv=0
PairPos2: "'kern' Horizontal Kerning lookup 10 per glyph data 4" uni1E62 dx=0 dy=0 dh=-30 dv=0 dx=0 dy=0 dh=0 dv=0
PairPos2: "'kern' Horizontal Kerning lookup 10 per glyph data 4" uni1E60 dx=0 dy=0 dh=-30 dv=0 dx=0 dy=0 dh=0 dv=0
PairPos2: "'kern' Horizontal Kerning lookup 10 per glyph data 4" uni0218 dx=0 dy=0 dh=-30 dv=0 dx=0 dy=0 dh=0 dv=0
PairPos2: "'kern' Horizontal Kerning lookup 10 per glyph data 4" uni015E dx=0 dy=0 dh=-30 dv=0 dx=0 dy=0 dh=0 dv=0
PairPos2: "'kern' Horizontal Kerning lookup 10 per glyph data 4" Scaron dx=0 dy=0 dh=-30 dv=0 dx=0 dy=0 dh=0 dv=0
PairPos2: "'kern' Horizontal Kerning lookup 10 per glyph data 4" Scircumflex dx=0 dy=0 dh=-30 dv=0 dx=0 dy=0 dh=0 dv=0
PairPos2: "'kern' Horizontal Kerning lookup 10 per glyph data 4" Sacute dx=0 dy=0 dh=-30 dv=0 dx=0 dy=0 dh=0 dv=0
PairPos2: "'kern' Horizontal Kerning lookup 10 per glyph data 4" S dx=0 dy=0 dh=-30 dv=0 dx=0 dy=0 dh=0 dv=0
PairPos2: "'kern' Horizontal Kerning lookup 10 per glyph data 4" Aogonek dx=0 dy=0 dh=-30 dv=0 dx=0 dy=0 dh=0 dv=0
PairPos2: "'kern' Horizontal Kerning lookup 10 per glyph data 4" uni1EB6 dx=0 dy=0 dh=-30 dv=0 dx=0 dy=0 dh=0 dv=0
PairPos2: "'kern' Horizontal Kerning lookup 10 per glyph data 4" uni1EB4 dx=0 dy=0 dh=-30 dv=0 dx=0 dy=0 dh=0 dv=0
PairPos2: "'kern' Horizontal Kerning lookup 10 per glyph data 4" uni1EB2 dx=0 dy=0 dh=-30 dv=0 dx=0 dy=0 dh=0 dv=0
PairPos2: "'kern' Horizontal Kerning lookup 10 per glyph data 4" uni1EB0 dx=0 dy=0 dh=-30 dv=0 dx=0 dy=0 dh=0 dv=0
PairPos2: "'kern' Horizontal Kerning lookup 10 per glyph data 4" uni1EAE dx=0 dy=0 dh=-30 dv=0 dx=0 dy=0 dh=0 dv=0
PairPos2: "'kern' Horizontal Kerning lookup 10 per glyph data 4" uni1EAC dx=0 dy=0 dh=-30 dv=0 dx=0 dy=0 dh=0 dv=0
PairPos2: "'kern' Horizontal Kerning lookup 10 per glyph data 4" uni1EAA dx=0 dy=0 dh=-30 dv=0 dx=0 dy=0 dh=0 dv=0
PairPos2: "'kern' Horizontal Kerning lookup 10 per glyph data 4" uni1EA8 dx=0 dy=0 dh=-30 dv=0 dx=0 dy=0 dh=0 dv=0
PairPos2: "'kern' Horizontal Kerning lookup 10 per glyph data 4" uni1EA6 dx=0 dy=0 dh=-30 dv=0 dx=0 dy=0 dh=0 dv=0
PairPos2: "'kern' Horizontal Kerning lookup 10 per glyph data 4" uni1EA4 dx=0 dy=0 dh=-30 dv=0 dx=0 dy=0 dh=0 dv=0
PairPos2: "'kern' Horizontal Kerning lookup 10 per glyph data 4" uni1EA2 dx=0 dy=0 dh=-30 dv=0 dx=0 dy=0 dh=0 dv=0
PairPos2: "'kern' Horizontal Kerning lookup 10 per glyph data 4" uni1EA0 dx=0 dy=0 dh=-30 dv=0 dx=0 dy=0 dh=0 dv=0
PairPos2: "'kern' Horizontal Kerning lookup 10 per glyph data 4" uni01CD dx=0 dy=0 dh=-30 dv=0 dx=0 dy=0 dh=0 dv=0
PairPos2: "'kern' Horizontal Kerning lookup 10 per glyph data 4" Aring dx=0 dy=0 dh=-30 dv=0 dx=0 dy=0 dh=0 dv=0
PairPos2: "'kern' Horizontal Kerning lookup 10 per glyph data 4" Abreve dx=0 dy=0 dh=-30 dv=0 dx=0 dy=0 dh=0 dv=0
PairPos2: "'kern' Horizontal Kerning lookup 10 per glyph data 4" Amacron dx=0 dy=0 dh=-30 dv=0 dx=0 dy=0 dh=0 dv=0
PairPos2: "'kern' Horizontal Kerning lookup 10 per glyph data 4" Adieresis dx=0 dy=0 dh=-30 dv=0 dx=0 dy=0 dh=0 dv=0
PairPos2: "'kern' Horizontal Kerning lookup 10 per glyph data 4" Atilde dx=0 dy=0 dh=-30 dv=0 dx=0 dy=0 dh=0 dv=0
PairPos2: "'kern' Horizontal Kerning lookup 10 per glyph data 4" Acircumflex dx=0 dy=0 dh=-30 dv=0 dx=0 dy=0 dh=0 dv=0
PairPos2: "'kern' Horizontal Kerning lookup 10 per glyph data 4" Aacute dx=0 dy=0 dh=-30 dv=0 dx=0 dy=0 dh=0 dv=0
PairPos2: "'kern' Horizontal Kerning lookup 10 per glyph data 4" Agrave dx=0 dy=0 dh=-30 dv=0 dx=0 dy=0 dh=0 dv=0
PairPos2: "'kern' Horizontal Kerning lookup 10 per glyph data 4" A dx=0 dy=0 dh=-30 dv=0 dx=0 dy=0 dh=0 dv=0
PairPos2: "'kern' Horizontal Kerning lookup 10 per glyph data 4" Zeta dx=0 dy=0 dh=-30 dv=0 dx=0 dy=0 dh=0 dv=0
PairPos2: "'kern' Horizontal Kerning lookup 10 per glyph data 4" Xi dx=0 dy=0 dh=-40 dv=0 dx=0 dy=0 dh=0 dv=0
PairPos2: "'kern' Horizontal Kerning lookup 10 per glyph data 4" Sigma dx=0 dy=0 dh=-60 dv=0 dx=0 dy=0 dh=0 dv=0
PairPos2: "'kern' Horizontal Kerning lookup 10 per glyph data 4" Psi dx=0 dy=0 dh=-10 dv=0 dx=0 dy=0 dh=0 dv=0
PairPos2: "'kern' Horizontal Kerning lookup 10 per glyph data 4" lambda dx=0 dy=0 dh=-20 dv=0 dx=0 dy=0 dh=0 dv=0
PairPos2: "'kern' Horizontal Kerning lookup 10 per glyph data 4" uni2206 dx=0 dy=0 dh=-40 dv=0 dx=0 dy=0 dh=0 dv=0
PairPos2: "'kern' Horizontal Kerning lookup 10 per glyph data 4" uni0394 dx=0 dy=0 dh=-40 dv=0 dx=0 dy=0 dh=0 dv=0
PairPos2: "'kern' Horizontal Kerning lookup 10 per glyph data 4" Chi dx=0 dy=0 dh=-40 dv=0 dx=0 dy=0 dh=0 dv=0
PairPos2: "'kern' Horizontal Kerning lookup 10 per glyph data 4" chi dx=0 dy=0 dh=-20 dv=0 dx=0 dy=0 dh=0 dv=0
PairPos2: "'kern' Horizontal Kerning lookup 10 per glyph data 4" uni1FBC dx=0 dy=0 dh=-30 dv=0 dx=0 dy=0 dh=0 dv=0
PairPos2: "'kern' Horizontal Kerning lookup 10 per glyph data 4" uni1FB9 dx=0 dy=0 dh=-30 dv=0 dx=0 dy=0 dh=0 dv=0
PairPos2: "'kern' Horizontal Kerning lookup 10 per glyph data 4" uni1FB8 dx=0 dy=0 dh=-30 dv=0 dx=0 dy=0 dh=0 dv=0
PairPos2: "'kern' Horizontal Kerning lookup 10 per glyph data 4" Lambda dx=0 dy=0 dh=-30 dv=0 dx=0 dy=0 dh=0 dv=0
PairPos2: "'kern' Horizontal Kerning lookup 10 per glyph data 4" Alpha dx=0 dy=0 dh=-30 dv=0 dx=0 dy=0 dh=0 dv=0
PairPos2: "'kern' Horizontal Kerning lookup 10 per glyph data 4" Alphaiotasub.sc dx=0 dy=0 dh=-10 dv=0 dx=0 dy=0 dh=0 dv=0
PairPos2: "'kern' Horizontal Kerning lookup 10 per glyph data 4" Lambda.sc dx=0 dy=0 dh=-10 dv=0 dx=0 dy=0 dh=0 dv=0
PairPos2: "'kern' Horizontal Kerning lookup 10 per glyph data 4" Alpha.sc dx=0 dy=0 dh=-10 dv=0 dx=0 dy=0 dh=0 dv=0
PairPos2: "'kern' Horizontal Kerning lookup 10 per glyph data 4" uni04C1 dx=0 dy=0 dh=-30 dv=0 dx=0 dy=0 dh=0 dv=0
PairPos2: "'kern' Horizontal Kerning lookup 10 per glyph data 4" uni0496 dx=0 dy=0 dh=-30 dv=0 dx=0 dy=0 dh=0 dv=0
PairPos2: "'kern' Horizontal Kerning lookup 10 per glyph data 4" uni0416 dx=0 dy=0 dh=-30 dv=0 dx=0 dy=0 dh=0 dv=0
PairPos2: "'kern' Horizontal Kerning lookup 10 per glyph data 4" uni0462 dx=0 dy=0 dh=-30 dv=0 dx=0 dy=0 dh=0 dv=0
PairPos2: "'kern' Horizontal Kerning lookup 10 per glyph data 4" uni04B2 dx=0 dy=0 dh=-40 dv=0 dx=0 dy=0 dh=0 dv=0
PairPos2: "'kern' Horizontal Kerning lookup 10 per glyph data 4" uni0425 dx=0 dy=0 dh=-40 dv=0 dx=0 dy=0 dh=0 dv=0
PairPos2: "'kern' Horizontal Kerning lookup 10 per glyph data 4" uni04B3 dx=0 dy=0 dh=-20 dv=0 dx=0 dy=0 dh=0 dv=0
PairPos2: "'kern' Horizontal Kerning lookup 10 per glyph data 4" uni0445 dx=0 dy=0 dh=-20 dv=0 dx=0 dy=0 dh=0 dv=0
PairPos2: "'kern' Horizontal Kerning lookup 10 per glyph data 4" uni0405 dx=0 dy=0 dh=-30 dv=0 dx=0 dy=0 dh=0 dv=0
PairPos2: "'kern' Horizontal Kerning lookup 10 per glyph data 4" uni04D0 dx=0 dy=0 dh=-30 dv=0 dx=0 dy=0 dh=0 dv=0
PairPos2: "'kern' Horizontal Kerning lookup 10 per glyph data 4" uni0410 dx=0 dy=0 dh=-30 dv=0 dx=0 dy=0 dh=0 dv=0
PairPos2: "'kern' Horizontal Kerning lookup 10 per glyph data 4" X.sc dx=0 dy=0 dh=-20 dv=0 dx=0 dy=0 dh=0 dv=0
PairPos2: "'kern' Horizontal Kerning lookup 10 per glyph data 4" Zeta.sc dx=0 dy=0 dh=-20 dv=0 dx=0 dy=0 dh=0 dv=0
PairPos2: "'kern' Horizontal Kerning lookup 10 per glyph data 4" Chi.sc dx=0 dy=0 dh=-20 dv=0 dx=0 dy=0 dh=0 dv=0
PairPos2: "'kern' Horizontal Kerning lookup 10 per glyph data 4" uni0408.sc dx=0 dy=0 dh=-40 dv=0 dx=0 dy=0 dh=0 dv=0
PairPos2: "'kern' Horizontal Kerning lookup 10 per glyph data 4" uni04B2.sc dx=0 dy=0 dh=-20 dv=0 dx=0 dy=0 dh=0 dv=0
PairPos2: "'kern' Horizontal Kerning lookup 10 per glyph data 4" uni0425.sc dx=0 dy=0 dh=-20 dv=0 dx=0 dy=0 dh=0 dv=0
PairPos2: "'kern' Horizontal Kerning lookup 10 per glyph data 4" uni0405.sc dx=0 dy=0 dh=-10 dv=0 dx=0 dy=0 dh=0 dv=0
PairPos2: "'kern' Horizontal Kerning lookup 10 per glyph data 4" uni1EF8 dx=0 dy=0 dh=-100 dv=0 dx=0 dy=0 dh=0 dv=0
PairPos2: "'kern' Horizontal Kerning lookup 10 per glyph data 4" uni1EF6 dx=0 dy=0 dh=-100 dv=0 dx=0 dy=0 dh=0 dv=0
PairPos2: "'kern' Horizontal Kerning lookup 10 per glyph data 4" uni1EF4 dx=0 dy=0 dh=-100 dv=0 dx=0 dy=0 dh=0 dv=0
PairPos2: "'kern' Horizontal Kerning lookup 10 per glyph data 4" uni1E8E dx=0 dy=0 dh=-100 dv=0 dx=0 dy=0 dh=0 dv=0
PairPos2: "'kern' Horizontal Kerning lookup 10 per glyph data 4" Ydieresis dx=0 dy=0 dh=-100 dv=0 dx=0 dy=0 dh=0 dv=0
PairPos2: "'kern' Horizontal Kerning lookup 10 per glyph data 4" Ycircumflex dx=0 dy=0 dh=-100 dv=0 dx=0 dy=0 dh=0 dv=0
PairPos2: "'kern' Horizontal Kerning lookup 10 per glyph data 4" Yacute dx=0 dy=0 dh=-100 dv=0 dx=0 dy=0 dh=0 dv=0
PairPos2: "'kern' Horizontal Kerning lookup 10 per glyph data 4" Ygrave dx=0 dy=0 dh=-100 dv=0 dx=0 dy=0 dh=0 dv=0
PairPos2: "'kern' Horizontal Kerning lookup 10 per glyph data 4" Y dx=0 dy=0 dh=-100 dv=0 dx=0 dy=0 dh=0 dv=0
PairPos2: "'kern' Horizontal Kerning lookup 10 per glyph data 4" V dx=0 dy=0 dh=-40 dv=0 dx=0 dy=0 dh=0 dv=0
PairPos2: "'kern' Horizontal Kerning lookup 10 per glyph data 4" uni0166 dx=0 dy=0 dh=-70 dv=0 dx=0 dy=0 dh=0 dv=0
PairPos2: "'kern' Horizontal Kerning lookup 10 per glyph data 4" uni1E6E dx=0 dy=0 dh=-70 dv=0 dx=0 dy=0 dh=0 dv=0
PairPos2: "'kern' Horizontal Kerning lookup 10 per glyph data 4" uni1E6C dx=0 dy=0 dh=-70 dv=0 dx=0 dy=0 dh=0 dv=0
PairPos2: "'kern' Horizontal Kerning lookup 10 per glyph data 4" uni021A dx=0 dy=0 dh=-70 dv=0 dx=0 dy=0 dh=0 dv=0
PairPos2: "'kern' Horizontal Kerning lookup 10 per glyph data 4" uni0162 dx=0 dy=0 dh=-70 dv=0 dx=0 dy=0 dh=0 dv=0
PairPos2: "'kern' Horizontal Kerning lookup 10 per glyph data 4" Tcaron dx=0 dy=0 dh=-70 dv=0 dx=0 dy=0 dh=0 dv=0
PairPos2: "'kern' Horizontal Kerning lookup 10 per glyph data 4" T dx=0 dy=0 dh=-70 dv=0 dx=0 dy=0 dh=0 dv=0
PairPos2: "'kern' Horizontal Kerning lookup 10 per glyph data 4" uni1FE9 dx=0 dy=0 dh=-100 dv=0 dx=0 dy=0 dh=0 dv=0
PairPos2: "'kern' Horizontal Kerning lookup 10 per glyph data 4" uni1FE8 dx=0 dy=0 dh=-100 dv=0 dx=0 dy=0 dh=0 dv=0
PairPos2: "'kern' Horizontal Kerning lookup 10 per glyph data 4" Upsilondieresis dx=0 dy=0 dh=-100 dv=0 dx=0 dy=0 dh=0 dv=0
PairPos2: "'kern' Horizontal Kerning lookup 10 per glyph data 4" Upsilon dx=0 dy=0 dh=-100 dv=0 dx=0 dy=0 dh=0 dv=0
PairPos2: "'kern' Horizontal Kerning lookup 10 per glyph data 4" Tau dx=0 dy=0 dh=-70 dv=0 dx=0 dy=0 dh=0 dv=0
PairPos2: "'kern' Horizontal Kerning lookup 10 per glyph data 4" uni04A0 dx=0 dy=0 dh=-70 dv=0 dx=0 dy=0 dh=0 dv=0
PairPos2: "'kern' Horizontal Kerning lookup 10 per glyph data 4" uni040B dx=0 dy=0 dh=-70 dv=0 dx=0 dy=0 dh=0 dv=0
PairPos2: "'kern' Horizontal Kerning lookup 10 per glyph data 4" uni0402 dx=0 dy=0 dh=-70 dv=0 dx=0 dy=0 dh=0 dv=0
PairPos2: "'kern' Horizontal Kerning lookup 10 per glyph data 4" uni042A dx=0 dy=0 dh=-70 dv=0 dx=0 dy=0 dh=0 dv=0
PairPos2: "'kern' Horizontal Kerning lookup 10 per glyph data 4" uni0422 dx=0 dy=0 dh=-70 dv=0 dx=0 dy=0 dh=0 dv=0
PairPos2: "'kern' Horizontal Kerning lookup 10 per glyph data 4" uni0474 dx=0 dy=0 dh=-40 dv=0 dx=0 dy=0 dh=0 dv=0
PairPos2: "'kern' Horizontal Kerning lookup 10 per glyph data 4" uni1E94.sc dx=0 dy=0 dh=-20 dv=0 dx=0 dy=0 dh=0 dv=0
PairPos2: "'kern' Horizontal Kerning lookup 10 per glyph data 4" uni1E92.sc dx=0 dy=0 dh=-20 dv=0 dx=0 dy=0 dh=0 dv=0
PairPos2: "'kern' Horizontal Kerning lookup 10 per glyph data 4" Zdotaccent.sc dx=0 dy=0 dh=-20 dv=0 dx=0 dy=0 dh=0 dv=0
PairPos2: "'kern' Horizontal Kerning lookup 10 per glyph data 4" Zcaron.sc dx=0 dy=0 dh=-20 dv=0 dx=0 dy=0 dh=0 dv=0
PairPos2: "'kern' Horizontal Kerning lookup 10 per glyph data 4" Zacute.sc dx=0 dy=0 dh=-20 dv=0 dx=0 dy=0 dh=0 dv=0
PairPos2: "'kern' Horizontal Kerning lookup 10 per glyph data 4" Z.sc dx=0 dy=0 dh=-20 dv=0 dx=0 dy=0 dh=0 dv=0
PairPos2: "'kern' Horizontal Kerning lookup 10 per glyph data 4" germandbls.sc dx=0 dy=0 dh=-10 dv=0 dx=0 dy=0 dh=0 dv=0
PairPos2: "'kern' Horizontal Kerning lookup 10 per glyph data 4" uni1E62.sc dx=0 dy=0 dh=-10 dv=0 dx=0 dy=0 dh=0 dv=0
PairPos2: "'kern' Horizontal Kerning lookup 10 per glyph data 4" uni1E60.sc dx=0 dy=0 dh=-10 dv=0 dx=0 dy=0 dh=0 dv=0
PairPos2: "'kern' Horizontal Kerning lookup 10 per glyph data 4" uni0218.sc dx=0 dy=0 dh=-10 dv=0 dx=0 dy=0 dh=0 dv=0
PairPos2: "'kern' Horizontal Kerning lookup 10 per glyph data 4" uni015E.sc dx=0 dy=0 dh=-10 dv=0 dx=0 dy=0 dh=0 dv=0
PairPos2: "'kern' Horizontal Kerning lookup 10 per glyph data 4" Scaron.sc dx=0 dy=0 dh=-10 dv=0 dx=0 dy=0 dh=0 dv=0
PairPos2: "'kern' Horizontal Kerning lookup 10 per glyph data 4" Scircumflex.sc dx=0 dy=0 dh=-10 dv=0 dx=0 dy=0 dh=0 dv=0
PairPos2: "'kern' Horizontal Kerning lookup 10 per glyph data 4" Sacute.sc dx=0 dy=0 dh=-10 dv=0 dx=0 dy=0 dh=0 dv=0
PairPos2: "'kern' Horizontal Kerning lookup 10 per glyph data 4" S.sc dx=0 dy=0 dh=-10 dv=0 dx=0 dy=0 dh=0 dv=0
PairPos2: "'kern' Horizontal Kerning lookup 10 per glyph data 4" Jcircumflex.sc dx=0 dy=0 dh=-40 dv=0 dx=0 dy=0 dh=0 dv=0
PairPos2: "'kern' Horizontal Kerning lookup 10 per glyph data 4" J.sc dx=0 dy=0 dh=-40 dv=0 dx=0 dy=0 dh=0 dv=0
PairPos2: "'kern' Horizontal Kerning lookup 10 per glyph data 4" Aogonek.sc dx=0 dy=0 dh=-10 dv=0 dx=0 dy=0 dh=0 dv=0
PairPos2: "'kern' Horizontal Kerning lookup 10 per glyph data 4" uni1EB6.sc dx=0 dy=0 dh=-10 dv=0 dx=0 dy=0 dh=0 dv=0
PairPos2: "'kern' Horizontal Kerning lookup 10 per glyph data 4" uni1EB4.sc dx=0 dy=0 dh=-10 dv=0 dx=0 dy=0 dh=0 dv=0
PairPos2: "'kern' Horizontal Kerning lookup 10 per glyph data 4" uni1EB2.sc dx=0 dy=0 dh=-10 dv=0 dx=0 dy=0 dh=0 dv=0
PairPos2: "'kern' Horizontal Kerning lookup 10 per glyph data 4" uni1EB0.sc dx=0 dy=0 dh=-10 dv=0 dx=0 dy=0 dh=0 dv=0
PairPos2: "'kern' Horizontal Kerning lookup 10 per glyph data 4" uni1EAE.sc dx=0 dy=0 dh=-10 dv=0 dx=0 dy=0 dh=0 dv=0
PairPos2: "'kern' Horizontal Kerning lookup 10 per glyph data 4" uni1EAC.sc dx=0 dy=0 dh=-10 dv=0 dx=0 dy=0 dh=0 dv=0
PairPos2: "'kern' Horizontal Kerning lookup 10 per glyph data 4" uni1EAA.sc dx=0 dy=0 dh=-10 dv=0 dx=0 dy=0 dh=0 dv=0
PairPos2: "'kern' Horizontal Kerning lookup 10 per glyph data 4" uni1EA8.sc dx=0 dy=0 dh=-10 dv=0 dx=0 dy=0 dh=0 dv=0
PairPos2: "'kern' Horizontal Kerning lookup 10 per glyph data 4" uni1EA6.sc dx=0 dy=0 dh=-10 dv=0 dx=0 dy=0 dh=0 dv=0
PairPos2: "'kern' Horizontal Kerning lookup 10 per glyph data 4" uni1EA4.sc dx=0 dy=0 dh=-10 dv=0 dx=0 dy=0 dh=0 dv=0
PairPos2: "'kern' Horizontal Kerning lookup 10 per glyph data 4" uni1EA2.sc dx=0 dy=0 dh=-10 dv=0 dx=0 dy=0 dh=0 dv=0
PairPos2: "'kern' Horizontal Kerning lookup 10 per glyph data 4" uni1EA0.sc dx=0 dy=0 dh=-10 dv=0 dx=0 dy=0 dh=0 dv=0
PairPos2: "'kern' Horizontal Kerning lookup 10 per glyph data 4" uni01CD.sc dx=0 dy=0 dh=-10 dv=0 dx=0 dy=0 dh=0 dv=0
PairPos2: "'kern' Horizontal Kerning lookup 10 per glyph data 4" Aring.sc dx=0 dy=0 dh=-10 dv=0 dx=0 dy=0 dh=0 dv=0
PairPos2: "'kern' Horizontal Kerning lookup 10 per glyph data 4" Abreve.sc dx=0 dy=0 dh=-10 dv=0 dx=0 dy=0 dh=0 dv=0
PairPos2: "'kern' Horizontal Kerning lookup 10 per glyph data 4" Amacron.sc dx=0 dy=0 dh=-10 dv=0 dx=0 dy=0 dh=0 dv=0
PairPos2: "'kern' Horizontal Kerning lookup 10 per glyph data 4" Adieresis.sc dx=0 dy=0 dh=-10 dv=0 dx=0 dy=0 dh=0 dv=0
PairPos2: "'kern' Horizontal Kerning lookup 10 per glyph data 4" Atilde.sc dx=0 dy=0 dh=-10 dv=0 dx=0 dy=0 dh=0 dv=0
PairPos2: "'kern' Horizontal Kerning lookup 10 per glyph data 4" Acircumflex.sc dx=0 dy=0 dh=-10 dv=0 dx=0 dy=0 dh=0 dv=0
PairPos2: "'kern' Horizontal Kerning lookup 10 per glyph data 4" Aacute.sc dx=0 dy=0 dh=-10 dv=0 dx=0 dy=0 dh=0 dv=0
PairPos2: "'kern' Horizontal Kerning lookup 10 per glyph data 4" Agrave.sc dx=0 dy=0 dh=-10 dv=0 dx=0 dy=0 dh=0 dv=0
PairPos2: "'kern' Horizontal Kerning lookup 10 per glyph data 4" A.sc dx=0 dy=0 dh=-10 dv=0 dx=0 dy=0 dh=0 dv=0
PairPos2: "'kern' Horizontal Kerning lookup 10 per glyph data 4" uni04F2.sc dx=0 dy=0 dh=-20 dv=0 dx=0 dy=0 dh=0 dv=0
PairPos2: "'kern' Horizontal Kerning lookup 10 per glyph data 4" uni04EE.sc dx=0 dy=0 dh=-20 dv=0 dx=0 dy=0 dh=0 dv=0
PairPos2: "'kern' Horizontal Kerning lookup 10 per glyph data 4" uni040E.sc dx=0 dy=0 dh=-20 dv=0 dx=0 dy=0 dh=0 dv=0
PairPos2: "'kern' Horizontal Kerning lookup 10 per glyph data 4" uni0423.sc dx=0 dy=0 dh=-20 dv=0 dx=0 dy=0 dh=0 dv=0
PairPos2: "'kern' Horizontal Kerning lookup 10 per glyph data 4" uni04D0.sc dx=0 dy=0 dh=-10 dv=0 dx=0 dy=0 dh=0 dv=0
PairPos2: "'kern' Horizontal Kerning lookup 10 per glyph data 4" uni0410.sc dx=0 dy=0 dh=-10 dv=0 dx=0 dy=0 dh=0 dv=0
PairPos2: "'kern' Horizontal Kerning lookup 10 per glyph data 4" uni04C1.sc dx=0 dy=0 dh=-10 dv=0 dx=0 dy=0 dh=0 dv=0
PairPos2: "'kern' Horizontal Kerning lookup 10 per glyph data 4" uni0496.sc dx=0 dy=0 dh=-10 dv=0 dx=0 dy=0 dh=0 dv=0
PairPos2: "'kern' Horizontal Kerning lookup 10 per glyph data 4" uni0416.sc dx=0 dy=0 dh=-10 dv=0 dx=0 dy=0 dh=0 dv=0
PairPos2: "'kern' Horizontal Kerning lookup 10 per glyph data 4" uni04F2 dx=0 dy=0 dh=-30 dv=0 dx=0 dy=0 dh=0 dv=0
PairPos2: "'kern' Horizontal Kerning lookup 10 per glyph data 4" uni04EE dx=0 dy=0 dh=-30 dv=0 dx=0 dy=0 dh=0 dv=0
PairPos2: "'kern' Horizontal Kerning lookup 10 per glyph data 4" uni040E dx=0 dy=0 dh=-30 dv=0 dx=0 dy=0 dh=0 dv=0
PairPos2: "'kern' Horizontal Kerning lookup 10 per glyph data 4" uni0423 dx=0 dy=0 dh=-30 dv=0 dx=0 dy=0 dh=0 dv=0
PairPos2: "'kern' Horizontal Kerning lookup 10 per glyph data 4" uni0414 dx=0 dy=0 dh=-10 dv=0 dx=0 dy=0 dh=0 dv=0
PairPos2: "'kern' Horizontal Kerning lookup 10 per glyph data 4" uni0414.sc dx=0 dy=0 dh=-10 dv=0 dx=0 dy=0 dh=0 dv=0
PairPos2: "'kern' Horizontal Kerning lookup 10 per glyph data 4" uni04B6 dx=0 dy=0 dh=-20 dv=0 dx=0 dy=0 dh=0 dv=0
PairPos2: "'kern' Horizontal Kerning lookup 10 per glyph data 4" uni0427 dx=0 dy=0 dh=-20 dv=0 dx=0 dy=0 dh=0 dv=0
EndChar
StartChar: cedilla
Encoding: 184 184 1820
Width: 560
Flags: MW
HStem: -244 66<160 172> -60 64<304 304>
VStem: 260 122<-150 -127>
LayerCount: 2
Fore
SplineSet
172 -244 m 1
 160 -178 l 1
 236 -174 260 -164 260 -136 c 0
 260 -118 246 -104 184 -96 c 1
 234 4 l 1
 332 4 l 1
 304 -60 l 1
 356 -72 382 -94 382 -136 c 0
 382 -208 304 -240 172 -244 c 1
EndSplineSet
EndChar
StartChar: onequarter
Encoding: 188 188 1729
Width: 820
Flags: MW
HStem: -12 21G<188 188 188 284> 0 160<584 652 584 762> 80 80<584 652 584 652 762 820> 310 80<654 658 654 654> 530 120<40 256 40 256>
VStem: 130 126<260 530 530 530> 652 110<0 80 0 80 160 190 190 190>
LayerCount: 2
Fore
SplineSet
130 260 m 1x5e
 130 530 l 1
 40 530 l 1
 40 606 l 1
 98 614 122 626 158 650 c 1
 256 650 l 1
 256 260 l 1
 130 260 l 1x5e
188 -12 m 1x9e
 536 662 l 1
 632 662 l 1
 284 -12 l 1
 188 -12 l 1x9e
652 0 m 1x5e
 652 80 l 1
 472 80 l 1
 472 142 l 1x3e
 604 390 l 1
 762 390 l 1
 762 160 l 1
 820 160 l 1x5e
 820 80 l 1
 762 80 l 1x3e
 762 0 l 1
 652 0 l 1x5e
584 160 m 1x5e
 652 160 l 1
 652 190 l 1
 658 310 l 1
 654 310 l 1
 618 234 l 1
 584 160 l 1x5e
EndSplineSet
EndChar
StartChar: threequarters
Encoding: 190 190 1731
Width: 826
Flags: MW
HStem: -12 21G<204 204 204 300> 0 160<590 658 590 768> 80 80<590 658 590 658 768 826> 248 94<155 183.5 155 225> 310 80<660 664 660 660> 424 70<136 156.5 136 164.5> 568 94<154 176>
VStem: 204 122<532 545> 218 122<368 392 334 395> 658 110<0 80 0 80 160 190 190 190>
LayerCount: 2
Fore
SplineSet
184 248 m 0x56c0
 114 248 56 274 20 328 c 1
 94 386 l 1
 118 354 140 342 170 342 c 0
 197 342 218 356 218 380 c 0x56c0
 218 410 193 424 136 424 c 1
 136 494 l 1
 177 494 204 504 204 534 c 0
 204 556 188 568 164 568 c 0
 140 568 122 552 106 532 c 1
 36 594 l 1
 82 642 122 662 186 662 c 0
 260 662 326 620 326 552 c 0x5740
 326 512 308 486 274 464 c 1
 312 446 340 414 340 370 c 0
 340 298 266 248 184 248 c 0x56c0
204 -12 m 1x96c0
 552 662 l 1
 648 662 l 1
 300 -12 l 1
 204 -12 l 1x96c0
658 0 m 1x56c0
 658 80 l 1
 478 80 l 1
 478 142 l 1x36c0
 610 390 l 1
 768 390 l 1
 768 160 l 1
 826 160 l 1x4ec0
 826 80 l 1
 768 80 l 1x36c0
 768 0 l 1
 658 0 l 1x56c0
590 160 m 1x4ec0
 658 160 l 1
 658 190 l 1
 664 310 l 1
 660 310 l 1
 624 234 l 1
 590 160 l 1x4ec0
EndSplineSet
EndChar
StartChar: Agrave
Encoding: 192 192 54
Width: 584
Flags: MW
HStem: 0 21G<-10 -10 -10 166 412 412 412 594> 138 133<229 349 229 380 198 349> 522 128<286 290 286 286>
VStem: -10 604<0 0>
LayerCount: 2
Fore
SplineSet
240 316 m 2
 229 271 l 1
 349 271 l 1
 338 316 l 2
 322 378 306 457 290 522 c 1
 286 522 l 1
 272 456 256 378 240 316 c 2
-10 0 m 1
 188 650 l 1
 396 650 l 1
 594 0 l 1
 412 0 l 1
 380 138 l 1
 198 138 l 1
 166 0 l 1
 -10 0 l 1
296 674 m 1
 100 794 l 1
 190 904 l 1
 372 760 l 1
 296 674 l 1
EndSplineSet
Substitution2: "'c2sc' Capitals to Small Capitals lookup 17 subtable" Agrave.sc
Substitution2: "'aalt' Access All Alternates lookup 0 subtable" Agrave.sc
PairPos2: "'kern' Horizontal Kerning lookup 10 per glyph data 5" uni028D dx=0 dy=0 dh=-10 dv=0 dx=0 dy=0 dh=0 dv=0
PairPos2: "'kern' Horizontal Kerning lookup 10 per glyph data 5" trademark dx=0 dy=0 dh=-80 dv=0 dx=0 dy=0 dh=0 dv=0
PairPos2: "'kern' Horizontal Kerning lookup 10 per glyph data 5" registered dx=0 dy=0 dh=-100 dv=0 dx=0 dy=0 dh=0 dv=0
PairPos2: "'kern' Horizontal Kerning lookup 10 per glyph data 5" backslash dx=0 dy=0 dh=-40 dv=0 dx=0 dy=0 dh=0 dv=0
PairPos2: "'kern' Horizontal Kerning lookup 10 per glyph data 5" quotedbl dx=0 dy=0 dh=-80 dv=0 dx=0 dy=0 dh=0 dv=0
PairPos2: "'kern' Horizontal Kerning lookup 10 per glyph data 5" quotesingle dx=0 dy=0 dh=-80 dv=0 dx=0 dy=0 dh=0 dv=0
PairPos2: "'kern' Horizontal Kerning lookup 10 per glyph data 5" uni02BF dx=0 dy=0 dh=-90 dv=0 dx=0 dy=0 dh=0 dv=0
PairPos2: "'kern' Horizontal Kerning lookup 10 per glyph data 5" uni02BB dx=0 dy=0 dh=-90 dv=0 dx=0 dy=0 dh=0 dv=0
PairPos2: "'kern' Horizontal Kerning lookup 10 per glyph data 5" quotedblleft dx=0 dy=0 dh=-90 dv=0 dx=0 dy=0 dh=0 dv=0
PairPos2: "'kern' Horizontal Kerning lookup 10 per glyph data 5" quoteleft dx=0 dy=0 dh=-90 dv=0 dx=0 dy=0 dh=0 dv=0
PairPos2: "'kern' Horizontal Kerning lookup 10 per glyph data 5" uni0263 dx=0 dy=0 dh=-20 dv=0 dx=0 dy=0 dh=0 dv=0
PairPos2: "'kern' Horizontal Kerning lookup 10 per glyph data 5" uni1EF9 dx=0 dy=0 dh=-20 dv=0 dx=0 dy=0 dh=0 dv=0
PairPos2: "'kern' Horizontal Kerning lookup 10 per glyph data 5" uni1EF7 dx=0 dy=0 dh=-20 dv=0 dx=0 dy=0 dh=0 dv=0
PairPos2: "'kern' Horizontal Kerning lookup 10 per glyph data 5" uni1EF5 dx=0 dy=0 dh=-20 dv=0 dx=0 dy=0 dh=0 dv=0
PairPos2: "'kern' Horizontal Kerning lookup 10 per glyph data 5" uni1E8F dx=0 dy=0 dh=-20 dv=0 dx=0 dy=0 dh=0 dv=0
PairPos2: "'kern' Horizontal Kerning lookup 10 per glyph data 5" ydieresis dx=0 dy=0 dh=-20 dv=0 dx=0 dy=0 dh=0 dv=0
PairPos2: "'kern' Horizontal Kerning lookup 10 per glyph data 5" ycircumflex dx=0 dy=0 dh=-20 dv=0 dx=0 dy=0 dh=0 dv=0
PairPos2: "'kern' Horizontal Kerning lookup 10 per glyph data 5" yacute dx=0 dy=0 dh=-20 dv=0 dx=0 dy=0 dh=0 dv=0
PairPos2: "'kern' Horizontal Kerning lookup 10 per glyph data 5" ygrave dx=0 dy=0 dh=-20 dv=0 dx=0 dy=0 dh=0 dv=0
PairPos2: "'kern' Horizontal Kerning lookup 10 per glyph data 5" y dx=0 dy=0 dh=-20 dv=0 dx=0 dy=0 dh=0 dv=0
PairPos2: "'kern' Horizontal Kerning lookup 10 per glyph data 5" X dx=0 dy=0 dh=-10 dv=0 dx=0 dy=0 dh=0 dv=0
PairPos2: "'kern' Horizontal Kerning lookup 10 per glyph data 5" x dx=0 dy=0 dh=-10 dv=0 dx=0 dy=0 dh=0 dv=0
PairPos2: "'kern' Horizontal Kerning lookup 10 per glyph data 5" Wdieresis.sc dx=0 dy=0 dh=6 dv=0 dx=0 dy=0 dh=0 dv=0
PairPos2: "'kern' Horizontal Kerning lookup 10 per glyph data 5" Wcircumflex.sc dx=0 dy=0 dh=6 dv=0 dx=0 dy=0 dh=0 dv=0
PairPos2: "'kern' Horizontal Kerning lookup 10 per glyph data 5" Wacute.sc dx=0 dy=0 dh=6 dv=0 dx=0 dy=0 dh=0 dv=0
PairPos2: "'kern' Horizontal Kerning lookup 10 per glyph data 5" Wgrave.sc dx=0 dy=0 dh=6 dv=0 dx=0 dy=0 dh=0 dv=0
PairPos2: "'kern' Horizontal Kerning lookup 10 per glyph data 5" W.sc dx=0 dy=0 dh=6 dv=0 dx=0 dy=0 dh=0 dv=0
PairPos2: "'kern' Horizontal Kerning lookup 10 per glyph data 5" wdieresis dx=0 dy=0 dh=-10 dv=0 dx=0 dy=0 dh=0 dv=0
PairPos2: "'kern' Horizontal Kerning lookup 10 per glyph data 5" wcircumflex dx=0 dy=0 dh=-10 dv=0 dx=0 dy=0 dh=0 dv=0
PairPos2: "'kern' Horizontal Kerning lookup 10 per glyph data 5" wacute dx=0 dy=0 dh=-10 dv=0 dx=0 dy=0 dh=0 dv=0
PairPos2: "'kern' Horizontal Kerning lookup 10 per glyph data 5" wgrave dx=0 dy=0 dh=-10 dv=0 dx=0 dy=0 dh=0 dv=0
PairPos2: "'kern' Horizontal Kerning lookup 10 per glyph data 5" w dx=0 dy=0 dh=-10 dv=0 dx=0 dy=0 dh=0 dv=0
PairPos2: "'kern' Horizontal Kerning lookup 10 per glyph data 5" v dx=0 dy=0 dh=-20 dv=0 dx=0 dy=0 dh=0 dv=0
PairPos2: "'kern' Horizontal Kerning lookup 10 per glyph data 5" uni1EF0 dx=0 dy=0 dh=-10 dv=0 dx=0 dy=0 dh=0 dv=0
PairPos2: "'kern' Horizontal Kerning lookup 10 per glyph data 5" uni1EEE dx=0 dy=0 dh=-10 dv=0 dx=0 dy=0 dh=0 dv=0
PairPos2: "'kern' Horizontal Kerning lookup 10 per glyph data 5" uni1EEC dx=0 dy=0 dh=-10 dv=0 dx=0 dy=0 dh=0 dv=0
PairPos2: "'kern' Horizontal Kerning lookup 10 per glyph data 5" uni1EEA dx=0 dy=0 dh=-10 dv=0 dx=0 dy=0 dh=0 dv=0
PairPos2: "'kern' Horizontal Kerning lookup 10 per glyph data 5" uni1EE8 dx=0 dy=0 dh=-10 dv=0 dx=0 dy=0 dh=0 dv=0
PairPos2: "'kern' Horizontal Kerning lookup 10 per glyph data 5" Uhorn dx=0 dy=0 dh=-10 dv=0 dx=0 dy=0 dh=0 dv=0
PairPos2: "'kern' Horizontal Kerning lookup 10 per glyph data 5" Uogonek dx=0 dy=0 dh=-10 dv=0 dx=0 dy=0 dh=0 dv=0
PairPos2: "'kern' Horizontal Kerning lookup 10 per glyph data 5" uni1EE6 dx=0 dy=0 dh=-10 dv=0 dx=0 dy=0 dh=0 dv=0
PairPos2: "'kern' Horizontal Kerning lookup 10 per glyph data 5" uni1EE4 dx=0 dy=0 dh=-10 dv=0 dx=0 dy=0 dh=0 dv=0
PairPos2: "'kern' Horizontal Kerning lookup 10 per glyph data 5" uni01DB dx=0 dy=0 dh=-10 dv=0 dx=0 dy=0 dh=0 dv=0
PairPos2: "'kern' Horizontal Kerning lookup 10 per glyph data 5" uni01D9 dx=0 dy=0 dh=-10 dv=0 dx=0 dy=0 dh=0 dv=0
PairPos2: "'kern' Horizontal Kerning lookup 10 per glyph data 5" uni01D7 dx=0 dy=0 dh=-10 dv=0 dx=0 dy=0 dh=0 dv=0
PairPos2: "'kern' Horizontal Kerning lookup 10 per glyph data 5" uni01D5 dx=0 dy=0 dh=-10 dv=0 dx=0 dy=0 dh=0 dv=0
PairPos2: "'kern' Horizontal Kerning lookup 10 per glyph data 5" uni01D3 dx=0 dy=0 dh=-10 dv=0 dx=0 dy=0 dh=0 dv=0
PairPos2: "'kern' Horizontal Kerning lookup 10 per glyph data 5" Uhungarumlaut dx=0 dy=0 dh=-10 dv=0 dx=0 dy=0 dh=0 dv=0
PairPos2: "'kern' Horizontal Kerning lookup 10 per glyph data 5" Uring dx=0 dy=0 dh=-10 dv=0 dx=0 dy=0 dh=0 dv=0
PairPos2: "'kern' Horizontal Kerning lookup 10 per glyph data 5" Ubreve dx=0 dy=0 dh=-10 dv=0 dx=0 dy=0 dh=0 dv=0
PairPos2: "'kern' Horizontal Kerning lookup 10 per glyph data 5" Umacron dx=0 dy=0 dh=-10 dv=0 dx=0 dy=0 dh=0 dv=0
PairPos2: "'kern' Horizontal Kerning lookup 10 per glyph data 5" Udieresis dx=0 dy=0 dh=-10 dv=0 dx=0 dy=0 dh=0 dv=0
PairPos2: "'kern' Horizontal Kerning lookup 10 per glyph data 5" Utilde dx=0 dy=0 dh=-10 dv=0 dx=0 dy=0 dh=0 dv=0
PairPos2: "'kern' Horizontal Kerning lookup 10 per glyph data 5" Ucircumflex dx=0 dy=0 dh=-10 dv=0 dx=0 dy=0 dh=0 dv=0
PairPos2: "'kern' Horizontal Kerning lookup 10 per glyph data 5" Uacute dx=0 dy=0 dh=-10 dv=0 dx=0 dy=0 dh=0 dv=0
PairPos2: "'kern' Horizontal Kerning lookup 10 per glyph data 5" Ugrave dx=0 dy=0 dh=-10 dv=0 dx=0 dy=0 dh=0 dv=0
PairPos2: "'kern' Horizontal Kerning lookup 10 per glyph data 5" U dx=0 dy=0 dh=-10 dv=0 dx=0 dy=0 dh=0 dv=0
PairPos2: "'kern' Horizontal Kerning lookup 10 per glyph data 5" germandbls.sc dx=0 dy=0 dh=20 dv=0 dx=0 dy=0 dh=0 dv=0
PairPos2: "'kern' Horizontal Kerning lookup 10 per glyph data 5" uni1E62.sc dx=0 dy=0 dh=20 dv=0 dx=0 dy=0 dh=0 dv=0
PairPos2: "'kern' Horizontal Kerning lookup 10 per glyph data 5" uni1E60.sc dx=0 dy=0 dh=20 dv=0 dx=0 dy=0 dh=0 dv=0
PairPos2: "'kern' Horizontal Kerning lookup 10 per glyph data 5" uni0218.sc dx=0 dy=0 dh=20 dv=0 dx=0 dy=0 dh=0 dv=0
PairPos2: "'kern' Horizontal Kerning lookup 10 per glyph data 5" uni015E.sc dx=0 dy=0 dh=20 dv=0 dx=0 dy=0 dh=0 dv=0
PairPos2: "'kern' Horizontal Kerning lookup 10 per glyph data 5" Scaron.sc dx=0 dy=0 dh=20 dv=0 dx=0 dy=0 dh=0 dv=0
PairPos2: "'kern' Horizontal Kerning lookup 10 per glyph data 5" Scircumflex.sc dx=0 dy=0 dh=20 dv=0 dx=0 dy=0 dh=0 dv=0
PairPos2: "'kern' Horizontal Kerning lookup 10 per glyph data 5" Sacute.sc dx=0 dy=0 dh=20 dv=0 dx=0 dy=0 dh=0 dv=0
PairPos2: "'kern' Horizontal Kerning lookup 10 per glyph data 5" S.sc dx=0 dy=0 dh=20 dv=0 dx=0 dy=0 dh=0 dv=0
PairPos2: "'kern' Horizontal Kerning lookup 10 per glyph data 5" uni0282 dx=0 dy=0 dh=10 dv=0 dx=0 dy=0 dh=0 dv=0
PairPos2: "'kern' Horizontal Kerning lookup 10 per glyph data 5" uni1E63 dx=0 dy=0 dh=10 dv=0 dx=0 dy=0 dh=0 dv=0
PairPos2: "'kern' Horizontal Kerning lookup 10 per glyph data 5" uni1E61 dx=0 dy=0 dh=10 dv=0 dx=0 dy=0 dh=0 dv=0
PairPos2: "'kern' Horizontal Kerning lookup 10 per glyph data 5" uni0219 dx=0 dy=0 dh=10 dv=0 dx=0 dy=0 dh=0 dv=0
PairPos2: "'kern' Horizontal Kerning lookup 10 per glyph data 5" uni015F dx=0 dy=0 dh=10 dv=0 dx=0 dy=0 dh=0 dv=0
PairPos2: "'kern' Horizontal Kerning lookup 10 per glyph data 5" scaron dx=0 dy=0 dh=10 dv=0 dx=0 dy=0 dh=0 dv=0
PairPos2: "'kern' Horizontal Kerning lookup 10 per glyph data 5" scircumflex dx=0 dy=0 dh=10 dv=0 dx=0 dy=0 dh=0 dv=0
PairPos2: "'kern' Horizontal Kerning lookup 10 per glyph data 5" sacute dx=0 dy=0 dh=10 dv=0 dx=0 dy=0 dh=0 dv=0
PairPos2: "'kern' Horizontal Kerning lookup 10 per glyph data 5" s dx=0 dy=0 dh=10 dv=0 dx=0 dy=0 dh=0 dv=0
PairPos2: "'kern' Horizontal Kerning lookup 10 per glyph data 5" uni01EA dx=0 dy=0 dh=-10 dv=0 dx=0 dy=0 dh=0 dv=0
PairPos2: "'kern' Horizontal Kerning lookup 10 per glyph data 5" uni1EE2 dx=0 dy=0 dh=-10 dv=0 dx=0 dy=0 dh=0 dv=0
PairPos2: "'kern' Horizontal Kerning lookup 10 per glyph data 5" uni1EE0 dx=0 dy=0 dh=-10 dv=0 dx=0 dy=0 dh=0 dv=0
PairPos2: "'kern' Horizontal Kerning lookup 10 per glyph data 5" uni1EDE dx=0 dy=0 dh=-10 dv=0 dx=0 dy=0 dh=0 dv=0
PairPos2: "'kern' Horizontal Kerning lookup 10 per glyph data 5" uni1EDC dx=0 dy=0 dh=-10 dv=0 dx=0 dy=0 dh=0 dv=0
PairPos2: "'kern' Horizontal Kerning lookup 10 per glyph data 5" uni1EDA dx=0 dy=0 dh=-10 dv=0 dx=0 dy=0 dh=0 dv=0
PairPos2: "'kern' Horizontal Kerning lookup 10 per glyph data 5" Ohorn dx=0 dy=0 dh=-10 dv=0 dx=0 dy=0 dh=0 dv=0
PairPos2: "'kern' Horizontal Kerning lookup 10 per glyph data 5" OE dx=0 dy=0 dh=-10 dv=0 dx=0 dy=0 dh=0 dv=0
PairPos2: "'kern' Horizontal Kerning lookup 10 per glyph data 5" Oslash dx=0 dy=0 dh=-10 dv=0 dx=0 dy=0 dh=0 dv=0
PairPos2: "'kern' Horizontal Kerning lookup 10 per glyph data 5" uni1E52 dx=0 dy=0 dh=-10 dv=0 dx=0 dy=0 dh=0 dv=0
PairPos2: "'kern' Horizontal Kerning lookup 10 per glyph data 5" uni014E dx=0 dy=0 dh=-10 dv=0 dx=0 dy=0 dh=0 dv=0
PairPos2: "'kern' Horizontal Kerning lookup 10 per glyph data 5" uni1ED8 dx=0 dy=0 dh=-10 dv=0 dx=0 dy=0 dh=0 dv=0
PairPos2: "'kern' Horizontal Kerning lookup 10 per glyph data 5" uni1ED6 dx=0 dy=0 dh=-10 dv=0 dx=0 dy=0 dh=0 dv=0
PairPos2: "'kern' Horizontal Kerning lookup 10 per glyph data 5" uni1ED4 dx=0 dy=0 dh=-10 dv=0 dx=0 dy=0 dh=0 dv=0
PairPos2: "'kern' Horizontal Kerning lookup 10 per glyph data 5" uni1ED2 dx=0 dy=0 dh=-10 dv=0 dx=0 dy=0 dh=0 dv=0
PairPos2: "'kern' Horizontal Kerning lookup 10 per glyph data 5" uni1ED0 dx=0 dy=0 dh=-10 dv=0 dx=0 dy=0 dh=0 dv=0
PairPos2: "'kern' Horizontal Kerning lookup 10 per glyph data 5" uni1ECE dx=0 dy=0 dh=-10 dv=0 dx=0 dy=0 dh=0 dv=0
PairPos2: "'kern' Horizontal Kerning lookup 10 per glyph data 5" uni1ECC dx=0 dy=0 dh=-10 dv=0 dx=0 dy=0 dh=0 dv=0
PairPos2: "'kern' Horizontal Kerning lookup 10 per glyph data 5" uni01D1 dx=0 dy=0 dh=-10 dv=0 dx=0 dy=0 dh=0 dv=0
PairPos2: "'kern' Horizontal Kerning lookup 10 per glyph data 5" Ohungarumlaut dx=0 dy=0 dh=-10 dv=0 dx=0 dy=0 dh=0 dv=0
PairPos2: "'kern' Horizontal Kerning lookup 10 per glyph data 5" Omacron dx=0 dy=0 dh=-10 dv=0 dx=0 dy=0 dh=0 dv=0
PairPos2: "'kern' Horizontal Kerning lookup 10 per glyph data 5" Odieresis dx=0 dy=0 dh=-10 dv=0 dx=0 dy=0 dh=0 dv=0
PairPos2: "'kern' Horizontal Kerning lookup 10 per glyph data 5" Otilde dx=0 dy=0 dh=-10 dv=0 dx=0 dy=0 dh=0 dv=0
PairPos2: "'kern' Horizontal Kerning lookup 10 per glyph data 5" Ocircumflex dx=0 dy=0 dh=-10 dv=0 dx=0 dy=0 dh=0 dv=0
PairPos2: "'kern' Horizontal Kerning lookup 10 per glyph data 5" Oacute dx=0 dy=0 dh=-10 dv=0 dx=0 dy=0 dh=0 dv=0
PairPos2: "'kern' Horizontal Kerning lookup 10 per glyph data 5" Ograve dx=0 dy=0 dh=-10 dv=0 dx=0 dy=0 dh=0 dv=0
PairPos2: "'kern' Horizontal Kerning lookup 10 per glyph data 5" uni0193 dx=0 dy=0 dh=-10 dv=0 dx=0 dy=0 dh=0 dv=0
PairPos2: "'kern' Horizontal Kerning lookup 10 per glyph data 5" uni00470303 dx=0 dy=0 dh=-10 dv=0 dx=0 dy=0 dh=0 dv=0
PairPos2: "'kern' Horizontal Kerning lookup 10 per glyph data 5" uni1E20 dx=0 dy=0 dh=-10 dv=0 dx=0 dy=0 dh=0 dv=0
PairPos2: "'kern' Horizontal Kerning lookup 10 per glyph data 5" Gcaron dx=0 dy=0 dh=-10 dv=0 dx=0 dy=0 dh=0 dv=0
PairPos2: "'kern' Horizontal Kerning lookup 10 per glyph data 5" uni0122 dx=0 dy=0 dh=-10 dv=0 dx=0 dy=0 dh=0 dv=0
PairPos2: "'kern' Horizontal Kerning lookup 10 per glyph data 5" Gdotaccent dx=0 dy=0 dh=-10 dv=0 dx=0 dy=0 dh=0 dv=0
PairPos2: "'kern' Horizontal Kerning lookup 10 per glyph data 5" Gbreve dx=0 dy=0 dh=-10 dv=0 dx=0 dy=0 dh=0 dv=0
PairPos2: "'kern' Horizontal Kerning lookup 10 per glyph data 5" Gcircumflex dx=0 dy=0 dh=-10 dv=0 dx=0 dy=0 dh=0 dv=0
PairPos2: "'kern' Horizontal Kerning lookup 10 per glyph data 5" uni01F4 dx=0 dy=0 dh=-10 dv=0 dx=0 dy=0 dh=0 dv=0
PairPos2: "'kern' Horizontal Kerning lookup 10 per glyph data 5" Cdotaccent dx=0 dy=0 dh=-10 dv=0 dx=0 dy=0 dh=0 dv=0
PairPos2: "'kern' Horizontal Kerning lookup 10 per glyph data 5" Ccaron dx=0 dy=0 dh=-10 dv=0 dx=0 dy=0 dh=0 dv=0
PairPos2: "'kern' Horizontal Kerning lookup 10 per glyph data 5" Ccircumflex dx=0 dy=0 dh=-10 dv=0 dx=0 dy=0 dh=0 dv=0
PairPos2: "'kern' Horizontal Kerning lookup 10 per glyph data 5" Cacute dx=0 dy=0 dh=-10 dv=0 dx=0 dy=0 dh=0 dv=0
PairPos2: "'kern' Horizontal Kerning lookup 10 per glyph data 5" Ccedilla dx=0 dy=0 dh=-10 dv=0 dx=0 dy=0 dh=0 dv=0
PairPos2: "'kern' Horizontal Kerning lookup 10 per glyph data 5" Q dx=0 dy=0 dh=-10 dv=0 dx=0 dy=0 dh=0 dv=0
PairPos2: "'kern' Horizontal Kerning lookup 10 per glyph data 5" O dx=0 dy=0 dh=-10 dv=0 dx=0 dy=0 dh=0 dv=0
PairPos2: "'kern' Horizontal Kerning lookup 10 per glyph data 5" G dx=0 dy=0 dh=-10 dv=0 dx=0 dy=0 dh=0 dv=0
PairPos2: "'kern' Horizontal Kerning lookup 10 per glyph data 5" C dx=0 dy=0 dh=-10 dv=0 dx=0 dy=0 dh=0 dv=0
PairPos2: "'kern' Horizontal Kerning lookup 10 per glyph data 5" uni1E52.sc dx=0 dy=0 dh=20 dv=0 dx=0 dy=0 dh=0 dv=0
PairPos2: "'kern' Horizontal Kerning lookup 10 per glyph data 5" uni014E.sc dx=0 dy=0 dh=20 dv=0 dx=0 dy=0 dh=0 dv=0
PairPos2: "'kern' Horizontal Kerning lookup 10 per glyph data 5" uni01EA.sc dx=0 dy=0 dh=20 dv=0 dx=0 dy=0 dh=0 dv=0
PairPos2: "'kern' Horizontal Kerning lookup 10 per glyph data 5" uni1EE2.sc dx=0 dy=0 dh=20 dv=0 dx=0 dy=0 dh=0 dv=0
PairPos2: "'kern' Horizontal Kerning lookup 10 per glyph data 5" uni1EE0.sc dx=0 dy=0 dh=20 dv=0 dx=0 dy=0 dh=0 dv=0
PairPos2: "'kern' Horizontal Kerning lookup 10 per glyph data 5" uni1EDE.sc dx=0 dy=0 dh=20 dv=0 dx=0 dy=0 dh=0 dv=0
PairPos2: "'kern' Horizontal Kerning lookup 10 per glyph data 5" uni1EDC.sc dx=0 dy=0 dh=20 dv=0 dx=0 dy=0 dh=0 dv=0
PairPos2: "'kern' Horizontal Kerning lookup 10 per glyph data 5" uni1EDA.sc dx=0 dy=0 dh=20 dv=0 dx=0 dy=0 dh=0 dv=0
PairPos2: "'kern' Horizontal Kerning lookup 10 per glyph data 5" Ohorn.sc dx=0 dy=0 dh=20 dv=0 dx=0 dy=0 dh=0 dv=0
PairPos2: "'kern' Horizontal Kerning lookup 10 per glyph data 5" OE.sc dx=0 dy=0 dh=20 dv=0 dx=0 dy=0 dh=0 dv=0
PairPos2: "'kern' Horizontal Kerning lookup 10 per glyph data 5" Oslash.sc dx=0 dy=0 dh=20 dv=0 dx=0 dy=0 dh=0 dv=0
PairPos2: "'kern' Horizontal Kerning lookup 10 per glyph data 5" uni1ED8.sc dx=0 dy=0 dh=20 dv=0 dx=0 dy=0 dh=0 dv=0
PairPos2: "'kern' Horizontal Kerning lookup 10 per glyph data 5" uni1ED6.sc dx=0 dy=0 dh=20 dv=0 dx=0 dy=0 dh=0 dv=0
PairPos2: "'kern' Horizontal Kerning lookup 10 per glyph data 5" uni1ED4.sc dx=0 dy=0 dh=20 dv=0 dx=0 dy=0 dh=0 dv=0
PairPos2: "'kern' Horizontal Kerning lookup 10 per glyph data 5" uni1ED2.sc dx=0 dy=0 dh=20 dv=0 dx=0 dy=0 dh=0 dv=0
PairPos2: "'kern' Horizontal Kerning lookup 10 per glyph data 5" uni1ED0.sc dx=0 dy=0 dh=20 dv=0 dx=0 dy=0 dh=0 dv=0
PairPos2: "'kern' Horizontal Kerning lookup 10 per glyph data 5" uni1ECE.sc dx=0 dy=0 dh=20 dv=0 dx=0 dy=0 dh=0 dv=0
PairPos2: "'kern' Horizontal Kerning lookup 10 per glyph data 5" uni1ECC.sc dx=0 dy=0 dh=20 dv=0 dx=0 dy=0 dh=0 dv=0
PairPos2: "'kern' Horizontal Kerning lookup 10 per glyph data 5" uni01D1.sc dx=0 dy=0 dh=20 dv=0 dx=0 dy=0 dh=0 dv=0
PairPos2: "'kern' Horizontal Kerning lookup 10 per glyph data 5" Ohungarumlaut.sc dx=0 dy=0 dh=20 dv=0 dx=0 dy=0 dh=0 dv=0
PairPos2: "'kern' Horizontal Kerning lookup 10 per glyph data 5" Omacron.sc dx=0 dy=0 dh=20 dv=0 dx=0 dy=0 dh=0 dv=0
PairPos2: "'kern' Horizontal Kerning lookup 10 per glyph data 5" Odieresis.sc dx=0 dy=0 dh=20 dv=0 dx=0 dy=0 dh=0 dv=0
PairPos2: "'kern' Horizontal Kerning lookup 10 per glyph data 5" Otilde.sc dx=0 dy=0 dh=20 dv=0 dx=0 dy=0 dh=0 dv=0
PairPos2: "'kern' Horizontal Kerning lookup 10 per glyph data 5" Ocircumflex.sc dx=0 dy=0 dh=20 dv=0 dx=0 dy=0 dh=0 dv=0
PairPos2: "'kern' Horizontal Kerning lookup 10 per glyph data 5" Oacute.sc dx=0 dy=0 dh=20 dv=0 dx=0 dy=0 dh=0 dv=0
PairPos2: "'kern' Horizontal Kerning lookup 10 per glyph data 5" Ograve.sc dx=0 dy=0 dh=20 dv=0 dx=0 dy=0 dh=0 dv=0
PairPos2: "'kern' Horizontal Kerning lookup 10 per glyph data 5" uni0193.sc dx=0 dy=0 dh=20 dv=0 dx=0 dy=0 dh=0 dv=0
PairPos2: "'kern' Horizontal Kerning lookup 10 per glyph data 5" uni00470303.sc dx=0 dy=0 dh=20 dv=0 dx=0 dy=0 dh=0 dv=0
PairPos2: "'kern' Horizontal Kerning lookup 10 per glyph data 5" uni1E20.sc dx=0 dy=0 dh=20 dv=0 dx=0 dy=0 dh=0 dv=0
PairPos2: "'kern' Horizontal Kerning lookup 10 per glyph data 5" Gcaron.sc dx=0 dy=0 dh=20 dv=0 dx=0 dy=0 dh=0 dv=0
PairPos2: "'kern' Horizontal Kerning lookup 10 per glyph data 5" uni0122.sc dx=0 dy=0 dh=20 dv=0 dx=0 dy=0 dh=0 dv=0
PairPos2: "'kern' Horizontal Kerning lookup 10 per glyph data 5" Gdotaccent.sc dx=0 dy=0 dh=20 dv=0 dx=0 dy=0 dh=0 dv=0
PairPos2: "'kern' Horizontal Kerning lookup 10 per glyph data 5" Gbreve.sc dx=0 dy=0 dh=20 dv=0 dx=0 dy=0 dh=0 dv=0
PairPos2: "'kern' Horizontal Kerning lookup 10 per glyph data 5" Gcircumflex.sc dx=0 dy=0 dh=20 dv=0 dx=0 dy=0 dh=0 dv=0
PairPos2: "'kern' Horizontal Kerning lookup 10 per glyph data 5" uni01F4.sc dx=0 dy=0 dh=20 dv=0 dx=0 dy=0 dh=0 dv=0
PairPos2: "'kern' Horizontal Kerning lookup 10 per glyph data 5" Cdotaccent.sc dx=0 dy=0 dh=20 dv=0 dx=0 dy=0 dh=0 dv=0
PairPos2: "'kern' Horizontal Kerning lookup 10 per glyph data 5" Ccaron.sc dx=0 dy=0 dh=20 dv=0 dx=0 dy=0 dh=0 dv=0
PairPos2: "'kern' Horizontal Kerning lookup 10 per glyph data 5" Ccircumflex.sc dx=0 dy=0 dh=20 dv=0 dx=0 dy=0 dh=0 dv=0
PairPos2: "'kern' Horizontal Kerning lookup 10 per glyph data 5" Cacute.sc dx=0 dy=0 dh=20 dv=0 dx=0 dy=0 dh=0 dv=0
PairPos2: "'kern' Horizontal Kerning lookup 10 per glyph data 5" Ccedilla.sc dx=0 dy=0 dh=20 dv=0 dx=0 dy=0 dh=0 dv=0
PairPos2: "'kern' Horizontal Kerning lookup 10 per glyph data 5" Q.sc dx=0 dy=0 dh=20 dv=0 dx=0 dy=0 dh=0 dv=0
PairPos2: "'kern' Horizontal Kerning lookup 10 per glyph data 5" O.sc dx=0 dy=0 dh=20 dv=0 dx=0 dy=0 dh=0 dv=0
PairPos2: "'kern' Horizontal Kerning lookup 10 per glyph data 5" G.sc dx=0 dy=0 dh=20 dv=0 dx=0 dy=0 dh=0 dv=0
PairPos2: "'kern' Horizontal Kerning lookup 10 per glyph data 5" C.sc dx=0 dy=0 dh=20 dv=0 dx=0 dy=0 dh=0 dv=0
PairPos2: "'kern' Horizontal Kerning lookup 10 per glyph data 5" fl dx=0 dy=0 dh=-10 dv=0 dx=0 dy=0 dh=0 dv=0
PairPos2: "'kern' Horizontal Kerning lookup 10 per glyph data 5" fi dx=0 dy=0 dh=-10 dv=0 dx=0 dy=0 dh=0 dv=0
PairPos2: "'kern' Horizontal Kerning lookup 10 per glyph data 5" fl.a dx=0 dy=0 dh=-10 dv=0 dx=0 dy=0 dh=0 dv=0
PairPos2: "'kern' Horizontal Kerning lookup 10 per glyph data 5" f_f_t dx=0 dy=0 dh=-10 dv=0 dx=0 dy=0 dh=0 dv=0
PairPos2: "'kern' Horizontal Kerning lookup 10 per glyph data 5" f_t dx=0 dy=0 dh=-10 dv=0 dx=0 dy=0 dh=0 dv=0
PairPos2: "'kern' Horizontal Kerning lookup 10 per glyph data 5" f_f dx=0 dy=0 dh=-10 dv=0 dx=0 dy=0 dh=0 dv=0
PairPos2: "'kern' Horizontal Kerning lookup 10 per glyph data 5" f dx=0 dy=0 dh=-10 dv=0 dx=0 dy=0 dh=0 dv=0
PairPos2: "'kern' Horizontal Kerning lookup 10 per glyph data 5" uni01E3 dx=0 dy=0 dh=10 dv=0 dx=0 dy=0 dh=0 dv=0
PairPos2: "'kern' Horizontal Kerning lookup 10 per glyph data 5" uni01FD dx=0 dy=0 dh=10 dv=0 dx=0 dy=0 dh=0 dv=0
PairPos2: "'kern' Horizontal Kerning lookup 10 per glyph data 5" ae dx=0 dy=0 dh=10 dv=0 dx=0 dy=0 dh=0 dv=0
PairPos2: "'kern' Horizontal Kerning lookup 10 per glyph data 5" aogonek dx=0 dy=0 dh=10 dv=0 dx=0 dy=0 dh=0 dv=0
PairPos2: "'kern' Horizontal Kerning lookup 10 per glyph data 5" uni1EB7 dx=0 dy=0 dh=10 dv=0 dx=0 dy=0 dh=0 dv=0
PairPos2: "'kern' Horizontal Kerning lookup 10 per glyph data 5" uni1EB5 dx=0 dy=0 dh=10 dv=0 dx=0 dy=0 dh=0 dv=0
PairPos2: "'kern' Horizontal Kerning lookup 10 per glyph data 5" uni1EB3 dx=0 dy=0 dh=10 dv=0 dx=0 dy=0 dh=0 dv=0
PairPos2: "'kern' Horizontal Kerning lookup 10 per glyph data 5" uni1EB1 dx=0 dy=0 dh=10 dv=0 dx=0 dy=0 dh=0 dv=0
PairPos2: "'kern' Horizontal Kerning lookup 10 per glyph data 5" uni1EAF dx=0 dy=0 dh=10 dv=0 dx=0 dy=0 dh=0 dv=0
PairPos2: "'kern' Horizontal Kerning lookup 10 per glyph data 5" uni1EAD dx=0 dy=0 dh=10 dv=0 dx=0 dy=0 dh=0 dv=0
PairPos2: "'kern' Horizontal Kerning lookup 10 per glyph data 5" uni1EAB dx=0 dy=0 dh=10 dv=0 dx=0 dy=0 dh=0 dv=0
PairPos2: "'kern' Horizontal Kerning lookup 10 per glyph data 5" uni1EA9 dx=0 dy=0 dh=10 dv=0 dx=0 dy=0 dh=0 dv=0
PairPos2: "'kern' Horizontal Kerning lookup 10 per glyph data 5" uni1EA7 dx=0 dy=0 dh=10 dv=0 dx=0 dy=0 dh=0 dv=0
PairPos2: "'kern' Horizontal Kerning lookup 10 per glyph data 5" uni1EA5 dx=0 dy=0 dh=10 dv=0 dx=0 dy=0 dh=0 dv=0
PairPos2: "'kern' Horizontal Kerning lookup 10 per glyph data 5" uni1EA3 dx=0 dy=0 dh=10 dv=0 dx=0 dy=0 dh=0 dv=0
PairPos2: "'kern' Horizontal Kerning lookup 10 per glyph data 5" uni1EA1 dx=0 dy=0 dh=10 dv=0 dx=0 dy=0 dh=0 dv=0
PairPos2: "'kern' Horizontal Kerning lookup 10 per glyph data 5" uni01CE dx=0 dy=0 dh=10 dv=0 dx=0 dy=0 dh=0 dv=0
PairPos2: "'kern' Horizontal Kerning lookup 10 per glyph data 5" aring dx=0 dy=0 dh=10 dv=0 dx=0 dy=0 dh=0 dv=0
PairPos2: "'kern' Horizontal Kerning lookup 10 per glyph data 5" abreve dx=0 dy=0 dh=10 dv=0 dx=0 dy=0 dh=0 dv=0
PairPos2: "'kern' Horizontal Kerning lookup 10 per glyph data 5" amacron dx=0 dy=0 dh=10 dv=0 dx=0 dy=0 dh=0 dv=0
PairPos2: "'kern' Horizontal Kerning lookup 10 per glyph data 5" adieresis dx=0 dy=0 dh=10 dv=0 dx=0 dy=0 dh=0 dv=0
PairPos2: "'kern' Horizontal Kerning lookup 10 per glyph data 5" atilde dx=0 dy=0 dh=10 dv=0 dx=0 dy=0 dh=0 dv=0
PairPos2: "'kern' Horizontal Kerning lookup 10 per glyph data 5" acircumflex dx=0 dy=0 dh=10 dv=0 dx=0 dy=0 dh=0 dv=0
PairPos2: "'kern' Horizontal Kerning lookup 10 per glyph data 5" aacute dx=0 dy=0 dh=10 dv=0 dx=0 dy=0 dh=0 dv=0
PairPos2: "'kern' Horizontal Kerning lookup 10 per glyph data 5" agrave dx=0 dy=0 dh=10 dv=0 dx=0 dy=0 dh=0 dv=0
PairPos2: "'kern' Horizontal Kerning lookup 10 per glyph data 5" a dx=0 dy=0 dh=10 dv=0 dx=0 dy=0 dh=0 dv=0
PairPos2: "'kern' Horizontal Kerning lookup 10 per glyph data 5" periodcentered dx=0 dy=0 dh=-30 dv=0 dx=0 dy=0 dh=0 dv=0
PairPos2: "'kern' Horizontal Kerning lookup 10 per glyph data 5" uni1E94.sc dx=0 dy=0 dh=30 dv=0 dx=0 dy=0 dh=0 dv=0
PairPos2: "'kern' Horizontal Kerning lookup 10 per glyph data 5" uni1E92.sc dx=0 dy=0 dh=30 dv=0 dx=0 dy=0 dh=0 dv=0
PairPos2: "'kern' Horizontal Kerning lookup 10 per glyph data 5" Zdotaccent.sc dx=0 dy=0 dh=30 dv=0 dx=0 dy=0 dh=0 dv=0
PairPos2: "'kern' Horizontal Kerning lookup 10 per glyph data 5" Zcaron.sc dx=0 dy=0 dh=30 dv=0 dx=0 dy=0 dh=0 dv=0
PairPos2: "'kern' Horizontal Kerning lookup 10 per glyph data 5" Zacute.sc dx=0 dy=0 dh=30 dv=0 dx=0 dy=0 dh=0 dv=0
PairPos2: "'kern' Horizontal Kerning lookup 10 per glyph data 5" Z.sc dx=0 dy=0 dh=30 dv=0 dx=0 dy=0 dh=0 dv=0
PairPos2: "'kern' Horizontal Kerning lookup 10 per glyph data 5" X.sc dx=0 dy=0 dh=20 dv=0 dx=0 dy=0 dh=0 dv=0
PairPos2: "'kern' Horizontal Kerning lookup 10 per glyph data 5" V.sc dx=0 dy=0 dh=10 dv=0 dx=0 dy=0 dh=0 dv=0
PairPos2: "'kern' Horizontal Kerning lookup 10 per glyph data 5" uni1EF0.sc dx=0 dy=0 dh=20 dv=0 dx=0 dy=0 dh=0 dv=0
PairPos2: "'kern' Horizontal Kerning lookup 10 per glyph data 5" uni1EEE.sc dx=0 dy=0 dh=20 dv=0 dx=0 dy=0 dh=0 dv=0
PairPos2: "'kern' Horizontal Kerning lookup 10 per glyph data 5" uni1EEC.sc dx=0 dy=0 dh=20 dv=0 dx=0 dy=0 dh=0 dv=0
PairPos2: "'kern' Horizontal Kerning lookup 10 per glyph data 5" uni1EEA.sc dx=0 dy=0 dh=20 dv=0 dx=0 dy=0 dh=0 dv=0
PairPos2: "'kern' Horizontal Kerning lookup 10 per glyph data 5" uni1EE8.sc dx=0 dy=0 dh=20 dv=0 dx=0 dy=0 dh=0 dv=0
PairPos2: "'kern' Horizontal Kerning lookup 10 per glyph data 5" Uhorn.sc dx=0 dy=0 dh=20 dv=0 dx=0 dy=0 dh=0 dv=0
PairPos2: "'kern' Horizontal Kerning lookup 10 per glyph data 5" Uogonek.sc dx=0 dy=0 dh=20 dv=0 dx=0 dy=0 dh=0 dv=0
PairPos2: "'kern' Horizontal Kerning lookup 10 per glyph data 5" uni1EE6.sc dx=0 dy=0 dh=20 dv=0 dx=0 dy=0 dh=0 dv=0
PairPos2: "'kern' Horizontal Kerning lookup 10 per glyph data 5" uni1EE4.sc dx=0 dy=0 dh=20 dv=0 dx=0 dy=0 dh=0 dv=0
PairPos2: "'kern' Horizontal Kerning lookup 10 per glyph data 5" uni01DB.sc dx=0 dy=0 dh=20 dv=0 dx=0 dy=0 dh=0 dv=0
PairPos2: "'kern' Horizontal Kerning lookup 10 per glyph data 5" uni01D9.sc dx=0 dy=0 dh=20 dv=0 dx=0 dy=0 dh=0 dv=0
PairPos2: "'kern' Horizontal Kerning lookup 10 per glyph data 5" uni01D7.sc dx=0 dy=0 dh=20 dv=0 dx=0 dy=0 dh=0 dv=0
PairPos2: "'kern' Horizontal Kerning lookup 10 per glyph data 5" uni01D5.sc dx=0 dy=0 dh=20 dv=0 dx=0 dy=0 dh=0 dv=0
PairPos2: "'kern' Horizontal Kerning lookup 10 per glyph data 5" uni01D3.sc dx=0 dy=0 dh=20 dv=0 dx=0 dy=0 dh=0 dv=0
PairPos2: "'kern' Horizontal Kerning lookup 10 per glyph data 5" Uhungarumlaut.sc dx=0 dy=0 dh=20 dv=0 dx=0 dy=0 dh=0 dv=0
PairPos2: "'kern' Horizontal Kerning lookup 10 per glyph data 5" Uring.sc dx=0 dy=0 dh=20 dv=0 dx=0 dy=0 dh=0 dv=0
PairPos2: "'kern' Horizontal Kerning lookup 10 per glyph data 5" Ubreve.sc dx=0 dy=0 dh=20 dv=0 dx=0 dy=0 dh=0 dv=0
PairPos2: "'kern' Horizontal Kerning lookup 10 per glyph data 5" Umacron.sc dx=0 dy=0 dh=20 dv=0 dx=0 dy=0 dh=0 dv=0
PairPos2: "'kern' Horizontal Kerning lookup 10 per glyph data 5" Udieresis.sc dx=0 dy=0 dh=20 dv=0 dx=0 dy=0 dh=0 dv=0
PairPos2: "'kern' Horizontal Kerning lookup 10 per glyph data 5" Utilde.sc dx=0 dy=0 dh=20 dv=0 dx=0 dy=0 dh=0 dv=0
PairPos2: "'kern' Horizontal Kerning lookup 10 per glyph data 5" Ucircumflex.sc dx=0 dy=0 dh=20 dv=0 dx=0 dy=0 dh=0 dv=0
PairPos2: "'kern' Horizontal Kerning lookup 10 per glyph data 5" Uacute.sc dx=0 dy=0 dh=20 dv=0 dx=0 dy=0 dh=0 dv=0
PairPos2: "'kern' Horizontal Kerning lookup 10 per glyph data 5" Ugrave.sc dx=0 dy=0 dh=20 dv=0 dx=0 dy=0 dh=0 dv=0
PairPos2: "'kern' Horizontal Kerning lookup 10 per glyph data 5" U.sc dx=0 dy=0 dh=20 dv=0 dx=0 dy=0 dh=0 dv=0
PairPos2: "'kern' Horizontal Kerning lookup 10 per glyph data 5" asterisk dx=0 dy=0 dh=-80 dv=0 dx=0 dy=0 dh=0 dv=0
PairPos2: "'kern' Horizontal Kerning lookup 10 per glyph data 5" uni02BE dx=0 dy=0 dh=-60 dv=0 dx=0 dy=0 dh=0 dv=0
PairPos2: "'kern' Horizontal Kerning lookup 10 per glyph data 5" uni02BC dx=0 dy=0 dh=-60 dv=0 dx=0 dy=0 dh=0 dv=0
PairPos2: "'kern' Horizontal Kerning lookup 10 per glyph data 5" quotedblright dx=0 dy=0 dh=-60 dv=0 dx=0 dy=0 dh=0 dv=0
PairPos2: "'kern' Horizontal Kerning lookup 10 per glyph data 5" quoteright dx=0 dy=0 dh=-60 dv=0 dx=0 dy=0 dh=0 dv=0
PairPos2: "'kern' Horizontal Kerning lookup 10 per glyph data 5" uni203D dx=0 dy=0 dh=-40 dv=0 dx=0 dy=0 dh=0 dv=0
PairPos2: "'kern' Horizontal Kerning lookup 10 per glyph data 5" uni2048 dx=0 dy=0 dh=-40 dv=0 dx=0 dy=0 dh=0 dv=0
PairPos2: "'kern' Horizontal Kerning lookup 10 per glyph data 5" uni2047 dx=0 dy=0 dh=-40 dv=0 dx=0 dy=0 dh=0 dv=0
PairPos2: "'kern' Horizontal Kerning lookup 10 per glyph data 5" question dx=0 dy=0 dh=-40 dv=0 dx=0 dy=0 dh=0 dv=0
PairPos2: "'kern' Horizontal Kerning lookup 10 per glyph data 5" uni1EF8 dx=0 dy=0 dh=-20 dv=0 dx=0 dy=0 dh=0 dv=0
PairPos2: "'kern' Horizontal Kerning lookup 10 per glyph data 5" uni1EF6 dx=0 dy=0 dh=-20 dv=0 dx=0 dy=0 dh=0 dv=0
PairPos2: "'kern' Horizontal Kerning lookup 10 per glyph data 5" uni1EF4 dx=0 dy=0 dh=-20 dv=0 dx=0 dy=0 dh=0 dv=0
PairPos2: "'kern' Horizontal Kerning lookup 10 per glyph data 5" uni1E8E dx=0 dy=0 dh=-20 dv=0 dx=0 dy=0 dh=0 dv=0
PairPos2: "'kern' Horizontal Kerning lookup 10 per glyph data 5" Ydieresis dx=0 dy=0 dh=-20 dv=0 dx=0 dy=0 dh=0 dv=0
PairPos2: "'kern' Horizontal Kerning lookup 10 per glyph data 5" Ycircumflex dx=0 dy=0 dh=-20 dv=0 dx=0 dy=0 dh=0 dv=0
PairPos2: "'kern' Horizontal Kerning lookup 10 per glyph data 5" Yacute dx=0 dy=0 dh=-20 dv=0 dx=0 dy=0 dh=0 dv=0
PairPos2: "'kern' Horizontal Kerning lookup 10 per glyph data 5" Ygrave dx=0 dy=0 dh=-20 dv=0 dx=0 dy=0 dh=0 dv=0
PairPos2: "'kern' Horizontal Kerning lookup 10 per glyph data 5" Y dx=0 dy=0 dh=-20 dv=0 dx=0 dy=0 dh=0 dv=0
PairPos2: "'kern' Horizontal Kerning lookup 10 per glyph data 5" V dx=0 dy=0 dh=-20 dv=0 dx=0 dy=0 dh=0 dv=0
PairPos2: "'kern' Horizontal Kerning lookup 10 per glyph data 5" uni0166 dx=0 dy=0 dh=-80 dv=0 dx=0 dy=0 dh=0 dv=0
PairPos2: "'kern' Horizontal Kerning lookup 10 per glyph data 5" uni1E6E dx=0 dy=0 dh=-80 dv=0 dx=0 dy=0 dh=0 dv=0
PairPos2: "'kern' Horizontal Kerning lookup 10 per glyph data 5" uni1E6C dx=0 dy=0 dh=-80 dv=0 dx=0 dy=0 dh=0 dv=0
PairPos2: "'kern' Horizontal Kerning lookup 10 per glyph data 5" uni021A dx=0 dy=0 dh=-80 dv=0 dx=0 dy=0 dh=0 dv=0
PairPos2: "'kern' Horizontal Kerning lookup 10 per glyph data 5" uni0162 dx=0 dy=0 dh=-80 dv=0 dx=0 dy=0 dh=0 dv=0
PairPos2: "'kern' Horizontal Kerning lookup 10 per glyph data 5" Tcaron dx=0 dy=0 dh=-80 dv=0 dx=0 dy=0 dh=0 dv=0
PairPos2: "'kern' Horizontal Kerning lookup 10 per glyph data 5" T dx=0 dy=0 dh=-80 dv=0 dx=0 dy=0 dh=0 dv=0
PairPos2: "'kern' Horizontal Kerning lookup 10 per glyph data 5" uni0288 dx=0 dy=0 dh=-20 dv=0 dx=0 dy=0 dh=0 dv=0
PairPos2: "'kern' Horizontal Kerning lookup 10 per glyph data 5" uni0167 dx=0 dy=0 dh=-20 dv=0 dx=0 dy=0 dh=0 dv=0
PairPos2: "'kern' Horizontal Kerning lookup 10 per glyph data 5" uni1E97 dx=0 dy=0 dh=-20 dv=0 dx=0 dy=0 dh=0 dv=0
PairPos2: "'kern' Horizontal Kerning lookup 10 per glyph data 5" uni1E6F dx=0 dy=0 dh=-20 dv=0 dx=0 dy=0 dh=0 dv=0
PairPos2: "'kern' Horizontal Kerning lookup 10 per glyph data 5" uni1E6D dx=0 dy=0 dh=-20 dv=0 dx=0 dy=0 dh=0 dv=0
PairPos2: "'kern' Horizontal Kerning lookup 10 per glyph data 5" uni021B dx=0 dy=0 dh=-20 dv=0 dx=0 dy=0 dh=0 dv=0
PairPos2: "'kern' Horizontal Kerning lookup 10 per glyph data 5" uni0163 dx=0 dy=0 dh=-20 dv=0 dx=0 dy=0 dh=0 dv=0
PairPos2: "'kern' Horizontal Kerning lookup 10 per glyph data 5" tcaron dx=0 dy=0 dh=-20 dv=0 dx=0 dy=0 dh=0 dv=0
PairPos2: "'kern' Horizontal Kerning lookup 10 per glyph data 5" t dx=0 dy=0 dh=-20 dv=0 dx=0 dy=0 dh=0 dv=0
EndChar
StartChar: Idieresis
Encoding: 207 207 125
Width: 316
Flags: MW
HStem: 0 21G<72 72 72 244> 630 20G<72 244 244 244> 694 156<21 67 249 295>
VStem: -34 156<750 794> 72 172<0 650 0 650> 194 156<750 794>
LayerCount: 2
Fore
SplineSet
72 0 m 1xe8
 72 650 l 1
 244 650 l 1
 244 0 l 1
 72 0 l 1xe8
44 694 m 0xf4
 -2 694 -34 728 -34 772 c 0
 -34 816 -2 850 44 850 c 0
 90 850 122 816 122 772 c 0
 122 728 90 694 44 694 c 0xf4
272 694 m 0
 226 694 194 728 194 772 c 0
 194 816 226 850 272 850 c 0
 318 850 350 816 350 772 c 0
 350 728 318 694 272 694 c 0
EndSplineSet
Substitution2: "'ss04' Style Set 4 lookup 43 subtable" Idieresis.a
Substitution2: "'c2sc' Capitals to Small Capitals lookup 17 subtable" Idieresis.sc
AlternateSubs2: "'aalt' Access All Alternates lookup 1 subtable" Idieresis.sc Idieresis.a
PairPos2: "'kern' Horizontal Kerning lookup 10 per glyph data 5" Aogonek.sc dx=0 dy=0 dh=10 dv=0 dx=0 dy=0 dh=0 dv=0
PairPos2: "'kern' Horizontal Kerning lookup 10 per glyph data 5" uni1EB6.sc dx=0 dy=0 dh=10 dv=0 dx=0 dy=0 dh=0 dv=0
PairPos2: "'kern' Horizontal Kerning lookup 10 per glyph data 5" uni1EB4.sc dx=0 dy=0 dh=10 dv=0 dx=0 dy=0 dh=0 dv=0
PairPos2: "'kern' Horizontal Kerning lookup 10 per glyph data 5" uni1EB2.sc dx=0 dy=0 dh=10 dv=0 dx=0 dy=0 dh=0 dv=0
PairPos2: "'kern' Horizontal Kerning lookup 10 per glyph data 5" uni1EB0.sc dx=0 dy=0 dh=10 dv=0 dx=0 dy=0 dh=0 dv=0
PairPos2: "'kern' Horizontal Kerning lookup 10 per glyph data 5" uni1EAE.sc dx=0 dy=0 dh=10 dv=0 dx=0 dy=0 dh=0 dv=0
PairPos2: "'kern' Horizontal Kerning lookup 10 per glyph data 5" uni1EAC.sc dx=0 dy=0 dh=10 dv=0 dx=0 dy=0 dh=0 dv=0
PairPos2: "'kern' Horizontal Kerning lookup 10 per glyph data 5" uni1EAA.sc dx=0 dy=0 dh=10 dv=0 dx=0 dy=0 dh=0 dv=0
PairPos2: "'kern' Horizontal Kerning lookup 10 per glyph data 5" uni1EA8.sc dx=0 dy=0 dh=10 dv=0 dx=0 dy=0 dh=0 dv=0
PairPos2: "'kern' Horizontal Kerning lookup 10 per glyph data 5" uni1EA6.sc dx=0 dy=0 dh=10 dv=0 dx=0 dy=0 dh=0 dv=0
PairPos2: "'kern' Horizontal Kerning lookup 10 per glyph data 5" uni1EA4.sc dx=0 dy=0 dh=10 dv=0 dx=0 dy=0 dh=0 dv=0
PairPos2: "'kern' Horizontal Kerning lookup 10 per glyph data 5" uni1EA2.sc dx=0 dy=0 dh=10 dv=0 dx=0 dy=0 dh=0 dv=0
PairPos2: "'kern' Horizontal Kerning lookup 10 per glyph data 5" uni1EA0.sc dx=0 dy=0 dh=10 dv=0 dx=0 dy=0 dh=0 dv=0
PairPos2: "'kern' Horizontal Kerning lookup 10 per glyph data 5" uni01CD.sc dx=0 dy=0 dh=10 dv=0 dx=0 dy=0 dh=0 dv=0
PairPos2: "'kern' Horizontal Kerning lookup 10 per glyph data 5" Aring.sc dx=0 dy=0 dh=10 dv=0 dx=0 dy=0 dh=0 dv=0
PairPos2: "'kern' Horizontal Kerning lookup 10 per glyph data 5" Abreve.sc dx=0 dy=0 dh=10 dv=0 dx=0 dy=0 dh=0 dv=0
PairPos2: "'kern' Horizontal Kerning lookup 10 per glyph data 5" Amacron.sc dx=0 dy=0 dh=10 dv=0 dx=0 dy=0 dh=0 dv=0
PairPos2: "'kern' Horizontal Kerning lookup 10 per glyph data 5" Adieresis.sc dx=0 dy=0 dh=10 dv=0 dx=0 dy=0 dh=0 dv=0
PairPos2: "'kern' Horizontal Kerning lookup 10 per glyph data 5" Atilde.sc dx=0 dy=0 dh=10 dv=0 dx=0 dy=0 dh=0 dv=0
PairPos2: "'kern' Horizontal Kerning lookup 10 per glyph data 5" Acircumflex.sc dx=0 dy=0 dh=10 dv=0 dx=0 dy=0 dh=0 dv=0
PairPos2: "'kern' Horizontal Kerning lookup 10 per glyph data 5" Aacute.sc dx=0 dy=0 dh=10 dv=0 dx=0 dy=0 dh=0 dv=0
PairPos2: "'kern' Horizontal Kerning lookup 10 per glyph data 5" Agrave.sc dx=0 dy=0 dh=10 dv=0 dx=0 dy=0 dh=0 dv=0
PairPos2: "'kern' Horizontal Kerning lookup 10 per glyph data 5" A.sc dx=0 dy=0 dh=10 dv=0 dx=0 dy=0 dh=0 dv=0
EndChar
StartChar: Ntilde
Encoding: 209 209 151
Width: 672
Flags: MW
HStem: 0 21G<72 72 72 236 424 424 424 600> 630 20G<72 248 248 248 436 600 600 600> 686 118<386 408 386 442.5> 738 118<264 286>
VStem: 72 164<0 188 0 650> 130 110<696 704> 432 110<838 846> 436 164<462 650 0 650>
LayerCount: 2
Fore
SplineSet
72 0 m 1xd9
 72 650 l 1
 248 650 l 1
 392 360 l 1
 454 214 l 1
 458 214 l 1
 450 284 436 382 436 462 c 2
 436 650 l 1
 600 650 l 1
 600 0 l 1
 424 0 l 1
 280 291 l 1
 218 436 l 1
 214 436 l 1
 222 362 236 268 236 188 c 2
 236 0 l 1
 72 0 l 1xd9
406 686 m 0xea
 336 686 300 738 272 738 c 0
 256 738 244 730 240 696 c 1
 130 704 l 1
 136 814 193 856 266 856 c 0xd5
 336 856 372 804 400 804 c 0
 416 804 428 812 432 846 c 1
 542 838 l 1
 536 728 479 686 406 686 c 0xea
EndSplineSet
Substitution2: "'c2sc' Capitals to Small Capitals lookup 17 subtable" Ntilde.sc
Substitution2: "'aalt' Access All Alternates lookup 0 subtable" Ntilde.sc
EndChar
StartChar: Thorn
Encoding: 222 222 244
Width: 630
Flags: MW
HStem: 0 21G<72 72 72 244> 112 136<244 316 316 324 244 316> 420 136<244 316 244 324> 630 20G<72 244 244 244>
VStem: 72 172<0 112 248 420 556 650> 416 168<311 369>
LayerCount: 2
Fore
SplineSet
72 0 m 1
 72 650 l 1
 244 650 l 1
 244 556 l 1
 324 556 l 2
 464 556 584 504 584 340 c 0
 584 181 460 112 324 112 c 2
 244 112 l 1
 244 0 l 1
 72 0 l 1
244 248 m 1
 316 248 l 2
 384 248 416 282 416 340 c 0
 416 398 380 420 316 420 c 2
 244 420 l 1
 244 248 l 1
EndSplineSet
Substitution2: "'c2sc' Capitals to Small Capitals lookup 17 subtable" Thorn.sc
Substitution2: "'aalt' Access All Alternates lookup 0 subtable" Thorn.sc
PairPos2: "'kern' Horizontal Kerning lookup 10 per glyph data 5" slash dx=0 dy=0 dh=-20 dv=0 dx=0 dy=0 dh=0 dv=0
PairPos2: "'kern' Horizontal Kerning lookup 10 per glyph data 5" uni012C.a dx=0 dy=0 dh=-40 dv=0 dx=0 dy=0 dh=0 dv=0
PairPos2: "'kern' Horizontal Kerning lookup 10 per glyph data 5" Iogonek.a dx=0 dy=0 dh=-40 dv=0 dx=0 dy=0 dh=0 dv=0
PairPos2: "'kern' Horizontal Kerning lookup 10 per glyph data 5" uni1ECA.a dx=0 dy=0 dh=-40 dv=0 dx=0 dy=0 dh=0 dv=0
PairPos2: "'kern' Horizontal Kerning lookup 10 per glyph data 5" uni1EC8.a dx=0 dy=0 dh=-40 dv=0 dx=0 dy=0 dh=0 dv=0
PairPos2: "'kern' Horizontal Kerning lookup 10 per glyph data 5" uni01CF.a dx=0 dy=0 dh=-40 dv=0 dx=0 dy=0 dh=0 dv=0
PairPos2: "'kern' Horizontal Kerning lookup 10 per glyph data 5" Idotaccent.a dx=0 dy=0 dh=-40 dv=0 dx=0 dy=0 dh=0 dv=0
PairPos2: "'kern' Horizontal Kerning lookup 10 per glyph data 5" Imacron.a dx=0 dy=0 dh=-40 dv=0 dx=0 dy=0 dh=0 dv=0
PairPos2: "'kern' Horizontal Kerning lookup 10 per glyph data 5" Idieresis.a dx=0 dy=0 dh=-40 dv=0 dx=0 dy=0 dh=0 dv=0
PairPos2: "'kern' Horizontal Kerning lookup 10 per glyph data 5" Itilde.a dx=0 dy=0 dh=-40 dv=0 dx=0 dy=0 dh=0 dv=0
PairPos2: "'kern' Horizontal Kerning lookup 10 per glyph data 5" Icircumflex.a dx=0 dy=0 dh=-40 dv=0 dx=0 dy=0 dh=0 dv=0
PairPos2: "'kern' Horizontal Kerning lookup 10 per glyph data 5" Iacute.a dx=0 dy=0 dh=-40 dv=0 dx=0 dy=0 dh=0 dv=0
PairPos2: "'kern' Horizontal Kerning lookup 10 per glyph data 5" Igrave.a dx=0 dy=0 dh=-40 dv=0 dx=0 dy=0 dh=0 dv=0
PairPos2: "'kern' Horizontal Kerning lookup 10 per glyph data 5" I.a dx=0 dy=0 dh=-40 dv=0 dx=0 dy=0 dh=0 dv=0
PairPos2: "'kern' Horizontal Kerning lookup 10 per glyph data 5" trademark dx=0 dy=0 dh=-30 dv=0 dx=0 dy=0 dh=0 dv=0
PairPos2: "'kern' Horizontal Kerning lookup 10 per glyph data 5" backslash dx=0 dy=0 dh=-40 dv=0 dx=0 dy=0 dh=0 dv=0
PairPos2: "'kern' Horizontal Kerning lookup 10 per glyph data 5" asterisk dx=0 dy=0 dh=-30 dv=0 dx=0 dy=0 dh=0 dv=0
EndChar
StartChar: germandbls
Encoding: 223 223 393
Width: 654
Flags: MW
HStem: -12 126<414 441 414 499> 0 21G<58 228 58 58> 0 32 572 134<283.5 330>
VStem: 58 170<0 458 0 476 0 541> 304 156<339 380> 368 164<485 529> 472 156<139 180>
LayerCount: 2
Fore
SplineSet
434 -12 m 0x99
 374 -12 330 4 280 32 c 1x38
 338 148 l 1
 370 124 400 114 428 114 c 0
 454 114 472 128 472 150 c 0x99
 472 210 304 216 304 344 c 0x5c
 304 416 368 442 368 512 c 0
 368 546 348 572 312 572 c 0
 255 572 228 526 228 458 c 2
 228 0 l 1
 58 0 l 1
 58 476 l 2
 58 606 137 706 312 706 c 0
 460 706 532 620 532 532 c 0x5a
 532 438 460 410 460 366 c 0x5c
 460 312 628 308 628 158 c 0
 628 64 564 -12 434 -12 c 0x99
EndSplineSet
Substitution2: "'smcp' Lowercase to Small Capitals lookup 20 subtable" uni1E9E.sc
Substitution2: "'aalt' Access All Alternates lookup 0 subtable" uni1E9E.sc
PairPos2: "'kern' Horizontal Kerning lookup 10 per glyph data 5" registered dx=0 dy=0 dh=-60 dv=0 dx=0 dy=0 dh=0 dv=0
PairPos2: "'kern' Horizontal Kerning lookup 10 per glyph data 5" backslash dx=0 dy=0 dh=-40 dv=0 dx=0 dy=0 dh=0 dv=0
PairPos2: "'kern' Horizontal Kerning lookup 10 per glyph data 5" quotedbl dx=0 dy=0 dh=-80 dv=0 dx=0 dy=0 dh=0 dv=0
PairPos2: "'kern' Horizontal Kerning lookup 10 per glyph data 5" quotesingle dx=0 dy=0 dh=-80 dv=0 dx=0 dy=0 dh=0 dv=0
PairPos2: "'kern' Horizontal Kerning lookup 10 per glyph data 5" uni02BF dx=0 dy=0 dh=-80 dv=0 dx=0 dy=0 dh=0 dv=0
PairPos2: "'kern' Horizontal Kerning lookup 10 per glyph data 5" uni02BB dx=0 dy=0 dh=-80 dv=0 dx=0 dy=0 dh=0 dv=0
PairPos2: "'kern' Horizontal Kerning lookup 10 per glyph data 5" quotedblleft dx=0 dy=0 dh=-80 dv=0 dx=0 dy=0 dh=0 dv=0
PairPos2: "'kern' Horizontal Kerning lookup 10 per glyph data 5" quoteleft dx=0 dy=0 dh=-80 dv=0 dx=0 dy=0 dh=0 dv=0
PairPos2: "'kern' Horizontal Kerning lookup 10 per glyph data 5" uni0263 dx=0 dy=0 dh=-30 dv=0 dx=0 dy=0 dh=0 dv=0
PairPos2: "'kern' Horizontal Kerning lookup 10 per glyph data 5" uni1EF9 dx=0 dy=0 dh=-30 dv=0 dx=0 dy=0 dh=0 dv=0
PairPos2: "'kern' Horizontal Kerning lookup 10 per glyph data 5" uni1EF7 dx=0 dy=0 dh=-30 dv=0 dx=0 dy=0 dh=0 dv=0
PairPos2: "'kern' Horizontal Kerning lookup 10 per glyph data 5" uni1EF5 dx=0 dy=0 dh=-30 dv=0 dx=0 dy=0 dh=0 dv=0
PairPos2: "'kern' Horizontal Kerning lookup 10 per glyph data 5" uni1E8F dx=0 dy=0 dh=-30 dv=0 dx=0 dy=0 dh=0 dv=0
PairPos2: "'kern' Horizontal Kerning lookup 10 per glyph data 5" ydieresis dx=0 dy=0 dh=-30 dv=0 dx=0 dy=0 dh=0 dv=0
PairPos2: "'kern' Horizontal Kerning lookup 10 per glyph data 5" ycircumflex dx=0 dy=0 dh=-30 dv=0 dx=0 dy=0 dh=0 dv=0
PairPos2: "'kern' Horizontal Kerning lookup 10 per glyph data 5" yacute dx=0 dy=0 dh=-30 dv=0 dx=0 dy=0 dh=0 dv=0
PairPos2: "'kern' Horizontal Kerning lookup 10 per glyph data 5" ygrave dx=0 dy=0 dh=-30 dv=0 dx=0 dy=0 dh=0 dv=0
PairPos2: "'kern' Horizontal Kerning lookup 10 per glyph data 5" y dx=0 dy=0 dh=-30 dv=0 dx=0 dy=0 dh=0 dv=0
PairPos2: "'kern' Horizontal Kerning lookup 10 per glyph data 5" wdieresis dx=0 dy=0 dh=-20 dv=0 dx=0 dy=0 dh=0 dv=0
PairPos2: "'kern' Horizontal Kerning lookup 10 per glyph data 5" wcircumflex dx=0 dy=0 dh=-20 dv=0 dx=0 dy=0 dh=0 dv=0
PairPos2: "'kern' Horizontal Kerning lookup 10 per glyph data 5" wacute dx=0 dy=0 dh=-20 dv=0 dx=0 dy=0 dh=0 dv=0
PairPos2: "'kern' Horizontal Kerning lookup 10 per glyph data 5" wgrave dx=0 dy=0 dh=-20 dv=0 dx=0 dy=0 dh=0 dv=0
PairPos2: "'kern' Horizontal Kerning lookup 10 per glyph data 5" w dx=0 dy=0 dh=-20 dv=0 dx=0 dy=0 dh=0 dv=0
PairPos2: "'kern' Horizontal Kerning lookup 10 per glyph data 5" v dx=0 dy=0 dh=-30 dv=0 dx=0 dy=0 dh=0 dv=0
PairPos2: "'kern' Horizontal Kerning lookup 10 per glyph data 5" fl dx=0 dy=0 dh=-10 dv=0 dx=0 dy=0 dh=0 dv=0
PairPos2: "'kern' Horizontal Kerning lookup 10 per glyph data 5" fi dx=0 dy=0 dh=-10 dv=0 dx=0 dy=0 dh=0 dv=0
PairPos2: "'kern' Horizontal Kerning lookup 10 per glyph data 5" fl.a dx=0 dy=0 dh=-10 dv=0 dx=0 dy=0 dh=0 dv=0
PairPos2: "'kern' Horizontal Kerning lookup 10 per glyph data 5" f_f_t dx=0 dy=0 dh=-10 dv=0 dx=0 dy=0 dh=0 dv=0
PairPos2: "'kern' Horizontal Kerning lookup 10 per glyph data 5" f_t dx=0 dy=0 dh=-10 dv=0 dx=0 dy=0 dh=0 dv=0
PairPos2: "'kern' Horizontal Kerning lookup 10 per glyph data 5" f_f dx=0 dy=0 dh=-10 dv=0 dx=0 dy=0 dh=0 dv=0
PairPos2: "'kern' Horizontal Kerning lookup 10 per glyph data 5" f dx=0 dy=0 dh=-10 dv=0 dx=0 dy=0 dh=0 dv=0
PairPos2: "'kern' Horizontal Kerning lookup 10 per glyph data 5" uni02BE dx=0 dy=0 dh=-100 dv=0 dx=0 dy=0 dh=0 dv=0
PairPos2: "'kern' Horizontal Kerning lookup 10 per glyph data 5" uni02BC dx=0 dy=0 dh=-100 dv=0 dx=0 dy=0 dh=0 dv=0
PairPos2: "'kern' Horizontal Kerning lookup 10 per glyph data 5" quotedblright dx=0 dy=0 dh=-100 dv=0 dx=0 dy=0 dh=0 dv=0
PairPos2: "'kern' Horizontal Kerning lookup 10 per glyph data 5" quoteright dx=0 dy=0 dh=-100 dv=0 dx=0 dy=0 dh=0 dv=0
PairPos2: "'kern' Horizontal Kerning lookup 10 per glyph data 5" uni203D dx=0 dy=0 dh=-30 dv=0 dx=0 dy=0 dh=0 dv=0
PairPos2: "'kern' Horizontal Kerning lookup 10 per glyph data 5" uni2048 dx=0 dy=0 dh=-30 dv=0 dx=0 dy=0 dh=0 dv=0
PairPos2: "'kern' Horizontal Kerning lookup 10 per glyph data 5" uni2047 dx=0 dy=0 dh=-30 dv=0 dx=0 dy=0 dh=0 dv=0
PairPos2: "'kern' Horizontal Kerning lookup 10 per glyph data 5" question dx=0 dy=0 dh=-30 dv=0 dx=0 dy=0 dh=0 dv=0
PairPos2: "'kern' Horizontal Kerning lookup 10 per glyph data 5" uni0288 dx=0 dy=0 dh=-20 dv=0 dx=0 dy=0 dh=0 dv=0
PairPos2: "'kern' Horizontal Kerning lookup 10 per glyph data 5" uni0167 dx=0 dy=0 dh=-20 dv=0 dx=0 dy=0 dh=0 dv=0
PairPos2: "'kern' Horizontal Kerning lookup 10 per glyph data 5" uni1E97 dx=0 dy=0 dh=-20 dv=0 dx=0 dy=0 dh=0 dv=0
PairPos2: "'kern' Horizontal Kerning lookup 10 per glyph data 5" uni1E6F dx=0 dy=0 dh=-20 dv=0 dx=0 dy=0 dh=0 dv=0
PairPos2: "'kern' Horizontal Kerning lookup 10 per glyph data 5" uni1E6D dx=0 dy=0 dh=-20 dv=0 dx=0 dy=0 dh=0 dv=0
PairPos2: "'kern' Horizontal Kerning lookup 10 per glyph data 5" uni021B dx=0 dy=0 dh=-20 dv=0 dx=0 dy=0 dh=0 dv=0
PairPos2: "'kern' Horizontal Kerning lookup 10 per glyph data 5" uni0163 dx=0 dy=0 dh=-20 dv=0 dx=0 dy=0 dh=0 dv=0
PairPos2: "'kern' Horizontal Kerning lookup 10 per glyph data 5" tcaron dx=0 dy=0 dh=-20 dv=0 dx=0 dy=0 dh=0 dv=0
PairPos2: "'kern' Horizontal Kerning lookup 10 per glyph data 5" t dx=0 dy=0 dh=-20 dv=0 dx=0 dy=0 dh=0 dv=0
EndChar
StartChar: egrave
Encoding: 232 232 284
Width: 526
Flags: MW
HStem: -12 130<286 318> 198 112<198 344 196 483 198 198> 382 130<257 302>
VStem: 344 146<310 329>
LayerCount: 2
Fore
SplineSet
290 -12 m 0
 144 -12 32 84 32 250 c 0
 32 412 150 512 272 512 c 0
 420 512 490 404 490 270 c 0
 490 240 486 210 483 198 c 1
 198 198 l 1
 214 138 258 118 314 118 c 0
 348 118 380 128 416 148 c 1
 472 46 l 1
 418 8 346 -12 290 -12 c 0
196 310 m 1
 344 310 l 1
 344 348 328 382 276 382 c 0
 238 382 206 360 196 310 c 1
252 572 m 1
 62 730 l 1
 178 844 l 1
 336 656 l 1
 252 572 l 1
EndSplineSet
Substitution2: "'sups' Superscript lookup 26 subtable" egrave.sups
Substitution2: "'smcp' Lowercase to Small Capitals lookup 20 subtable" Egrave.sc
AlternateSubs2: "'aalt' Access All Alternates lookup 1 subtable" Egrave.sc egrave.sups
PairPos2: "'kern' Horizontal Kerning lookup 10 per glyph data 5" uni0291 dx=0 dy=0 dh=-10 dv=0 dx=0 dy=0 dh=0 dv=0
PairPos2: "'kern' Horizontal Kerning lookup 10 per glyph data 5" uni0290 dx=0 dy=0 dh=-10 dv=0 dx=0 dy=0 dh=0 dv=0
PairPos2: "'kern' Horizontal Kerning lookup 10 per glyph data 5" uni1E95 dx=0 dy=0 dh=-10 dv=0 dx=0 dy=0 dh=0 dv=0
PairPos2: "'kern' Horizontal Kerning lookup 10 per glyph data 5" uni1E93 dx=0 dy=0 dh=-10 dv=0 dx=0 dy=0 dh=0 dv=0
PairPos2: "'kern' Horizontal Kerning lookup 10 per glyph data 5" zdotaccent dx=0 dy=0 dh=-10 dv=0 dx=0 dy=0 dh=0 dv=0
PairPos2: "'kern' Horizontal Kerning lookup 10 per glyph data 5" zcaron dx=0 dy=0 dh=-10 dv=0 dx=0 dy=0 dh=0 dv=0
PairPos2: "'kern' Horizontal Kerning lookup 10 per glyph data 5" zacute dx=0 dy=0 dh=-10 dv=0 dx=0 dy=0 dh=0 dv=0
PairPos2: "'kern' Horizontal Kerning lookup 10 per glyph data 5" z dx=0 dy=0 dh=-10 dv=0 dx=0 dy=0 dh=0 dv=0
PairPos2: "'kern' Horizontal Kerning lookup 10 per glyph data 5" guillemotleft dx=0 dy=0 dh=-20 dv=0 dx=0 dy=0 dh=0 dv=0
PairPos2: "'kern' Horizontal Kerning lookup 10 per glyph data 5" guilsinglleft dx=0 dy=0 dh=-20 dv=0 dx=0 dy=0 dh=0 dv=0
PairPos2: "'kern' Horizontal Kerning lookup 10 per glyph data 5" uni2015 dx=0 dy=0 dh=10 dv=0 dx=0 dy=0 dh=0 dv=0
PairPos2: "'kern' Horizontal Kerning lookup 10 per glyph data 5" figuredash dx=0 dy=0 dh=10 dv=0 dx=0 dy=0 dh=0 dv=0
PairPos2: "'kern' Horizontal Kerning lookup 10 per glyph data 5" emdash dx=0 dy=0 dh=10 dv=0 dx=0 dy=0 dh=0 dv=0
PairPos2: "'kern' Horizontal Kerning lookup 10 per glyph data 5" endash dx=0 dy=0 dh=10 dv=0 dx=0 dy=0 dh=0 dv=0
PairPos2: "'kern' Horizontal Kerning lookup 10 per glyph data 5" uni00AD dx=0 dy=0 dh=10 dv=0 dx=0 dy=0 dh=0 dv=0
PairPos2: "'kern' Horizontal Kerning lookup 10 per glyph data 5" hyphen dx=0 dy=0 dh=10 dv=0 dx=0 dy=0 dh=0 dv=0
PairPos2: "'kern' Horizontal Kerning lookup 10 per glyph data 5" uni00670303 dx=0 dy=0 dh=-10 dv=0 dx=0 dy=0 dh=0 dv=0
PairPos2: "'kern' Horizontal Kerning lookup 10 per glyph data 5" uni1E21 dx=0 dy=0 dh=-10 dv=0 dx=0 dy=0 dh=0 dv=0
PairPos2: "'kern' Horizontal Kerning lookup 10 per glyph data 5" gcaron dx=0 dy=0 dh=-10 dv=0 dx=0 dy=0 dh=0 dv=0
PairPos2: "'kern' Horizontal Kerning lookup 10 per glyph data 5" uni0123 dx=0 dy=0 dh=-10 dv=0 dx=0 dy=0 dh=0 dv=0
PairPos2: "'kern' Horizontal Kerning lookup 10 per glyph data 5" gdotaccent dx=0 dy=0 dh=-10 dv=0 dx=0 dy=0 dh=0 dv=0
PairPos2: "'kern' Horizontal Kerning lookup 10 per glyph data 5" gbreve dx=0 dy=0 dh=-10 dv=0 dx=0 dy=0 dh=0 dv=0
PairPos2: "'kern' Horizontal Kerning lookup 10 per glyph data 5" gcircumflex dx=0 dy=0 dh=-10 dv=0 dx=0 dy=0 dh=0 dv=0
PairPos2: "'kern' Horizontal Kerning lookup 10 per glyph data 5" uni01F5 dx=0 dy=0 dh=-10 dv=0 dx=0 dy=0 dh=0 dv=0
PairPos2: "'kern' Horizontal Kerning lookup 10 per glyph data 5" g dx=0 dy=0 dh=-10 dv=0 dx=0 dy=0 dh=0 dv=0
PairPos2: "'kern' Horizontal Kerning lookup 10 per glyph data 5" uni1E62 dx=0 dy=0 dh=-20 dv=0 dx=0 dy=0 dh=0 dv=0
PairPos2: "'kern' Horizontal Kerning lookup 10 per glyph data 5" uni1E60 dx=0 dy=0 dh=-20 dv=0 dx=0 dy=0 dh=0 dv=0
PairPos2: "'kern' Horizontal Kerning lookup 10 per glyph data 5" uni0218 dx=0 dy=0 dh=-20 dv=0 dx=0 dy=0 dh=0 dv=0
PairPos2: "'kern' Horizontal Kerning lookup 10 per glyph data 5" uni015E dx=0 dy=0 dh=-20 dv=0 dx=0 dy=0 dh=0 dv=0
PairPos2: "'kern' Horizontal Kerning lookup 10 per glyph data 5" Scaron dx=0 dy=0 dh=-20 dv=0 dx=0 dy=0 dh=0 dv=0
PairPos2: "'kern' Horizontal Kerning lookup 10 per glyph data 5" Scircumflex dx=0 dy=0 dh=-20 dv=0 dx=0 dy=0 dh=0 dv=0
PairPos2: "'kern' Horizontal Kerning lookup 10 per glyph data 5" Sacute dx=0 dy=0 dh=-20 dv=0 dx=0 dy=0 dh=0 dv=0
PairPos2: "'kern' Horizontal Kerning lookup 10 per glyph data 5" S dx=0 dy=0 dh=-20 dv=0 dx=0 dy=0 dh=0 dv=0
PairPos2: "'kern' Horizontal Kerning lookup 10 per glyph data 5" Jcircumflex dx=0 dy=0 dh=-20 dv=0 dx=0 dy=0 dh=0 dv=0
PairPos2: "'kern' Horizontal Kerning lookup 10 per glyph data 5" J dx=0 dy=0 dh=-20 dv=0 dx=0 dy=0 dh=0 dv=0
PairPos2: "'kern' Horizontal Kerning lookup 10 per glyph data 5" trademark dx=0 dy=0 dh=-30 dv=0 dx=0 dy=0 dh=0 dv=0
PairPos2: "'kern' Horizontal Kerning lookup 10 per glyph data 5" registered dx=0 dy=0 dh=-20 dv=0 dx=0 dy=0 dh=0 dv=0
PairPos2: "'kern' Horizontal Kerning lookup 10 per glyph data 5" backslash dx=0 dy=0 dh=-40 dv=0 dx=0 dy=0 dh=0 dv=0
PairPos2: "'kern' Horizontal Kerning lookup 10 per glyph data 5" uni0263 dx=0 dy=0 dh=-10 dv=0 dx=0 dy=0 dh=0 dv=0
PairPos2: "'kern' Horizontal Kerning lookup 10 per glyph data 5" uni1EF9 dx=0 dy=0 dh=-10 dv=0 dx=0 dy=0 dh=0 dv=0
PairPos2: "'kern' Horizontal Kerning lookup 10 per glyph data 5" uni1EF7 dx=0 dy=0 dh=-10 dv=0 dx=0 dy=0 dh=0 dv=0
PairPos2: "'kern' Horizontal Kerning lookup 10 per glyph data 5" uni1EF5 dx=0 dy=0 dh=-10 dv=0 dx=0 dy=0 dh=0 dv=0
PairPos2: "'kern' Horizontal Kerning lookup 10 per glyph data 5" uni1E8F dx=0 dy=0 dh=-10 dv=0 dx=0 dy=0 dh=0 dv=0
PairPos2: "'kern' Horizontal Kerning lookup 10 per glyph data 5" ydieresis dx=0 dy=0 dh=-10 dv=0 dx=0 dy=0 dh=0 dv=0
PairPos2: "'kern' Horizontal Kerning lookup 10 per glyph data 5" ycircumflex dx=0 dy=0 dh=-10 dv=0 dx=0 dy=0 dh=0 dv=0
PairPos2: "'kern' Horizontal Kerning lookup 10 per glyph data 5" yacute dx=0 dy=0 dh=-10 dv=0 dx=0 dy=0 dh=0 dv=0
PairPos2: "'kern' Horizontal Kerning lookup 10 per glyph data 5" ygrave dx=0 dy=0 dh=-10 dv=0 dx=0 dy=0 dh=0 dv=0
PairPos2: "'kern' Horizontal Kerning lookup 10 per glyph data 5" y dx=0 dy=0 dh=-10 dv=0 dx=0 dy=0 dh=0 dv=0
PairPos2: "'kern' Horizontal Kerning lookup 10 per glyph data 5" x dx=0 dy=0 dh=-20 dv=0 dx=0 dy=0 dh=0 dv=0
PairPos2: "'kern' Horizontal Kerning lookup 10 per glyph data 5" wdieresis dx=0 dy=0 dh=-10 dv=0 dx=0 dy=0 dh=0 dv=0
PairPos2: "'kern' Horizontal Kerning lookup 10 per glyph data 5" wcircumflex dx=0 dy=0 dh=-10 dv=0 dx=0 dy=0 dh=0 dv=0
PairPos2: "'kern' Horizontal Kerning lookup 10 per glyph data 5" wacute dx=0 dy=0 dh=-10 dv=0 dx=0 dy=0 dh=0 dv=0
PairPos2: "'kern' Horizontal Kerning lookup 10 per glyph data 5" wgrave dx=0 dy=0 dh=-10 dv=0 dx=0 dy=0 dh=0 dv=0
PairPos2: "'kern' Horizontal Kerning lookup 10 per glyph data 5" w dx=0 dy=0 dh=-10 dv=0 dx=0 dy=0 dh=0 dv=0
PairPos2: "'kern' Horizontal Kerning lookup 10 per glyph data 5" v dx=0 dy=0 dh=-10 dv=0 dx=0 dy=0 dh=0 dv=0
PairPos2: "'kern' Horizontal Kerning lookup 10 per glyph data 5" fl dx=0 dy=0 dh=-6 dv=0 dx=0 dy=0 dh=0 dv=0
PairPos2: "'kern' Horizontal Kerning lookup 10 per glyph data 5" fi dx=0 dy=0 dh=-6 dv=0 dx=0 dy=0 dh=0 dv=0
PairPos2: "'kern' Horizontal Kerning lookup 10 per glyph data 5" fl.a dx=0 dy=0 dh=-6 dv=0 dx=0 dy=0 dh=0 dv=0
PairPos2: "'kern' Horizontal Kerning lookup 10 per glyph data 5" f_f_t dx=0 dy=0 dh=-6 dv=0 dx=0 dy=0 dh=0 dv=0
PairPos2: "'kern' Horizontal Kerning lookup 10 per glyph data 5" f_t dx=0 dy=0 dh=-6 dv=0 dx=0 dy=0 dh=0 dv=0
PairPos2: "'kern' Horizontal Kerning lookup 10 per glyph data 5" f_f dx=0 dy=0 dh=-6 dv=0 dx=0 dy=0 dh=0 dv=0
PairPos2: "'kern' Horizontal Kerning lookup 10 per glyph data 5" f dx=0 dy=0 dh=-6 dv=0 dx=0 dy=0 dh=0 dv=0
PairPos2: "'kern' Horizontal Kerning lookup 10 per glyph data 5" uni01E3 dx=0 dy=0 dh=-10 dv=0 dx=0 dy=0 dh=0 dv=0
PairPos2: "'kern' Horizontal Kerning lookup 10 per glyph data 5" uni01FD dx=0 dy=0 dh=-10 dv=0 dx=0 dy=0 dh=0 dv=0
PairPos2: "'kern' Horizontal Kerning lookup 10 per glyph data 5" ae dx=0 dy=0 dh=-10 dv=0 dx=0 dy=0 dh=0 dv=0
PairPos2: "'kern' Horizontal Kerning lookup 10 per glyph data 5" aogonek dx=0 dy=0 dh=-10 dv=0 dx=0 dy=0 dh=0 dv=0
PairPos2: "'kern' Horizontal Kerning lookup 10 per glyph data 5" uni1EB7 dx=0 dy=0 dh=-10 dv=0 dx=0 dy=0 dh=0 dv=0
PairPos2: "'kern' Horizontal Kerning lookup 10 per glyph data 5" uni1EB5 dx=0 dy=0 dh=-10 dv=0 dx=0 dy=0 dh=0 dv=0
PairPos2: "'kern' Horizontal Kerning lookup 10 per glyph data 5" uni1EB3 dx=0 dy=0 dh=-10 dv=0 dx=0 dy=0 dh=0 dv=0
PairPos2: "'kern' Horizontal Kerning lookup 10 per glyph data 5" uni1EB1 dx=0 dy=0 dh=-10 dv=0 dx=0 dy=0 dh=0 dv=0
PairPos2: "'kern' Horizontal Kerning lookup 10 per glyph data 5" uni1EAF dx=0 dy=0 dh=-10 dv=0 dx=0 dy=0 dh=0 dv=0
PairPos2: "'kern' Horizontal Kerning lookup 10 per glyph data 5" uni1EAD dx=0 dy=0 dh=-10 dv=0 dx=0 dy=0 dh=0 dv=0
PairPos2: "'kern' Horizontal Kerning lookup 10 per glyph data 5" uni1EAB dx=0 dy=0 dh=-10 dv=0 dx=0 dy=0 dh=0 dv=0
PairPos2: "'kern' Horizontal Kerning lookup 10 per glyph data 5" uni1EA9 dx=0 dy=0 dh=-10 dv=0 dx=0 dy=0 dh=0 dv=0
PairPos2: "'kern' Horizontal Kerning lookup 10 per glyph data 5" uni1EA7 dx=0 dy=0 dh=-10 dv=0 dx=0 dy=0 dh=0 dv=0
PairPos2: "'kern' Horizontal Kerning lookup 10 per glyph data 5" uni1EA5 dx=0 dy=0 dh=-10 dv=0 dx=0 dy=0 dh=0 dv=0
PairPos2: "'kern' Horizontal Kerning lookup 10 per glyph data 5" uni1EA3 dx=0 dy=0 dh=-10 dv=0 dx=0 dy=0 dh=0 dv=0
PairPos2: "'kern' Horizontal Kerning lookup 10 per glyph data 5" uni1EA1 dx=0 dy=0 dh=-10 dv=0 dx=0 dy=0 dh=0 dv=0
PairPos2: "'kern' Horizontal Kerning lookup 10 per glyph data 5" uni01CE dx=0 dy=0 dh=-10 dv=0 dx=0 dy=0 dh=0 dv=0
PairPos2: "'kern' Horizontal Kerning lookup 10 per glyph data 5" aring dx=0 dy=0 dh=-10 dv=0 dx=0 dy=0 dh=0 dv=0
PairPos2: "'kern' Horizontal Kerning lookup 10 per glyph data 5" abreve dx=0 dy=0 dh=-10 dv=0 dx=0 dy=0 dh=0 dv=0
PairPos2: "'kern' Horizontal Kerning lookup 10 per glyph data 5" amacron dx=0 dy=0 dh=-10 dv=0 dx=0 dy=0 dh=0 dv=0
PairPos2: "'kern' Horizontal Kerning lookup 10 per glyph data 5" adieresis dx=0 dy=0 dh=-10 dv=0 dx=0 dy=0 dh=0 dv=0
PairPos2: "'kern' Horizontal Kerning lookup 10 per glyph data 5" atilde dx=0 dy=0 dh=-10 dv=0 dx=0 dy=0 dh=0 dv=0
PairPos2: "'kern' Horizontal Kerning lookup 10 per glyph data 5" acircumflex dx=0 dy=0 dh=-10 dv=0 dx=0 dy=0 dh=0 dv=0
PairPos2: "'kern' Horizontal Kerning lookup 10 per glyph data 5" aacute dx=0 dy=0 dh=-10 dv=0 dx=0 dy=0 dh=0 dv=0
PairPos2: "'kern' Horizontal Kerning lookup 10 per glyph data 5" agrave dx=0 dy=0 dh=-10 dv=0 dx=0 dy=0 dh=0 dv=0
PairPos2: "'kern' Horizontal Kerning lookup 10 per glyph data 5" a dx=0 dy=0 dh=-10 dv=0 dx=0 dy=0 dh=0 dv=0
PairPos2: "'kern' Horizontal Kerning lookup 10 per glyph data 5" periodcentered dx=0 dy=0 dh=-10 dv=0 dx=0 dy=0 dh=0 dv=0
PairPos2: "'kern' Horizontal Kerning lookup 10 per glyph data 5" asterisk dx=0 dy=0 dh=-20 dv=0 dx=0 dy=0 dh=0 dv=0
PairPos2: "'kern' Horizontal Kerning lookup 10 per glyph data 5" uni02BE dx=0 dy=0 dh=-10 dv=0 dx=0 dy=0 dh=0 dv=0
PairPos2: "'kern' Horizontal Kerning lookup 10 per glyph data 5" uni02BC dx=0 dy=0 dh=-10 dv=0 dx=0 dy=0 dh=0 dv=0
PairPos2: "'kern' Horizontal Kerning lookup 10 per glyph data 5" quotedblright dx=0 dy=0 dh=-10 dv=0 dx=0 dy=0 dh=0 dv=0
PairPos2: "'kern' Horizontal Kerning lookup 10 per glyph data 5" quoteright dx=0 dy=0 dh=-10 dv=0 dx=0 dy=0 dh=0 dv=0
PairPos2: "'kern' Horizontal Kerning lookup 10 per glyph data 5" uni203D dx=0 dy=0 dh=-20 dv=0 dx=0 dy=0 dh=0 dv=0
PairPos2: "'kern' Horizontal Kerning lookup 10 per glyph data 5" uni2048 dx=0 dy=0 dh=-20 dv=0 dx=0 dy=0 dh=0 dv=0
PairPos2: "'kern' Horizontal Kerning lookup 10 per glyph data 5" uni2047 dx=0 dy=0 dh=-20 dv=0 dx=0 dy=0 dh=0 dv=0
PairPos2: "'kern' Horizontal Kerning lookup 10 per glyph data 5" question dx=0 dy=0 dh=-20 dv=0 dx=0 dy=0 dh=0 dv=0
PairPos2: "'kern' Horizontal Kerning lookup 10 per glyph data 5" uni1EF8 dx=0 dy=0 dh=-40 dv=0 dx=0 dy=0 dh=0 dv=0
PairPos2: "'kern' Horizontal Kerning lookup 10 per glyph data 5" uni1EF6 dx=0 dy=0 dh=-40 dv=0 dx=0 dy=0 dh=0 dv=0
PairPos2: "'kern' Horizontal Kerning lookup 10 per glyph data 5" uni1EF4 dx=0 dy=0 dh=-40 dv=0 dx=0 dy=0 dh=0 dv=0
PairPos2: "'kern' Horizontal Kerning lookup 10 per glyph data 5" uni1E8E dx=0 dy=0 dh=-40 dv=0 dx=0 dy=0 dh=0 dv=0
PairPos2: "'kern' Horizontal Kerning lookup 10 per glyph data 5" Ydieresis dx=0 dy=0 dh=-40 dv=0 dx=0 dy=0 dh=0 dv=0
PairPos2: "'kern' Horizontal Kerning lookup 10 per glyph data 5" Ycircumflex dx=0 dy=0 dh=-40 dv=0 dx=0 dy=0 dh=0 dv=0
PairPos2: "'kern' Horizontal Kerning lookup 10 per glyph data 5" Yacute dx=0 dy=0 dh=-40 dv=0 dx=0 dy=0 dh=0 dv=0
PairPos2: "'kern' Horizontal Kerning lookup 10 per glyph data 5" Ygrave dx=0 dy=0 dh=-40 dv=0 dx=0 dy=0 dh=0 dv=0
PairPos2: "'kern' Horizontal Kerning lookup 10 per glyph data 5" Y dx=0 dy=0 dh=-40 dv=0 dx=0 dy=0 dh=0 dv=0
PairPos2: "'kern' Horizontal Kerning lookup 10 per glyph data 5" Wdieresis dx=0 dy=0 dh=-10 dv=0 dx=0 dy=0 dh=0 dv=0
PairPos2: "'kern' Horizontal Kerning lookup 10 per glyph data 5" Wcircumflex dx=0 dy=0 dh=-10 dv=0 dx=0 dy=0 dh=0 dv=0
PairPos2: "'kern' Horizontal Kerning lookup 10 per glyph data 5" Wacute dx=0 dy=0 dh=-10 dv=0 dx=0 dy=0 dh=0 dv=0
PairPos2: "'kern' Horizontal Kerning lookup 10 per glyph data 5" Wgrave dx=0 dy=0 dh=-10 dv=0 dx=0 dy=0 dh=0 dv=0
PairPos2: "'kern' Horizontal Kerning lookup 10 per glyph data 5" W dx=0 dy=0 dh=-10 dv=0 dx=0 dy=0 dh=0 dv=0
PairPos2: "'kern' Horizontal Kerning lookup 10 per glyph data 5" V dx=0 dy=0 dh=-30 dv=0 dx=0 dy=0 dh=0 dv=0
PairPos2: "'kern' Horizontal Kerning lookup 10 per glyph data 5" uni0166 dx=0 dy=0 dh=-30 dv=0 dx=0 dy=0 dh=0 dv=0
PairPos2: "'kern' Horizontal Kerning lookup 10 per glyph data 5" uni1E6E dx=0 dy=0 dh=-30 dv=0 dx=0 dy=0 dh=0 dv=0
PairPos2: "'kern' Horizontal Kerning lookup 10 per glyph data 5" uni1E6C dx=0 dy=0 dh=-30 dv=0 dx=0 dy=0 dh=0 dv=0
PairPos2: "'kern' Horizontal Kerning lookup 10 per glyph data 5" uni021A dx=0 dy=0 dh=-30 dv=0 dx=0 dy=0 dh=0 dv=0
PairPos2: "'kern' Horizontal Kerning lookup 10 per glyph data 5" uni0162 dx=0 dy=0 dh=-30 dv=0 dx=0 dy=0 dh=0 dv=0
PairPos2: "'kern' Horizontal Kerning lookup 10 per glyph data 5" Tcaron dx=0 dy=0 dh=-30 dv=0 dx=0 dy=0 dh=0 dv=0
PairPos2: "'kern' Horizontal Kerning lookup 10 per glyph data 5" T dx=0 dy=0 dh=-30 dv=0 dx=0 dy=0 dh=0 dv=0
PairPos2: "'kern' Horizontal Kerning lookup 10 per glyph data 5" uni0288 dx=0 dy=0 dh=-10 dv=0 dx=0 dy=0 dh=0 dv=0
PairPos2: "'kern' Horizontal Kerning lookup 10 per glyph data 5" uni0167 dx=0 dy=0 dh=-10 dv=0 dx=0 dy=0 dh=0 dv=0
PairPos2: "'kern' Horizontal Kerning lookup 10 per glyph data 5" uni1E97 dx=0 dy=0 dh=-10 dv=0 dx=0 dy=0 dh=0 dv=0
PairPos2: "'kern' Horizontal Kerning lookup 10 per glyph data 5" uni1E6F dx=0 dy=0 dh=-10 dv=0 dx=0 dy=0 dh=0 dv=0
PairPos2: "'kern' Horizontal Kerning lookup 10 per glyph data 5" uni1E6D dx=0 dy=0 dh=-10 dv=0 dx=0 dy=0 dh=0 dv=0
PairPos2: "'kern' Horizontal Kerning lookup 10 per glyph data 5" uni021B dx=0 dy=0 dh=-10 dv=0 dx=0 dy=0 dh=0 dv=0
PairPos2: "'kern' Horizontal Kerning lookup 10 per glyph data 5" uni0163 dx=0 dy=0 dh=-10 dv=0 dx=0 dy=0 dh=0 dv=0
PairPos2: "'kern' Horizontal Kerning lookup 10 per glyph data 5" tcaron dx=0 dy=0 dh=-10 dv=0 dx=0 dy=0 dh=0 dv=0
PairPos2: "'kern' Horizontal Kerning lookup 10 per glyph data 5" t dx=0 dy=0 dh=-10 dv=0 dx=0 dy=0 dh=0 dv=0
EndChar
StartChar: igrave
Encoding: 236 236 315
Width: 288
Flags: MW
HStem: 0 21G<58 58 58 230> 480 20G<58 230 230 230>
VStem: 58 172<0 500 0 500>
LayerCount: 2
Fore
SplineSet
58 0 m 1
 58 500 l 1
 230 500 l 1
 230 0 l 1
 58 0 l 1
124 572 m 1
 -66 730 l 1
 50 844 l 1
 208 656 l 1
 124 572 l 1
EndSplineSet
Substitution2: "'smcp' Lowercase to Small Capitals lookup 20 subtable" Igrave.sc
Substitution2: "'aalt' Access All Alternates lookup 0 subtable" Igrave.sc
EndChar
StartChar: iacute
Encoding: 237 237 316
Width: 288
Flags: MW
HStem: 0 21G<58 58 58 230> 480 20G<58 230 230 230>
VStem: 58 172<0 500 0 500>
LayerCount: 2
Fore
SplineSet
58 0 m 1
 58 500 l 1
 230 500 l 1
 230 0 l 1
 58 0 l 1
164 572 m 1
 80 656 l 1
 238 844 l 1
 354 730 l 1
 164 572 l 1
EndSplineSet
Substitution2: "'smcp' Lowercase to Small Capitals lookup 20 subtable" Iacute.sc
Substitution2: "'aalt' Access All Alternates lookup 0 subtable" Iacute.sc
EndChar
StartChar: icircumflex
Encoding: 238 238 317
Width: 288
Flags: MW
HStem: 0 21G<58 58 58 230> 480 20G<58 230 230 230> 642 104<142 146 142 142>
VStem: 58 172<0 500 0 500>
LayerCount: 2
Fore
SplineSet
58 0 m 1
 58 500 l 1
 230 500 l 1
 230 0 l 1
 58 0 l 1
-50 618 m 1
 56 746 l 1
 232 746 l 1
 338 618 l 1
 274 558 l 1
 146 642 l 1
 142 642 l 1
 14 558 l 1
 -50 618 l 1
EndSplineSet
Substitution2: "'smcp' Lowercase to Small Capitals lookup 20 subtable" Icircumflex.sc
Substitution2: "'aalt' Access All Alternates lookup 0 subtable" Icircumflex.sc
EndChar
StartChar: eth
Encoding: 240 240 441
Width: 566
Flags: MW
HStem: -12 138<257 302 257 351> 332 126<254 256 190 292>
VStem: 38 156<195 267.5 195 303> 360 160<211 267>
LayerCount: 2
Fore
SplineSet
274 -12 m 0
 146 -12 38 82 38 230 c 0
 38 376 140 458 240 458 c 0
 272 458 307 450 332 427 c 1
 315 469 291 504 258 536 c 1
 116 465 l 1
 72 539 l 1
 183 595 l 1
 159 610 132 625 103 640 c 1
 177 744 l 1
 224 720 271 693 315 661 c 1
 458 733 l 1
 502 658 l 1
 386 600 l 1
 465 520 520 415 520 270 c 0
 520 108 428 -12 274 -12 c 0
280 126 m 0
 324 126 360 162 360 260 c 0
 360 274 360 287 359 299 c 1
 335 323 307 332 277 332 c 0
 231 332 194 305 194 230 c 0
 194 160 234 126 280 126 c 0
EndSplineSet
Substitution2: "'smcp' Lowercase to Small Capitals lookup 20 subtable" Eth.sc
Substitution2: "'aalt' Access All Alternates lookup 0 subtable" Eth.sc
EndChar
StartChar: ntilde
Encoding: 241 241 347
Width: 582
Flags: MW
HStem: 0 21G<58 58 58 230 356 356 356 528> 366 146<290 427> 480 20G<58 198 198 198> 492 20G<338 427> 572 118<361 382 361 418> 628 118<246 267>
VStem: 58 172<0 328 0 500> 118 106<582 588> 356 172<0 286 286 308 0 318> 404 106<730 736>
LayerCount: 2
Fore
SplineSet
58 0 m 1x9680
 58 500 l 1
 198 500 l 1xaa40
 210 440 l 1
 214 440 l 1
 254 478 304 512 372 512 c 0
 482 512 528 432 528 308 c 2
 528 0 l 1
 356 0 l 1
 356 286 l 2
 356 350 340 366 306 366 c 0
 274 366 256 352 230 328 c 1xc680
 230 0 l 1
 58 0 l 1x9680
378 572 m 0
 318 572 280 628 254 628 c 0
 238 628 228 618 224 582 c 1
 118 588 l 1
 120 701 170 746 250 746 c 0x9580
 310 746 348 690 374 690 c 0
 390 690 400 700 404 736 c 1
 510 730 l 1
 508 617 458 572 378 572 c 0
EndSplineSet
Substitution2: "'smcp' Lowercase to Small Capitals lookup 20 subtable" Ntilde.sc
Substitution2: "'aalt' Access All Alternates lookup 0 subtable" Ntilde.sc
PairPos2: "'kern' Horizontal Kerning lookup 10 per glyph data 5" trademark dx=0 dy=0 dh=-20 dv=0 dx=0 dy=0 dh=0 dv=0
PairPos2: "'kern' Horizontal Kerning lookup 10 per glyph data 5" asterisk dx=0 dy=0 dh=-20 dv=0 dx=0 dy=0 dh=0 dv=0
PairPos2: "'kern' Horizontal Kerning lookup 10 per glyph data 5" uni02BE dx=0 dy=0 dh=-20 dv=0 dx=0 dy=0 dh=0 dv=0
PairPos2: "'kern' Horizontal Kerning lookup 10 per glyph data 5" uni02BC dx=0 dy=0 dh=-20 dv=0 dx=0 dy=0 dh=0 dv=0
PairPos2: "'kern' Horizontal Kerning lookup 10 per glyph data 5" quotedblright dx=0 dy=0 dh=-20 dv=0 dx=0 dy=0 dh=0 dv=0
PairPos2: "'kern' Horizontal Kerning lookup 10 per glyph data 5" quoteright dx=0 dy=0 dh=-20 dv=0 dx=0 dy=0 dh=0 dv=0
PairPos2: "'kern' Horizontal Kerning lookup 10 per glyph data 5" uni203D dx=0 dy=0 dh=-20 dv=0 dx=0 dy=0 dh=0 dv=0
PairPos2: "'kern' Horizontal Kerning lookup 10 per glyph data 5" uni2048 dx=0 dy=0 dh=-20 dv=0 dx=0 dy=0 dh=0 dv=0
PairPos2: "'kern' Horizontal Kerning lookup 10 per glyph data 5" uni2047 dx=0 dy=0 dh=-20 dv=0 dx=0 dy=0 dh=0 dv=0
PairPos2: "'kern' Horizontal Kerning lookup 10 per glyph data 5" question dx=0 dy=0 dh=-20 dv=0 dx=0 dy=0 dh=0 dv=0
PairPos2: "'kern' Horizontal Kerning lookup 10 per glyph data 5" uni1EF8 dx=0 dy=0 dh=-30 dv=0 dx=0 dy=0 dh=0 dv=0
PairPos2: "'kern' Horizontal Kerning lookup 10 per glyph data 5" uni1EF6 dx=0 dy=0 dh=-30 dv=0 dx=0 dy=0 dh=0 dv=0
PairPos2: "'kern' Horizontal Kerning lookup 10 per glyph data 5" uni1EF4 dx=0 dy=0 dh=-30 dv=0 dx=0 dy=0 dh=0 dv=0
PairPos2: "'kern' Horizontal Kerning lookup 10 per glyph data 5" uni1E8E dx=0 dy=0 dh=-30 dv=0 dx=0 dy=0 dh=0 dv=0
PairPos2: "'kern' Horizontal Kerning lookup 10 per glyph data 5" Ydieresis dx=0 dy=0 dh=-30 dv=0 dx=0 dy=0 dh=0 dv=0
PairPos2: "'kern' Horizontal Kerning lookup 10 per glyph data 5" Ycircumflex dx=0 dy=0 dh=-30 dv=0 dx=0 dy=0 dh=0 dv=0
PairPos2: "'kern' Horizontal Kerning lookup 10 per glyph data 5" Yacute dx=0 dy=0 dh=-30 dv=0 dx=0 dy=0 dh=0 dv=0
PairPos2: "'kern' Horizontal Kerning lookup 10 per glyph data 5" Ygrave dx=0 dy=0 dh=-30 dv=0 dx=0 dy=0 dh=0 dv=0
PairPos2: "'kern' Horizontal Kerning lookup 10 per glyph data 5" Y dx=0 dy=0 dh=-30 dv=0 dx=0 dy=0 dh=0 dv=0
PairPos2: "'kern' Horizontal Kerning lookup 10 per glyph data 5" V dx=0 dy=0 dh=-10 dv=0 dx=0 dy=0 dh=0 dv=0
PairPos2: "'kern' Horizontal Kerning lookup 10 per glyph data 5" uni0166 dx=0 dy=0 dh=-30 dv=0 dx=0 dy=0 dh=0 dv=0
PairPos2: "'kern' Horizontal Kerning lookup 10 per glyph data 5" uni1E6E dx=0 dy=0 dh=-30 dv=0 dx=0 dy=0 dh=0 dv=0
PairPos2: "'kern' Horizontal Kerning lookup 10 per glyph data 5" uni1E6C dx=0 dy=0 dh=-30 dv=0 dx=0 dy=0 dh=0 dv=0
PairPos2: "'kern' Horizontal Kerning lookup 10 per glyph data 5" uni021A dx=0 dy=0 dh=-30 dv=0 dx=0 dy=0 dh=0 dv=0
PairPos2: "'kern' Horizontal Kerning lookup 10 per glyph data 5" uni0162 dx=0 dy=0 dh=-30 dv=0 dx=0 dy=0 dh=0 dv=0
PairPos2: "'kern' Horizontal Kerning lookup 10 per glyph data 5" Tcaron dx=0 dy=0 dh=-30 dv=0 dx=0 dy=0 dh=0 dv=0
PairPos2: "'kern' Horizontal Kerning lookup 10 per glyph data 5" T dx=0 dy=0 dh=-30 dv=0 dx=0 dy=0 dh=0 dv=0
EndChar
StartChar: oslash
Encoding: 248 248 370
Width: 560
GlyphClass: 2
Flags: MW
HStem: -12 132<271.5 306 271.5 344> 380 132<254 288.5>
VStem: 32 166<251.5 296 251.5 333> 362 166<204 249>
AnchorPoint: "Anchor-0" 280 522 basechar 0
LayerCount: 2
Fore
SplineSet
280 -12 m 0
 233 -12 188 1 149 25 c 1
 108 -26 l 1
 46 22 l 1
 90 77 l 1
 54 120 32 179 32 250 c 0
 32 416 152 512 280 512 c 0
 326 512 371 500 410 476 c 1
 452 528 l 1
 514 480 l 1
 469 424 l 1
 505 381 528 322 528 250 c 0
 528 84 408 -12 280 -12 c 0
198 260 m 0
 198 243 199 228 200 215 c 1
 323 367 l 1
 311 376 297 380 280 380 c 0
 228 380 198 332 198 260 c 0
280 120 m 0
 332 120 362 168 362 240 c 0
 362 258 361 273 359 287 c 1
 236 134 l 1
 248 124 263 120 280 120 c 0
EndSplineSet
Substitution2: "'smcp' Lowercase to Small Capitals lookup 20 subtable" Oslash.sc
Substitution2: "'aalt' Access All Alternates lookup 0 subtable" Oslash.sc
PairPos2: "'kern' Horizontal Kerning lookup 10 per glyph data 5" uni028C dx=0 dy=0 dh=-10 dv=0 dx=0 dy=0 dh=0 dv=0
PairPos2: "'kern' Horizontal Kerning lookup 10 per glyph data 5" uni0291 dx=0 dy=0 dh=-16 dv=0 dx=0 dy=0 dh=0 dv=0
PairPos2: "'kern' Horizontal Kerning lookup 10 per glyph data 5" uni0290 dx=0 dy=0 dh=-16 dv=0 dx=0 dy=0 dh=0 dv=0
PairPos2: "'kern' Horizontal Kerning lookup 10 per glyph data 5" uni1E95 dx=0 dy=0 dh=-16 dv=0 dx=0 dy=0 dh=0 dv=0
PairPos2: "'kern' Horizontal Kerning lookup 10 per glyph data 5" uni1E93 dx=0 dy=0 dh=-16 dv=0 dx=0 dy=0 dh=0 dv=0
PairPos2: "'kern' Horizontal Kerning lookup 10 per glyph data 5" zdotaccent dx=0 dy=0 dh=-16 dv=0 dx=0 dy=0 dh=0 dv=0
PairPos2: "'kern' Horizontal Kerning lookup 10 per glyph data 5" zcaron dx=0 dy=0 dh=-16 dv=0 dx=0 dy=0 dh=0 dv=0
PairPos2: "'kern' Horizontal Kerning lookup 10 per glyph data 5" zacute dx=0 dy=0 dh=-16 dv=0 dx=0 dy=0 dh=0 dv=0
PairPos2: "'kern' Horizontal Kerning lookup 10 per glyph data 5" z dx=0 dy=0 dh=-16 dv=0 dx=0 dy=0 dh=0 dv=0
PairPos2: "'kern' Horizontal Kerning lookup 10 per glyph data 5" uni028D dx=0 dy=0 dh=-10 dv=0 dx=0 dy=0 dh=0 dv=0
PairPos2: "'kern' Horizontal Kerning lookup 10 per glyph data 5" registered dx=0 dy=0 dh=-20 dv=0 dx=0 dy=0 dh=0 dv=0
PairPos2: "'kern' Horizontal Kerning lookup 10 per glyph data 5" backslash dx=0 dy=0 dh=-40 dv=0 dx=0 dy=0 dh=0 dv=0
PairPos2: "'kern' Horizontal Kerning lookup 10 per glyph data 5" quotedbl dx=0 dy=0 dh=-10 dv=0 dx=0 dy=0 dh=0 dv=0
PairPos2: "'kern' Horizontal Kerning lookup 10 per glyph data 5" quotesingle dx=0 dy=0 dh=-10 dv=0 dx=0 dy=0 dh=0 dv=0
PairPos2: "'kern' Horizontal Kerning lookup 10 per glyph data 5" uni0263 dx=0 dy=0 dh=-10 dv=0 dx=0 dy=0 dh=0 dv=0
PairPos2: "'kern' Horizontal Kerning lookup 10 per glyph data 5" uni1EF9 dx=0 dy=0 dh=-10 dv=0 dx=0 dy=0 dh=0 dv=0
PairPos2: "'kern' Horizontal Kerning lookup 10 per glyph data 5" uni1EF7 dx=0 dy=0 dh=-10 dv=0 dx=0 dy=0 dh=0 dv=0
PairPos2: "'kern' Horizontal Kerning lookup 10 per glyph data 5" uni1EF5 dx=0 dy=0 dh=-10 dv=0 dx=0 dy=0 dh=0 dv=0
PairPos2: "'kern' Horizontal Kerning lookup 10 per glyph data 5" uni1E8F dx=0 dy=0 dh=-10 dv=0 dx=0 dy=0 dh=0 dv=0
PairPos2: "'kern' Horizontal Kerning lookup 10 per glyph data 5" ydieresis dx=0 dy=0 dh=-10 dv=0 dx=0 dy=0 dh=0 dv=0
PairPos2: "'kern' Horizontal Kerning lookup 10 per glyph data 5" ycircumflex dx=0 dy=0 dh=-10 dv=0 dx=0 dy=0 dh=0 dv=0
PairPos2: "'kern' Horizontal Kerning lookup 10 per glyph data 5" yacute dx=0 dy=0 dh=-10 dv=0 dx=0 dy=0 dh=0 dv=0
PairPos2: "'kern' Horizontal Kerning lookup 10 per glyph data 5" ygrave dx=0 dy=0 dh=-10 dv=0 dx=0 dy=0 dh=0 dv=0
PairPos2: "'kern' Horizontal Kerning lookup 10 per glyph data 5" y dx=0 dy=0 dh=-10 dv=0 dx=0 dy=0 dh=0 dv=0
PairPos2: "'kern' Horizontal Kerning lookup 10 per glyph data 5" X dx=0 dy=0 dh=-10 dv=0 dx=0 dy=0 dh=0 dv=0
PairPos2: "'kern' Horizontal Kerning lookup 10 per glyph data 5" x dx=0 dy=0 dh=-30 dv=0 dx=0 dy=0 dh=0 dv=0
PairPos2: "'kern' Horizontal Kerning lookup 10 per glyph data 5" wdieresis dx=0 dy=0 dh=-10 dv=0 dx=0 dy=0 dh=0 dv=0
PairPos2: "'kern' Horizontal Kerning lookup 10 per glyph data 5" wcircumflex dx=0 dy=0 dh=-10 dv=0 dx=0 dy=0 dh=0 dv=0
PairPos2: "'kern' Horizontal Kerning lookup 10 per glyph data 5" wacute dx=0 dy=0 dh=-10 dv=0 dx=0 dy=0 dh=0 dv=0
PairPos2: "'kern' Horizontal Kerning lookup 10 per glyph data 5" wgrave dx=0 dy=0 dh=-10 dv=0 dx=0 dy=0 dh=0 dv=0
PairPos2: "'kern' Horizontal Kerning lookup 10 per glyph data 5" w dx=0 dy=0 dh=-10 dv=0 dx=0 dy=0 dh=0 dv=0
PairPos2: "'kern' Horizontal Kerning lookup 10 per glyph data 5" v dx=0 dy=0 dh=-10 dv=0 dx=0 dy=0 dh=0 dv=0
PairPos2: "'kern' Horizontal Kerning lookup 10 per glyph data 5" uni0282 dx=0 dy=0 dh=-6 dv=0 dx=0 dy=0 dh=0 dv=0
PairPos2: "'kern' Horizontal Kerning lookup 10 per glyph data 5" uni1E63 dx=0 dy=0 dh=-6 dv=0 dx=0 dy=0 dh=0 dv=0
PairPos2: "'kern' Horizontal Kerning lookup 10 per glyph data 5" uni1E61 dx=0 dy=0 dh=-6 dv=0 dx=0 dy=0 dh=0 dv=0
PairPos2: "'kern' Horizontal Kerning lookup 10 per glyph data 5" uni0219 dx=0 dy=0 dh=-6 dv=0 dx=0 dy=0 dh=0 dv=0
PairPos2: "'kern' Horizontal Kerning lookup 10 per glyph data 5" uni015F dx=0 dy=0 dh=-6 dv=0 dx=0 dy=0 dh=0 dv=0
PairPos2: "'kern' Horizontal Kerning lookup 10 per glyph data 5" scaron dx=0 dy=0 dh=-6 dv=0 dx=0 dy=0 dh=0 dv=0
PairPos2: "'kern' Horizontal Kerning lookup 10 per glyph data 5" scircumflex dx=0 dy=0 dh=-6 dv=0 dx=0 dy=0 dh=0 dv=0
PairPos2: "'kern' Horizontal Kerning lookup 10 per glyph data 5" sacute dx=0 dy=0 dh=-6 dv=0 dx=0 dy=0 dh=0 dv=0
PairPos2: "'kern' Horizontal Kerning lookup 10 per glyph data 5" s dx=0 dy=0 dh=-6 dv=0 dx=0 dy=0 dh=0 dv=0
PairPos2: "'kern' Horizontal Kerning lookup 10 per glyph data 5" fl dx=0 dy=0 dh=-6 dv=0 dx=0 dy=0 dh=0 dv=0
PairPos2: "'kern' Horizontal Kerning lookup 10 per glyph data 5" fi dx=0 dy=0 dh=-6 dv=0 dx=0 dy=0 dh=0 dv=0
PairPos2: "'kern' Horizontal Kerning lookup 10 per glyph data 5" fl.a dx=0 dy=0 dh=-6 dv=0 dx=0 dy=0 dh=0 dv=0
PairPos2: "'kern' Horizontal Kerning lookup 10 per glyph data 5" f_f_t dx=0 dy=0 dh=-6 dv=0 dx=0 dy=0 dh=0 dv=0
PairPos2: "'kern' Horizontal Kerning lookup 10 per glyph data 5" f_t dx=0 dy=0 dh=-6 dv=0 dx=0 dy=0 dh=0 dv=0
PairPos2: "'kern' Horizontal Kerning lookup 10 per glyph data 5" f_f dx=0 dy=0 dh=-6 dv=0 dx=0 dy=0 dh=0 dv=0
PairPos2: "'kern' Horizontal Kerning lookup 10 per glyph data 5" f dx=0 dy=0 dh=-6 dv=0 dx=0 dy=0 dh=0 dv=0
PairPos2: "'kern' Horizontal Kerning lookup 10 per glyph data 5" uni01E3 dx=0 dy=0 dh=-10 dv=0 dx=0 dy=0 dh=0 dv=0
PairPos2: "'kern' Horizontal Kerning lookup 10 per glyph data 5" uni01FD dx=0 dy=0 dh=-10 dv=0 dx=0 dy=0 dh=0 dv=0
PairPos2: "'kern' Horizontal Kerning lookup 10 per glyph data 5" ae dx=0 dy=0 dh=-10 dv=0 dx=0 dy=0 dh=0 dv=0
PairPos2: "'kern' Horizontal Kerning lookup 10 per glyph data 5" aogonek dx=0 dy=0 dh=-10 dv=0 dx=0 dy=0 dh=0 dv=0
PairPos2: "'kern' Horizontal Kerning lookup 10 per glyph data 5" uni1EB7 dx=0 dy=0 dh=-10 dv=0 dx=0 dy=0 dh=0 dv=0
PairPos2: "'kern' Horizontal Kerning lookup 10 per glyph data 5" uni1EB5 dx=0 dy=0 dh=-10 dv=0 dx=0 dy=0 dh=0 dv=0
PairPos2: "'kern' Horizontal Kerning lookup 10 per glyph data 5" uni1EB3 dx=0 dy=0 dh=-10 dv=0 dx=0 dy=0 dh=0 dv=0
PairPos2: "'kern' Horizontal Kerning lookup 10 per glyph data 5" uni1EB1 dx=0 dy=0 dh=-10 dv=0 dx=0 dy=0 dh=0 dv=0
PairPos2: "'kern' Horizontal Kerning lookup 10 per glyph data 5" uni1EAF dx=0 dy=0 dh=-10 dv=0 dx=0 dy=0 dh=0 dv=0
PairPos2: "'kern' Horizontal Kerning lookup 10 per glyph data 5" uni1EAD dx=0 dy=0 dh=-10 dv=0 dx=0 dy=0 dh=0 dv=0
PairPos2: "'kern' Horizontal Kerning lookup 10 per glyph data 5" uni1EAB dx=0 dy=0 dh=-10 dv=0 dx=0 dy=0 dh=0 dv=0
PairPos2: "'kern' Horizontal Kerning lookup 10 per glyph data 5" uni1EA9 dx=0 dy=0 dh=-10 dv=0 dx=0 dy=0 dh=0 dv=0
PairPos2: "'kern' Horizontal Kerning lookup 10 per glyph data 5" uni1EA7 dx=0 dy=0 dh=-10 dv=0 dx=0 dy=0 dh=0 dv=0
PairPos2: "'kern' Horizontal Kerning lookup 10 per glyph data 5" uni1EA5 dx=0 dy=0 dh=-10 dv=0 dx=0 dy=0 dh=0 dv=0
PairPos2: "'kern' Horizontal Kerning lookup 10 per glyph data 5" uni1EA3 dx=0 dy=0 dh=-10 dv=0 dx=0 dy=0 dh=0 dv=0
PairPos2: "'kern' Horizontal Kerning lookup 10 per glyph data 5" uni1EA1 dx=0 dy=0 dh=-10 dv=0 dx=0 dy=0 dh=0 dv=0
PairPos2: "'kern' Horizontal Kerning lookup 10 per glyph data 5" uni01CE dx=0 dy=0 dh=-10 dv=0 dx=0 dy=0 dh=0 dv=0
PairPos2: "'kern' Horizontal Kerning lookup 10 per glyph data 5" aring dx=0 dy=0 dh=-10 dv=0 dx=0 dy=0 dh=0 dv=0
PairPos2: "'kern' Horizontal Kerning lookup 10 per glyph data 5" abreve dx=0 dy=0 dh=-10 dv=0 dx=0 dy=0 dh=0 dv=0
PairPos2: "'kern' Horizontal Kerning lookup 10 per glyph data 5" amacron dx=0 dy=0 dh=-10 dv=0 dx=0 dy=0 dh=0 dv=0
PairPos2: "'kern' Horizontal Kerning lookup 10 per glyph data 5" adieresis dx=0 dy=0 dh=-10 dv=0 dx=0 dy=0 dh=0 dv=0
PairPos2: "'kern' Horizontal Kerning lookup 10 per glyph data 5" atilde dx=0 dy=0 dh=-10 dv=0 dx=0 dy=0 dh=0 dv=0
PairPos2: "'kern' Horizontal Kerning lookup 10 per glyph data 5" acircumflex dx=0 dy=0 dh=-10 dv=0 dx=0 dy=0 dh=0 dv=0
PairPos2: "'kern' Horizontal Kerning lookup 10 per glyph data 5" aacute dx=0 dy=0 dh=-10 dv=0 dx=0 dy=0 dh=0 dv=0
PairPos2: "'kern' Horizontal Kerning lookup 10 per glyph data 5" agrave dx=0 dy=0 dh=-10 dv=0 dx=0 dy=0 dh=0 dv=0
PairPos2: "'kern' Horizontal Kerning lookup 10 per glyph data 5" a dx=0 dy=0 dh=-10 dv=0 dx=0 dy=0 dh=0 dv=0
PairPos2: "'kern' Horizontal Kerning lookup 10 per glyph data 5" quotedblbase dx=0 dy=0 dh=-10 dv=0 dx=0 dy=0 dh=0 dv=0
PairPos2: "'kern' Horizontal Kerning lookup 10 per glyph data 5" quotesinglbase dx=0 dy=0 dh=-10 dv=0 dx=0 dy=0 dh=0 dv=0
PairPos2: "'kern' Horizontal Kerning lookup 10 per glyph data 5" ellipsis dx=0 dy=0 dh=-10 dv=0 dx=0 dy=0 dh=0 dv=0
PairPos2: "'kern' Horizontal Kerning lookup 10 per glyph data 5" comma dx=0 dy=0 dh=-10 dv=0 dx=0 dy=0 dh=0 dv=0
PairPos2: "'kern' Horizontal Kerning lookup 10 per glyph data 5" period dx=0 dy=0 dh=-10 dv=0 dx=0 dy=0 dh=0 dv=0
PairPos2: "'kern' Horizontal Kerning lookup 10 per glyph data 5" uni02BE dx=0 dy=0 dh=-40 dv=0 dx=0 dy=0 dh=0 dv=0
PairPos2: "'kern' Horizontal Kerning lookup 10 per glyph data 5" uni02BC dx=0 dy=0 dh=-40 dv=0 dx=0 dy=0 dh=0 dv=0
PairPos2: "'kern' Horizontal Kerning lookup 10 per glyph data 5" quotedblright dx=0 dy=0 dh=-40 dv=0 dx=0 dy=0 dh=0 dv=0
PairPos2: "'kern' Horizontal Kerning lookup 10 per glyph data 5" quoteright dx=0 dy=0 dh=-40 dv=0 dx=0 dy=0 dh=0 dv=0
PairPos2: "'kern' Horizontal Kerning lookup 10 per glyph data 5" uni203D dx=0 dy=0 dh=-40 dv=0 dx=0 dy=0 dh=0 dv=0
PairPos2: "'kern' Horizontal Kerning lookup 10 per glyph data 5" uni2048 dx=0 dy=0 dh=-40 dv=0 dx=0 dy=0 dh=0 dv=0
PairPos2: "'kern' Horizontal Kerning lookup 10 per glyph data 5" uni2047 dx=0 dy=0 dh=-40 dv=0 dx=0 dy=0 dh=0 dv=0
PairPos2: "'kern' Horizontal Kerning lookup 10 per glyph data 5" question dx=0 dy=0 dh=-40 dv=0 dx=0 dy=0 dh=0 dv=0
PairPos2: "'kern' Horizontal Kerning lookup 10 per glyph data 5" uni1EF8 dx=0 dy=0 dh=-60 dv=0 dx=0 dy=0 dh=0 dv=0
PairPos2: "'kern' Horizontal Kerning lookup 10 per glyph data 5" uni1EF6 dx=0 dy=0 dh=-60 dv=0 dx=0 dy=0 dh=0 dv=0
PairPos2: "'kern' Horizontal Kerning lookup 10 per glyph data 5" uni1EF4 dx=0 dy=0 dh=-60 dv=0 dx=0 dy=0 dh=0 dv=0
PairPos2: "'kern' Horizontal Kerning lookup 10 per glyph data 5" uni1E8E dx=0 dy=0 dh=-60 dv=0 dx=0 dy=0 dh=0 dv=0
PairPos2: "'kern' Horizontal Kerning lookup 10 per glyph data 5" Ydieresis dx=0 dy=0 dh=-60 dv=0 dx=0 dy=0 dh=0 dv=0
PairPos2: "'kern' Horizontal Kerning lookup 10 per glyph data 5" Ycircumflex dx=0 dy=0 dh=-60 dv=0 dx=0 dy=0 dh=0 dv=0
PairPos2: "'kern' Horizontal Kerning lookup 10 per glyph data 5" Yacute dx=0 dy=0 dh=-60 dv=0 dx=0 dy=0 dh=0 dv=0
PairPos2: "'kern' Horizontal Kerning lookup 10 per glyph data 5" Ygrave dx=0 dy=0 dh=-60 dv=0 dx=0 dy=0 dh=0 dv=0
PairPos2: "'kern' Horizontal Kerning lookup 10 per glyph data 5" Y dx=0 dy=0 dh=-60 dv=0 dx=0 dy=0 dh=0 dv=0
PairPos2: "'kern' Horizontal Kerning lookup 10 per glyph data 5" V dx=0 dy=0 dh=-20 dv=0 dx=0 dy=0 dh=0 dv=0
PairPos2: "'kern' Horizontal Kerning lookup 10 per glyph data 5" uni0166 dx=0 dy=0 dh=-60 dv=0 dx=0 dy=0 dh=0 dv=0
PairPos2: "'kern' Horizontal Kerning lookup 10 per glyph data 5" uni1E6E dx=0 dy=0 dh=-60 dv=0 dx=0 dy=0 dh=0 dv=0
PairPos2: "'kern' Horizontal Kerning lookup 10 per glyph data 5" uni1E6C dx=0 dy=0 dh=-60 dv=0 dx=0 dy=0 dh=0 dv=0
PairPos2: "'kern' Horizontal Kerning lookup 10 per glyph data 5" uni021A dx=0 dy=0 dh=-60 dv=0 dx=0 dy=0 dh=0 dv=0
PairPos2: "'kern' Horizontal Kerning lookup 10 per glyph data 5" uni0162 dx=0 dy=0 dh=-60 dv=0 dx=0 dy=0 dh=0 dv=0
PairPos2: "'kern' Horizontal Kerning lookup 10 per glyph data 5" Tcaron dx=0 dy=0 dh=-60 dv=0 dx=0 dy=0 dh=0 dv=0
PairPos2: "'kern' Horizontal Kerning lookup 10 per glyph data 5" T dx=0 dy=0 dh=-60 dv=0 dx=0 dy=0 dh=0 dv=0
PairPos2: "'kern' Horizontal Kerning lookup 10 per glyph data 5" uni0288 dx=0 dy=0 dh=-30 dv=0 dx=0 dy=0 dh=0 dv=0
PairPos2: "'kern' Horizontal Kerning lookup 10 per glyph data 5" uni0167 dx=0 dy=0 dh=-30 dv=0 dx=0 dy=0 dh=0 dv=0
PairPos2: "'kern' Horizontal Kerning lookup 10 per glyph data 5" uni1E97 dx=0 dy=0 dh=-30 dv=0 dx=0 dy=0 dh=0 dv=0
PairPos2: "'kern' Horizontal Kerning lookup 10 per glyph data 5" uni1E6F dx=0 dy=0 dh=-30 dv=0 dx=0 dy=0 dh=0 dv=0
PairPos2: "'kern' Horizontal Kerning lookup 10 per glyph data 5" uni1E6D dx=0 dy=0 dh=-30 dv=0 dx=0 dy=0 dh=0 dv=0
PairPos2: "'kern' Horizontal Kerning lookup 10 per glyph data 5" uni021B dx=0 dy=0 dh=-30 dv=0 dx=0 dy=0 dh=0 dv=0
PairPos2: "'kern' Horizontal Kerning lookup 10 per glyph data 5" uni0163 dx=0 dy=0 dh=-30 dv=0 dx=0 dy=0 dh=0 dv=0
PairPos2: "'kern' Horizontal Kerning lookup 10 per glyph data 5" tcaron dx=0 dy=0 dh=-30 dv=0 dx=0 dy=0 dh=0 dv=0
PairPos2: "'kern' Horizontal Kerning lookup 10 per glyph data 5" t dx=0 dy=0 dh=-30 dv=0 dx=0 dy=0 dh=0 dv=0
EndChar
